{
customParameters = (
{
name = glyphOrder;
value = (
    knA,
    knAA,
    knI,
    knII,
    knU,
    knUU,
    knvR,
    knvRR,
    knvL,
    knvLL,
    knE,
    knEE,
    knAI,
    knO,
    knOO,
    knAU,
    knmAA,
    knmI,
    knmII,
    knmU,
    knmUU,
    knmvR,
    knmvRR,
    knmvL,
    knmvLL,
    knmE,
    knmEE,
    knmAI,
    knmO,
    knmOO,
    knmAU,
    knLengthmark,
    knAIlengthmark,
    knKA,
    knKHA,
    knGA,
    knGHA,
    knNGA,
    knCA,
    knCHA,
    knJA,
    knJHA,
    knNYA,
    knTTA,
    knTTHA,
    knDDA,
    knDDHA,
    knNNA,
    knTA,
    knTHA,
    knDA,
    knDHA,
    knNA,
    knPA,
    knPHA,
    knBA,
    knBHA,
    knMA,
    knYA,
    knRA,
    knLA,
    knVA,
    knSHA,
    knSSA,
    knSA,
    knHA,
    knRRA,
    knLLA,
    knLLLA,
    knAnusvara,
    knCandrabindu,
    knVisarga,
    knVirama,
    knNukta,
    knAvagraha,
    knJihvamuliya,
    knUpadhmaniya,
    knZero,
    knOne,
    knTwo,
    knThree,
    knFour,
    knFive,
    knSix,
    knSeven,
    knEight,
    knNine,
    ".notdef",
    NULL,
    CR,
    space,
    danda,
    doubledanda,
    indianrupee,
    zerowidthspace,
    zerowidthnonjoiner,
    zerowidthjoiner,
    dottedcircle,
    ITF,
    knReph,
    knK,
    knKH,
    knG,
    knGH,
    knNG,
    knC,
    knCH,
    knJ,
    knJH,
    knNY,
    knTT,
    knTTH,
    knDD,
    knDDH,
    knNN,
    knT,
    knTH,
    knD,
    knDH,
    knN,
    knP,
    knPH,
    knB,
    knBH,
    knM,
    knY,
    knR,
    knL,
    knV,
    knSH,
    knSS,
    knS,
    knH,
    knRR,
    knLL,
    knLLL,
    knKAc2,
    knKHAc2,
    knGAc2,
    knGHAc2,
    knNGAc2,
    knCAc2,
    knCHAc2,
    knJAc2,
    knJHAc2,
    knNYAc2,
    knTTAc2,
    knTTHAc2,
    knDDAc2,
    knDDHAc2,
    knNNAc2,
    knTAc2,
    knTHAc2,
    knDAc2,
    knDHAc2,
    knNAc2,
    knPAc2,
    knPHAc2,
    knBAc2,
    knBHAc2,
    knMAc2,
    knYAc2,
    knRAc2,
    knLAc2,
    knVAc2,
    knSHAc2,
    knSSAc2,
    knSAc2,

glyphs = (
{
glyphname = knA;
lastChange = "2015-11-20 11:45:14 +0000";
layers = (
{
background = {
paths = (
{
closed = 1;
nodes = (
"698 -7 OFFCURVE",
"827 152 OFFCURVE",
"827 350 CURVE SMOOTH",
"827 483 OFFCURVE",
"773 592 OFFCURVE",
"653 592 CURVE SMOOTH",
"571 592 OFFCURVE",
"512 539 OFFCURVE",
"512 462 CURVE SMOOTH",
"512 401 OFFCURVE",
"547 343 OFFCURVE",
"614 320 CURVE",
"614 335 LINE",
"452 335 LINE SMOOTH",
"426 335 OFFCURVE",
"413 318 OFFCURVE",
"413 300 CURVE SMOOTH",
"413 283 OFFCURVE",
"426 265 OFFCURVE",
"452 265 CURVE SMOOTH",
"632 265 LINE SMOOTH",
"655 265 OFFCURVE",
"671 276 OFFCURVE",
"671 296 CURVE SMOOTH",
"671 312 OFFCURVE",
"664 324 OFFCURVE",
"647 334 CURVE SMOOTH",
"605 359 OFFCURVE",
"580 395 OFFCURVE",
"580 433 CURVE SMOOTH",
"580 479 OFFCURVE",
"608 518 OFFCURVE",
"663 518 CURVE SMOOTH",
"747 518 OFFCURVE",
"780 452 OFFCURVE",
"780 375 CURVE SMOOTH",
"780 191 OFFCURVE",
"639 74 OFFCURVE",
"438 74 CURVE SMOOTH",
"237 74 OFFCURVE",
"96 191 OFFCURVE",
"96 375 CURVE SMOOTH",
"96 457 OFFCURVE",
"118 499 OFFCURVE",
"167 535 CURVE",
"173 558 LINE",
"46 471 OFFCURVE",
"98 292 OFFCURVE",
"261 292 CURVE SMOOTH",
"365 292 OFFCURVE",
"415 364 OFFCURVE",
"415 438 CURVE SMOOTH",
"415 522 OFFCURVE",
"350 592 OFFCURVE",
"254 592 CURVE SMOOTH",
"120 592 OFFCURVE",
"48 478 OFFCURVE",
"48 350 CURVE SMOOTH",
"48 152 OFFCURVE",
"178 -7 OFFCURVE",
"438 -7 CURVE SMOOTH"
);
},
{
closed = 1;
nodes = (
"179 357 OFFCURVE",
"142 397 OFFCURVE",
"142 437 CURVE SMOOTH",
"142 478 OFFCURVE",
"179 518 OFFCURVE",
"254 518 CURVE SMOOTH",
"329 518 OFFCURVE",
"366 478 OFFCURVE",
"366 438 CURVE SMOOTH",
"366 397 OFFCURVE",
"329 357 OFFCURVE",
"254 357 CURVE SMOOTH"
);
}
);
};
layerId = "5E0B1C78-70A4-47D0-8E94-4E97FBB7DD03";
name = Light;
paths = (
{
closed = 1;
nodes = (
"698 -7 OFFCURVE",
"827 152 OFFCURVE",
"827 350 CURVE SMOOTH",
"827 483 OFFCURVE",
"775 597 OFFCURVE",
"659 597 CURVE SMOOTH",
"582 597 OFFCURVE",
"521 544 OFFCURVE",
"521 467 CURVE SMOOTH",
"521 406 OFFCURVE",
"556 343 OFFCURVE",
"623 320 CURVE",
"623 335 LINE",
"461 335 LINE SMOOTH",
"435 335 OFFCURVE",
"422 318 OFFCURVE",
"422 300 CURVE SMOOTH",
"422 283 OFFCURVE",
"435 265 OFFCURVE",
"461 265 CURVE SMOOTH",
"641 265 LINE SMOOTH",
"664 265 OFFCURVE",
"680 276 OFFCURVE",
"680 296 CURVE SMOOTH",
"680 312 OFFCURVE",
"673 324 OFFCURVE",
"656 334 CURVE SMOOTH",
"622 354 OFFCURVE",
"589 394 OFFCURVE",
"589 439 CURVE SMOOTH",
"589 487 OFFCURVE",
"621 523 OFFCURVE",
"669 523 CURVE SMOOTH",
"749 523 OFFCURVE",
"780 452 OFFCURVE",
"780 375 CURVE SMOOTH",
"780 191 OFFCURVE",
"639 74 OFFCURVE",
"438 74 CURVE SMOOTH",
"237 74 OFFCURVE",
"96 191 OFFCURVE",
"96 375 CURVE SMOOTH",
"96 457 OFFCURVE",
"118 499 OFFCURVE",
"167 535 CURVE",
"173 563 LINE",
"46 476 OFFCURVE",
"98 297 OFFCURVE",
"261 297 CURVE SMOOTH",
"365 297 OFFCURVE",
"415 369 OFFCURVE",
"415 443 CURVE SMOOTH",
"415 527 OFFCURVE",
"350 597 OFFCURVE",
"254 597 CURVE SMOOTH",
"120 597 OFFCURVE",
"48 478 OFFCURVE",
"48 350 CURVE SMOOTH",
"48 152 OFFCURVE",
"178 -7 OFFCURVE",
"438 -7 CURVE SMOOTH"
);
},
{
closed = 1;
nodes = (
"179 362 OFFCURVE",
"142 402 OFFCURVE",
"142 442 CURVE SMOOTH",
"142 483 OFFCURVE",
"179 523 OFFCURVE",
"254 523 CURVE SMOOTH",
"329 523 OFFCURVE",
"366 483 OFFCURVE",
"366 443 CURVE SMOOTH",
"366 402 OFFCURVE",
"329 362 OFFCURVE",
"254 362 CURVE SMOOTH"
);
}
);
width = 875;
},
{
associatedMasterId = "5E0B1C78-70A4-47D0-8E94-4E97FBB7DD03";
layerId = "F863AF25-B1EC-4120-96DA-3FA8A8149EFF";
name = "Light Aug 8 15, 18:16";
paths = (
{
closed = 1;
nodes = (
"698 -7 OFFCURVE",
"827 151 OFFCURVE",
"827 349 CURVE SMOOTH",
"827 482 OFFCURVE",
"773 591 OFFCURVE",
"653 591 CURVE SMOOTH",
"571 591 OFFCURVE",
"512 538 OFFCURVE",
"512 461 CURVE SMOOTH",
"512 400 OFFCURVE",
"547 342 OFFCURVE",
"614 319 CURVE",
"614 334 LINE",
"452 334 LINE SMOOTH",
"434 334 OFFCURVE",
"420 325 OFFCURVE",
"420 308 CURVE SMOOTH",
"420 291 OFFCURVE",
"435 281 OFFCURVE",
"452 281 CURVE SMOOTH",
"632 281 LINE SMOOTH",
"654 281 OFFCURVE",
"669 288 OFFCURVE",
"669 306 CURVE SMOOTH",
"669 316 OFFCURVE",
"662 326 OFFCURVE",
"651 331 CURVE SMOOTH",
"602 353 OFFCURVE",
"580 394 OFFCURVE",
"580 432 CURVE SMOOTH",
"580 478 OFFCURVE",
"608 517 OFFCURVE",
"663 517 CURVE SMOOTH",
"747 517 OFFCURVE",
"780 451 OFFCURVE",
"780 374 CURVE SMOOTH",
"780 190 OFFCURVE",
"639 74 OFFCURVE",
"438 74 CURVE SMOOTH",
"237 74 OFFCURVE",
"96 190 OFFCURVE",
"96 374 CURVE SMOOTH",
"96 456 OFFCURVE",
"118 498 OFFCURVE",
"167 534 CURVE",
"173 557 LINE",
"46 470 OFFCURVE",
"98 291 OFFCURVE",
"261 291 CURVE SMOOTH",
"365 291 OFFCURVE",
"415 363 OFFCURVE",
"415 437 CURVE SMOOTH",
"415 521 OFFCURVE",
"350 591 OFFCURVE",
"254 591 CURVE SMOOTH",
"120 591 OFFCURVE",
"48 477 OFFCURVE",
"48 349 CURVE SMOOTH",
"48 151 OFFCURVE",
"178 -7 OFFCURVE",
"438 -7 CURVE SMOOTH"
);
},
{
closed = 1;
nodes = (
"189 341 OFFCURVE",
"146 377 OFFCURVE",
"146 430 CURVE SMOOTH",
"146 483 OFFCURVE",
"189 517 OFFCURVE",
"248 517 CURVE SMOOTH",
"305 517 OFFCURVE",
"350 483 OFFCURVE",
"350 430 CURVE SMOOTH",
"350 374 OFFCURVE",
"307 341 OFFCURVE",
"248 341 CURVE SMOOTH"
);
}
);
width = 875;
},
{
associatedMasterId = UUID0;
layerId = "3EA72DE1-0A97-41E7-A4F1-24215B4B795F";
name = "Bold Aug 10 15, 09:33";
paths = (
{
closed = 1;
nodes = (
"674 -8 OFFCURVE",
"842 144 OFFCURVE",
"842 351 CURVE SMOOTH",
"842 493 OFFCURVE",
"794 623 OFFCURVE",
"660 623 CURVE SMOOTH",
"569 623 OFFCURVE",
"512 557 OFFCURVE",
"512 477 CURVE SMOOTH",
"512 417 OFFCURVE",
"541 358 OFFCURVE",
"624 330 CURVE",
"634 344 LINE",
"455 344 LINE SMOOTH",
"429 344 OFFCURVE",
"411 330 OFFCURVE",
"411 308 CURVE SMOOTH",
"411 285 OFFCURVE",
"428 271 OFFCURVE",
"457 271 CURVE SMOOTH",
"662 271 LINE SMOOTH",
"683 271 OFFCURVE",
"697 289 OFFCURVE",
"697 307 CURVE SMOOTH",
"697 321 OFFCURVE",
"690 334 OFFCURVE",
"672 341 CURVE SMOOTH",
"631 357 OFFCURVE",
"600 392 OFFCURVE",
"600 436 CURVE SMOOTH",
"600 478 OFFCURVE",
"630 509 OFFCURVE",
"671 509 CURVE SMOOTH",
"734 509 OFFCURVE",
"773 453 OFFCURVE",
"773 392 CURVE SMOOTH",
"773 259 OFFCURVE",
"610 192 OFFCURVE",
"445 192 CURVE SMOOTH",
"277 192 OFFCURVE",
"107 262 OFFCURVE",
"107 404 CURVE SMOOTH",
"107 478 OFFCURVE",
"150 535 OFFCURVE",
"202 554 CURVE",
"193 566 LINE",
"69 493 OFFCURVE",
"96 305 OFFCURVE",
"264 305 CURVE SMOOTH",
"375 305 OFFCURVE",
"420 385 OFFCURVE",
"420 462 CURVE SMOOTH",
"420 554 OFFCURVE",
"361 623 OFFCURVE",
"254 623 CURVE SMOOTH",
"111 623 OFFCURVE",
"38 489 OFFCURVE",
"38 351 CURVE SMOOTH",
"38 144 OFFCURVE",
"206 -8 OFFCURVE",
"440 -8 CURVE SMOOTH"
);
},
{
closed = 1;
nodes = (
"205 353 OFFCURVE",
"167 387 OFFCURVE",
"167 435 CURVE SMOOTH",
"167 484 OFFCURVE",
"205 515 OFFCURVE",
"261 515 CURVE SMOOTH",
"313 515 OFFCURVE",
"354 484 OFFCURVE",
"354 435 CURVE SMOOTH",
"354 384 OFFCURVE",
"313 353 OFFCURVE",
"261 353 CURVE SMOOTH"
);
}
);
width = 880;
},
{
background = {
paths = (
{
closed = 0;
nodes = (
"109 382 LINE SMOOTH",
"109 241 OFFCURVE",
"265 169 OFFCURVE",
"437 169 CURVE SMOOTH"
);
}
);
};
layerId = UUID0;
name = Bold;
paths = (
{
closed = 1;
nodes = (
"674 -8 OFFCURVE",
"842 144 OFFCURVE",
"842 351 CURVE SMOOTH",
"842 493 OFFCURVE",
"794 623 OFFCURVE",
"660 623 CURVE SMOOTH",
"575 623 OFFCURVE",
"525 553 OFFCURVE",
"525 481 CURVE SMOOTH",
"525 426 OFFCURVE",
"555 369 OFFCURVE",
"621 343 CURVE",
"604 374 LINE",
"457 374 LINE SMOOTH",
"420 374 OFFCURVE",
"401 348 OFFCURVE",
"401 322 CURVE SMOOTH",
"401 296 OFFCURVE",
"419 271 OFFCURVE",
"459 271 CURVE SMOOTH",
"642 271 LINE SMOOTH",
"680 271 OFFCURVE",
"700 295 OFFCURVE",
"700 320 CURVE SMOOTH",
"700 339 OFFCURVE",
"688 359 OFFCURVE",
"662 369 CURVE SMOOTH",
"629 382 OFFCURVE",
"600 404 OFFCURVE",
"600 446 CURVE SMOOTH",
"600 479 OFFCURVE",
"626 509 OFFCURVE",
"671 509 CURVE SMOOTH",
"738 509 OFFCURVE",
"773 450 OFFCURVE",
"773 382 CURVE SMOOTH",
"773 241 OFFCURVE",
"617 169 OFFCURVE",
"445 169 CURVE SMOOTH",
"253 169 OFFCURVE",
"107 240 OFFCURVE",
"107 394 CURVE SMOOTH",
"107 478 OFFCURVE",
"150 535 OFFCURVE",
"202 554 CURVE",
"185 575 LINE",
"61 502 OFFCURVE",
"96 313 OFFCURVE",
"264 313 CURVE SMOOTH",
"375 313 OFFCURVE",
"420 385 OFFCURVE",
"420 462 CURVE SMOOTH",
"420 554 OFFCURVE",
"361 623 OFFCURVE",
"254 623 CURVE SMOOTH",
"111 623 OFFCURVE",
"38 489 OFFCURVE",
"38 351 CURVE SMOOTH",
"38 144 OFFCURVE",
"206 -8 OFFCURVE",
"440 -8 CURVE SMOOTH"
);
},
{
closed = 1;
nodes = (
"206 413 OFFCURVE",
"177 439 OFFCURVE",
"177 465 CURVE SMOOTH",
"177 490 OFFCURVE",
"205 515 OFFCURVE",
"261 515 CURVE SMOOTH",
"317 515 OFFCURVE",
"345 490 OFFCURVE",
"345 465 CURVE SMOOTH",
"345 439 OFFCURVE",
"316 413 OFFCURVE",
"261 413 CURVE SMOOTH"
);
}
);
width = 880;
}
);
unicode = 0C85;
},
{
glyphname = knAA;
lastChange = "2015-10-08 10:19:29 +0000";
layers = (
{
layerId = "5E0B1C78-70A4-47D0-8E94-4E97FBB7DD03";
name = Light;
paths = (
{
closed = 1;
nodes = (
"601 -7 OFFCURVE",
"735 82 OFFCURVE",
"735 221 CURVE SMOOTH",
"735 354 OFFCURVE",
"618 385 OFFCURVE",
"618 465 CURVE SMOOTH",
"618 502 OFFCURVE",
"651 522 OFFCURVE",
"686 522 CURVE SMOOTH",
"725 522 OFFCURVE",
"765 498 OFFCURVE",
"765 449 CURVE SMOOTH",
"765 386 OFFCURVE",
"720 336 OFFCURVE",
"640 336 CURVE SMOOTH",
"468 336 LINE SMOOTH",
"442 336 OFFCURVE",
"428 319 OFFCURVE",
"428 301 CURVE SMOOTH",
"428 284 OFFCURVE",
"442 266 OFFCURVE",
"468 266 CURVE SMOOTH",
"631 266 LINE SMOOTH",
"748 266 OFFCURVE",
"814 353 OFFCURVE",
"814 455 CURVE SMOOTH",
"814 551 OFFCURVE",
"745 597 OFFCURVE",
"679 597 CURVE SMOOTH",
"617 597 OFFCURVE",
"557 556 OFFCURVE",
"557 478 CURVE SMOOTH",
"557 366 OFFCURVE",
"678 344 OFFCURVE",
"678 226 CURVE SMOOTH",
"678 129 OFFCURVE",
"575 73 OFFCURVE",
"442 73 CURVE SMOOTH",
"254 73 OFFCURVE",
"96 182 OFFCURVE",
"96 374 CURVE SMOOTH",
"96 456 OFFCURVE",
"118 498 OFFCURVE",
"167 534 CURVE",
"173 562 LINE",
"46 475 OFFCURVE",
"92 296 OFFCURVE",
"255 296 CURVE SMOOTH",
"359 296 OFFCURVE",
"415 368 OFFCURVE",
"415 442 CURVE SMOOTH",
"415 526 OFFCURVE",
"350 597 OFFCURVE",
"254 597 CURVE SMOOTH",
"120 597 OFFCURVE",
"48 477 OFFCURVE",
"48 349 CURVE SMOOTH",
"48 127 OFFCURVE",
"206 -7 OFFCURVE",
"428 -7 CURVE SMOOTH"
);
},
{
closed = 1;
nodes = (
"179 361 OFFCURVE",
"142 401 OFFCURVE",
"142 441 CURVE SMOOTH",
"142 482 OFFCURVE",
"179 522 OFFCURVE",
"254 522 CURVE SMOOTH",
"329 522 OFFCURVE",
"366 482 OFFCURVE",
"366 442 CURVE SMOOTH",
"366 401 OFFCURVE",
"329 361 OFFCURVE",
"254 361 CURVE SMOOTH"
);
}
);
width = 869;
},
{
associatedMasterId = UUID0;
background = {
paths = (
{
closed = 1;
nodes = (
"674 -8 OFFCURVE",
"842 144 OFFCURVE",
"842 351 CURVE SMOOTH",
"842 493 OFFCURVE",
"794 623 OFFCURVE",
"660 623 CURVE SMOOTH",
"575 623 OFFCURVE",
"525 553 OFFCURVE",
"525 481 CURVE SMOOTH",
"525 426 OFFCURVE",
"555 369 OFFCURVE",
"621 343 CURVE",
"604 374 LINE",
"455 374 LINE SMOOTH",
"420 374 OFFCURVE",
"401 348 OFFCURVE",
"401 322 CURVE SMOOTH",
"401 296 OFFCURVE",
"419 271 OFFCURVE",
"457 271 CURVE SMOOTH",
"642 271 LINE SMOOTH",
"680 271 OFFCURVE",
"700 295 OFFCURVE",
"700 320 CURVE SMOOTH",
"700 339 OFFCURVE",
"688 359 OFFCURVE",
"662 369 CURVE SMOOTH",
"629 382 OFFCURVE",
"600 404 OFFCURVE",
"600 446 CURVE SMOOTH",
"600 479 OFFCURVE",
"626 509 OFFCURVE",
"671 509 CURVE SMOOTH",
"734 509 OFFCURVE",
"773 453 OFFCURVE",
"773 392 CURVE SMOOTH",
"773 259 OFFCURVE",
"610 192 OFFCURVE",
"445 192 CURVE SMOOTH",
"277 192 OFFCURVE",
"107 262 OFFCURVE",
"107 404 CURVE SMOOTH",
"107 478 OFFCURVE",
"150 535 OFFCURVE",
"202 554 CURVE",
"185 575 LINE",
"61 502 OFFCURVE",
"96 313 OFFCURVE",
"264 313 CURVE SMOOTH",
"375 313 OFFCURVE",
"420 385 OFFCURVE",
"420 462 CURVE SMOOTH",
"420 554 OFFCURVE",
"361 623 OFFCURVE",
"254 623 CURVE SMOOTH",
"111 623 OFFCURVE",
"38 489 OFFCURVE",
"38 351 CURVE SMOOTH",
"38 144 OFFCURVE",
"206 -8 OFFCURVE",
"440 -8 CURVE SMOOTH"
);
},
{
closed = 1;
nodes = (
"189 413 OFFCURVE",
"151 439 OFFCURVE",
"151 465 CURVE SMOOTH",
"151 490 OFFCURVE",
"187 515 OFFCURVE",
"261 515 CURVE SMOOTH",
"333 515 OFFCURVE",
"369 490 OFFCURVE",
"369 464 CURVE SMOOTH",
"369 439 OFFCURVE",
"333 413 OFFCURVE",
"261 413 CURVE SMOOTH"
);
}
);
};
layerId = "35AE0785-3ABE-48AD-83A0-2855568E9A28";
name = "Bold Aug 10 15, 09:33";
paths = (
{
closed = 1;
nodes = (
"652 -8 OFFCURVE",
"775 81 OFFCURVE",
"775 231 CURVE SMOOTH",
"775 356 OFFCURVE",
"640 377 OFFCURVE",
"640 456 CURVE SMOOTH",
"640 487 OFFCURVE",
"660 508 OFFCURVE",
"694 508 CURVE SMOOTH",
"732 508 OFFCURVE",
"763 481 OFFCURVE",
"763 440 CURVE SMOOTH",
"763 388 OFFCURVE",
"719 343 OFFCURVE",
"629 343 CURVE SMOOTH",
"470 343 LINE SMOOTH",
"439 343 OFFCURVE",
"425 327 OFFCURVE",
"425 307 CURVE SMOOTH",
"425 287 OFFCURVE",
"440 270 OFFCURVE",
"470 270 CURVE SMOOTH",
"630 270 LINE SMOOTH",
"747 270 OFFCURVE",
"840 350 OFFCURVE",
"840 455 CURVE SMOOTH",
"840 544 OFFCURVE",
"780 623 OFFCURVE",
"681 623 CURVE SMOOTH",
"591 623 OFFCURVE",
"543 562 OFFCURVE",
"543 493 CURVE SMOOTH",
"543 384 OFFCURVE",
"667 337 OFFCURVE",
"667 285 CURVE SMOOTH",
"667 211 OFFCURVE",
"543 182 OFFCURVE",
"442 182 CURVE SMOOTH",
"274 182 OFFCURVE",
"107 262 OFFCURVE",
"107 404 CURVE SMOOTH",
"107 478 OFFCURVE",
"150 535 OFFCURVE",
"202 554 CURVE",
"193 566 LINE",
"69 493 OFFCURVE",
"96 305 OFFCURVE",
"264 305 CURVE SMOOTH",
"375 305 OFFCURVE",
"420 385 OFFCURVE",
"420 462 CURVE SMOOTH",
"420 554 OFFCURVE",
"361 623 OFFCURVE",
"254 623 CURVE SMOOTH",
"111 623 OFFCURVE",
"38 489 OFFCURVE",
"38 351 CURVE SMOOTH",
"38 144 OFFCURVE",
"206 -8 OFFCURVE",
"442 -8 CURVE SMOOTH"
);
},
{
closed = 1;
nodes = (
"205 353 OFFCURVE",
"167 387 OFFCURVE",
"167 435 CURVE SMOOTH",
"167 484 OFFCURVE",
"205 515 OFFCURVE",
"261 515 CURVE SMOOTH",
"313 515 OFFCURVE",
"354 484 OFFCURVE",
"354 435 CURVE SMOOTH",
"354 384 OFFCURVE",
"313 353 OFFCURVE",
"261 353 CURVE SMOOTH"
);
}
);
width = 888;
},
{
background = {
paths = (
{
closed = 1;
nodes = (
"332 168 OFFCURVE",
"246 220 OFFCURVE",
"246 322 CURVE SMOOTH",
"246 436 OFFCURVE",
"343 493 OFFCURVE",
"441 493 CURVE SMOOTH",
"538 493 OFFCURVE",
"636 436 OFFCURVE",
"636 322 CURVE SMOOTH",
"636 220 OFFCURVE",
"551 168 OFFCURVE",
"441 168 CURVE SMOOTH"
);
}
);
};
layerId = UUID0;
name = Bold;
paths = (
{
closed = 1;
nodes = (
"652 -8 OFFCURVE",
"765 81 OFFCURVE",
"765 231 CURVE SMOOTH",
"765 326 OFFCURVE",
"650 381 OFFCURVE",
"650 458 CURVE SMOOTH",
"650 496 OFFCURVE",
"676 515 OFFCURVE",
"703 515 CURVE SMOOTH",
"731 515 OFFCURVE",
"761 493 OFFCURVE",
"761 447 CURVE SMOOTH",
"761 392 OFFCURVE",
"709 374 OFFCURVE",
"654 374 CURVE SMOOTH",
"486 374 LINE SMOOTH",
"451 374 OFFCURVE",
"432 348 OFFCURVE",
"432 322 CURVE SMOOTH",
"432 296 OFFCURVE",
"450 271 OFFCURVE",
"488 271 CURVE SMOOTH",
"610 270 LINE SMOOTH",
"747 269 OFFCURVE",
"840 350 OFFCURVE",
"840 455 CURVE SMOOTH",
"840 570 OFFCURVE",
"763 623 OFFCURVE",
"689 623 CURVE SMOOTH",
"620 623 OFFCURVE",
"553 577 OFFCURVE",
"553 493 CURVE SMOOTH",
"553 389 OFFCURVE",
"677 336 OFFCURVE",
"677 285 CURVE SMOOTH",
"677 214 OFFCURVE",
"565 169 OFFCURVE",
"452 169 CURVE SMOOTH",
"266 169 OFFCURVE",
"107 257 OFFCURVE",
"107 404 CURVE SMOOTH",
"107 478 OFFCURVE",
"150 535 OFFCURVE",
"202 554 CURVE",
"193 566 LINE",
"69 493 OFFCURVE",
"96 305 OFFCURVE",
"264 305 CURVE SMOOTH",
"375 305 OFFCURVE",
"420 385 OFFCURVE",
"420 462 CURVE SMOOTH",
"420 554 OFFCURVE",
"361 623 OFFCURVE",
"254 623 CURVE SMOOTH",
"111 623 OFFCURVE",
"38 489 OFFCURVE",
"38 351 CURVE SMOOTH",
"38 144 OFFCURVE",
"206 -8 OFFCURVE",
"442 -8 CURVE SMOOTH"
);
},
{
closed = 1;
nodes = (
"206 413 OFFCURVE",
"177 439 OFFCURVE",
"177 465 CURVE SMOOTH",
"177 490 OFFCURVE",
"205 515 OFFCURVE",
"261 515 CURVE SMOOTH",
"317 515 OFFCURVE",
"345 490 OFFCURVE",
"345 465 CURVE SMOOTH",
"345 439 OFFCURVE",
"316 413 OFFCURVE",
"261 413 CURVE SMOOTH"
);
}
);
width = 888;
}
);
unicode = 0C86;
},
{
glyphname = knI;
lastChange = "2015-10-08 10:19:29 +0000";
layers = (
{
background = {
paths = (
{
closed = 1;
nodes = (
"643 -116 OFFCURVE",
"661 -87 OFFCURVE",
"661 -47 CURVE SMOOTH",
"661 106 OFFCURVE",
"526 267 OFFCURVE",
"352 267 CURVE SMOOTH",
"236 267 OFFCURVE",
"178 199 OFFCURVE",
"178 131 CURVE SMOOTH",
"178 62 OFFCURVE",
"247 -7 OFFCURVE",
"368 -7 CURVE SMOOTH",
"599 -7 OFFCURVE",
"723 203 OFFCURVE",
"723 374 CURVE SMOOTH",
"723 492 OFFCURVE",
"664 591 OFFCURVE",
"541 591 CURVE SMOOTH",
"444 591 OFFCURVE",
"367 494 OFFCURVE",
"367 440 CURVE",
"381 440 LINE",
"381 494 OFFCURVE",
"304 591 OFFCURVE",
"200 591 CURVE SMOOTH",
"113 591 OFFCURVE",
"48 547 OFFCURVE",
"48 466 CURVE SMOOTH",
"48 432 OFFCURVE",
"65 388 OFFCURVE",
"88 388 CURVE SMOOTH",
"103 388 OFFCURVE",
"107 401 OFFCURVE",
"105 414 CURVE SMOOTH",
"98 469 OFFCURVE",
"125 508 OFFCURVE",
"193 508 CURVE SMOOTH",
"264 508 OFFCURVE",
"316 459 OFFCURVE",
"346 402 CURVE SMOOTH",
"353 389 OFFCURVE",
"359 378 OFFCURVE",
"374 378 CURVE SMOOTH",
"389 378 OFFCURVE",
"395 389 OFFCURVE",
"402 402 CURVE SMOOTH",
"433 459 OFFCURVE",
"467 508 OFFCURVE",
"552 508 CURVE SMOOTH",
"627 508 OFFCURVE",
"665 443 OFFCURVE",
"665 363 CURVE SMOOTH",
"665 237 OFFCURVE",
"570 75 OFFCURVE",
"366 75 CURVE SMOOTH",
"295 75 OFFCURVE",
"252 112 OFFCURVE",
"252 149 CURVE SMOOTH",
"252 186 OFFCURVE",
"285 223 OFFCURVE",
"351 223 CURVE SMOOTH",
"511 223 OFFCURVE",
"577 83 OFFCURVE",
"558 -40 CURVE SMOOTH",
"552 -82 OFFCURVE",
"566 -116 OFFCURVE",
"605 -116 CURVE SMOOTH"
);
}
);
};
layerId = "5E0B1C78-70A4-47D0-8E94-4E97FBB7DD03";
name = Light;
paths = (
{
closed = 1;
nodes = (
"643 -116 OFFCURVE",
"661 -87 OFFCURVE",
"661 -47 CURVE SMOOTH",
"661 128 OFFCURVE",
"521 254 OFFCURVE",
"346 254 CURVE SMOOTH",
"237 254 OFFCURVE",
"178 189 OFFCURVE",
"178 124 CURVE SMOOTH",
"178 58 OFFCURVE",
"237 -7 OFFCURVE",
"363 -7 CURVE SMOOTH",
"594 -7 OFFCURVE",
"723 203 OFFCURVE",
"723 374 CURVE SMOOTH",
"723 492 OFFCURVE",
"664 591 OFFCURVE",
"541 591 CURVE SMOOTH",
"444 591 OFFCURVE",
"367 494 OFFCURVE",
"367 440 CURVE",
"381 440 LINE",
"381 494 OFFCURVE",
"304 591 OFFCURVE",
"200 591 CURVE SMOOTH",
"113 591 OFFCURVE",
"48 547 OFFCURVE",
"48 466 CURVE SMOOTH",
"48 432 OFFCURVE",
"65 388 OFFCURVE",
"88 388 CURVE SMOOTH",
"103 388 OFFCURVE",
"107 401 OFFCURVE",
"105 414 CURVE SMOOTH",
"98 469 OFFCURVE",
"125 508 OFFCURVE",
"193 508 CURVE SMOOTH",
"264 508 OFFCURVE",
"316 459 OFFCURVE",
"346 402 CURVE SMOOTH",
"353 389 OFFCURVE",
"359 378 OFFCURVE",
"374 378 CURVE SMOOTH",
"389 378 OFFCURVE",
"395 389 OFFCURVE",
"402 402 CURVE SMOOTH",
"433 459 OFFCURVE",
"467 508 OFFCURVE",
"552 508 CURVE SMOOTH",
"627 508 OFFCURVE",
"665 443 OFFCURVE",
"665 363 CURVE SMOOTH",
"665 237 OFFCURVE",
"565 75 OFFCURVE",
"361 75 CURVE SMOOTH",
"286 75 OFFCURVE",
"253 106 OFFCURVE",
"253 137 CURVE SMOOTH",
"253 169 OFFCURVE",
"288 202 OFFCURVE",
"348 202 CURVE SMOOTH",
"488 202 OFFCURVE",
"581 104 OFFCURVE",
"558 -40 CURVE SMOOTH",
"551 -82 OFFCURVE",
"566 -116 OFFCURVE",
"605 -116 CURVE SMOOTH"
);
}
);
width = 781;
},
{
layerId = UUID0;
name = Bold;
paths = (
{
closed = 1;
nodes = (
"759 -128 OFFCURVE",
"785 -94 OFFCURVE",
"785 -44 CURVE SMOOTH",
"785 137 OFFCURVE",
"601 297 OFFCURVE",
"385 297 CURVE SMOOTH",
"270 297 OFFCURVE",
"193 235 OFFCURVE",
"193 145 CURVE SMOOTH",
"193 50 OFFCURVE",
"269 -8 OFFCURVE",
"398 -8 CURVE SMOOTH",
"643 -8 OFFCURVE",
"787 224 OFFCURVE",
"787 406 CURVE SMOOTH",
"787 525 OFFCURVE",
"726 623 OFFCURVE",
"593 623 CURVE SMOOTH",
"473 623 OFFCURVE",
"398 536 OFFCURVE",
"398 412 CURVE",
"419 412 LINE",
"419 536 OFFCURVE",
"335 623 OFFCURVE",
"216 623 CURVE SMOOTH",
"116 623 OFFCURVE",
"38 561 OFFCURVE",
"38 467 CURVE SMOOTH",
"38 418 OFFCURVE",
"61 361 OFFCURVE",
"95 361 CURVE SMOOTH",
"110 361 OFFCURVE",
"118 374 OFFCURVE",
"118 394 CURVE SMOOTH",
"118 444 OFFCURVE",
"147 483 OFFCURVE",
"211 483 CURVE SMOOTH",
"304 483 OFFCURVE",
"358 411 OFFCURVE",
"380 368 CURVE SMOOTH",
"387 355 OFFCURVE",
"393 344 OFFCURVE",
"408 344 CURVE SMOOTH",
"423 344 OFFCURVE",
"429 355 OFFCURVE",
"436 368 CURVE SMOOTH",
"459 412 OFFCURVE",
"501 483 OFFCURVE",
"586 483 CURVE SMOOTH",
"671 483 OFFCURVE",
"699 418 OFFCURVE",
"699 361 CURVE SMOOTH",
"699 222 OFFCURVE",
"553 146 OFFCURVE",
"397 146 CURVE SMOOTH",
"341 146 OFFCURVE",
"305 153 OFFCURVE",
"305 189 CURVE SMOOTH",
"305 216 OFFCURVE",
"336 233 OFFCURVE",
"387 233 CURVE SMOOTH",
"593 233 OFFCURVE",
"638 107 OFFCURVE",
"638 -23 CURVE SMOOTH",
"638 -90 OFFCURVE",
"661 -128 OFFCURVE",
"713 -128 CURVE SMOOTH"
);
}
);
width = 835;
}
);
unicode = 0C87;
},
{
glyphname = knII;
lastChange = "2015-10-08 10:19:29 +0000";
layers = (
{
associatedMasterId = "5E0B1C78-70A4-47D0-8E94-4E97FBB7DD03";
layerId = "814A2013-001C-4504-A970-45C7C221A48D";
name = "Light Aug 24 15, 16:40";
paths = (
{
closed = 1;
nodes = (
"931 -7 OFFCURVE",
"991 35 OFFCURVE",
"991 122 CURVE SMOOTH",
"991 263 OFFCURVE",
"793 331 OFFCURVE",
"793 447 CURVE SMOOTH",
"793 501 OFFCURVE",
"827 527 OFFCURVE",
"862 527 CURVE SMOOTH",
"898 527 OFFCURVE",
"936 498 OFFCURVE",
"936 444 CURVE SMOOTH",
"936 386 OFFCURVE",
"898 325 OFFCURVE",
"807 325 CURVE SMOOTH",
"31 325 LINE SMOOTH",
"10 325 OFFCURVE",
"0 311 OFFCURVE",
"0 298 CURVE SMOOTH",
"0 284 OFFCURVE",
"10 271 OFFCURVE",
"31 271 CURVE SMOOTH",
"777 271 LINE SMOOTH",
"927 271 OFFCURVE",
"991 349 OFFCURVE",
"991 447 CURVE SMOOTH",
"991 541 OFFCURVE",
"923 591 OFFCURVE",
"858 591 CURVE SMOOTH",
"796 591 OFFCURVE",
"736 547 OFFCURVE",
"736 454 CURVE SMOOTH",
"736 297 OFFCURVE",
"932 247 OFFCURVE",
"932 134 CURVE SMOOTH",
"932 91 OFFCURVE",
"909 66 OFFCURVE",
"872 66 CURVE SMOOTH",
"810 66 OFFCURVE",
"803 140 OFFCURVE",
"766 140 CURVE SMOOTH",
"754 140 OFFCURVE",
"744 129 OFFCURVE",
"744 108 CURVE SMOOTH",
"744 54 OFFCURVE",
"800 -7 OFFCURVE",
"869 -7 CURVE SMOOTH"
);
},
{
closed = 1;
nodes = (
"510 -7 OFFCURVE",
"649 105 OFFCURVE",
"649 271 CURVE SMOOTH",
"649 416 OFFCURVE",
"554 559 OFFCURVE",
"365 559 CURVE SMOOTH",
"179 559 OFFCURVE",
"85 416 OFFCURVE",
"85 271 CURVE SMOOTH",
"85 98 OFFCURVE",
"225 -7 OFFCURVE",
"366 -7 CURVE SMOOTH"
);
},
{
closed = 1;
nodes = (
"261 86 OFFCURVE",
"142 157 OFFCURVE",
"142 298 CURVE SMOOTH",
"142 403 OFFCURVE",
"215 508 OFFCURVE",
"366 508 CURVE SMOOTH",
"518 508 OFFCURVE",
"593 402 OFFCURVE",
"593 295 CURVE SMOOTH",
"593 157 OFFCURVE",
"474 86 OFFCURVE",
"368 86 CURVE SMOOTH"
);
},
{
closed = 1;
nodes = (
"257 508 LINE",
"366 540 LINE",
"474 514 LINE",
"542 514 LINE SMOOTH",
"629 514 OFFCURVE",
"669 562 OFFCURVE",
"669 624 CURVE SMOOTH",
"669 648 OFFCURVE",
"663 675 OFFCURVE",
"645 698 CURVE SMOOTH",
"638 707 OFFCURVE",
"632 711 OFFCURVE",
"622 711 CURVE SMOOTH",
"611 711 OFFCURVE",
"603 699 OFFCURVE",
"609 687 CURVE SMOOTH",
"614 678 OFFCURVE",
"619 665 OFFCURVE",
"619 649 CURVE SMOOTH",
"619 605 OFFCURVE",
"584 592 OFFCURVE",
"528 592 CURVE SMOOTH",
"118 592 LINE SMOOTH",
"83 592 OFFCURVE",
"65 571 OFFCURVE",
"65 550 CURVE SMOOTH",
"65 529 OFFCURVE",
"83 508 OFFCURVE",
"118 508 CURVE SMOOTH"
);
}
);
width = 1039;
},
{
background = {
paths = (
{
closed = 0;
nodes = (
"768 454 LINE",
"768 297 OFFCURVE",
"964 247 OFFCURVE",
"964 134 CURVE SMOOTH",
"964 91 OFFCURVE",
"941 66 OFFCURVE",
"904 66 CURVE SMOOTH",
"842 66 OFFCURVE",
"835 140 OFFCURVE",
"798 140 CURVE SMOOTH",
"786 140 OFFCURVE",
"776 129 OFFCURVE",
"776 108 CURVE SMOOTH",
"776 54 OFFCURVE",
"832 -7 OFFCURVE",
"901 -7 CURVE SMOOTH",
"963 -7 OFFCURVE",
"1023 35 OFFCURVE",
"1023 122 CURVE SMOOTH",
"1023 263 OFFCURVE",
"825 331 OFFCURVE",
"825 447 CURVE"
);
}
);
};
layerId = "5E0B1C78-70A4-47D0-8E94-4E97FBB7DD03";
name = Light;
paths = (
{
closed = 1;
nodes = (
"888 -7 OFFCURVE",
"924 64 OFFCURVE",
"924 124 CURVE SMOOTH",
"924 287 OFFCURVE",
"772 341 OFFCURVE",
"772 451 CURVE SMOOTH",
"772 501 OFFCURVE",
"806 527 OFFCURVE",
"841 527 CURVE SMOOTH",
"877 527 OFFCURVE",
"915 498 OFFCURVE",
"915 444 CURVE SMOOTH",
"915 386 OFFCURVE",
"877 338 OFFCURVE",
"786 338 CURVE SMOOTH",
"56 338 LINE SMOOTH",
"32 338 OFFCURVE",
"20 323 OFFCURVE",
"20 307 CURVE SMOOTH",
"20 291 OFFCURVE",
"32 275 OFFCURVE",
"56 275 CURVE SMOOTH",
"756 275 LINE SMOOTH",
"906 275 OFFCURVE",
"970 349 OFFCURVE",
"970 447 CURVE SMOOTH",
"970 545 OFFCURVE",
"903 592 OFFCURVE",
"837 592 CURVE SMOOTH",
"775 592 OFFCURVE",
"715 549 OFFCURVE",
"715 466 CURVE SMOOTH",
"715 336 OFFCURVE",
"855 270 OFFCURVE",
"855 171 CURVE SMOOTH",
"855 110 OFFCURVE",
"773 106 OFFCURVE",
"773 43 CURVE SMOOTH",
"773 13 OFFCURVE",
"796 -7 OFFCURVE",
"829 -7 CURVE SMOOTH"
);
},
{
closed = 1;
nodes = (
"539 -7 OFFCURVE",
"678 105 OFFCURVE",
"678 271 CURVE SMOOTH",
"678 416 OFFCURVE",
"583 559 OFFCURVE",
"394 559 CURVE SMOOTH",
"208 559 OFFCURVE",
"114 416 OFFCURVE",
"114 271 CURVE SMOOTH",
"114 98 OFFCURVE",
"254 -7 OFFCURVE",
"395 -7 CURVE SMOOTH"
);
},
{
closed = 1;
nodes = (
"290 86 OFFCURVE",
"171 157 OFFCURVE",
"171 298 CURVE SMOOTH",
"171 403 OFFCURVE",
"244 508 OFFCURVE",
"395 508 CURVE SMOOTH",
"547 508 OFFCURVE",
"622 402 OFFCURVE",
"622 295 CURVE SMOOTH",
"622 157 OFFCURVE",
"503 86 OFFCURVE",
"397 86 CURVE SMOOTH"
);
},
{
closed = 1;
nodes = (
"286 508 LINE",
"395 540 LINE",
"503 514 LINE",
"571 514 LINE SMOOTH",
"658 514 OFFCURVE",
"698 562 OFFCURVE",
"698 624 CURVE SMOOTH",
"698 648 OFFCURVE",
"692 675 OFFCURVE",
"674 698 CURVE SMOOTH",
"667 707 OFFCURVE",
"661 711 OFFCURVE",
"651 711 CURVE SMOOTH",
"640 711 OFFCURVE",
"632 699 OFFCURVE",
"638 687 CURVE SMOOTH",
"643 678 OFFCURVE",
"648 665 OFFCURVE",
"648 649 CURVE SMOOTH",
"648 605 OFFCURVE",
"613 592 OFFCURVE",
"557 592 CURVE SMOOTH",
"147 592 LINE SMOOTH",
"112 592 OFFCURVE",
"94 571 OFFCURVE",
"94 550 CURVE SMOOTH",
"94 529 OFFCURVE",
"112 508 OFFCURVE",
"147 508 CURVE SMOOTH"
);
}
);
width = 1021;
},
{
associatedMasterId = UUID0;
layerId = "B6F4D8DE-279D-4A6C-AFD1-597707954451";
name = "Bold Aug 24 15, 16:40";
paths = (
{
closed = 1;
nodes = (
"980 -8 OFFCURVE",
"1030 58 OFFCURVE",
"1030 137 CURVE SMOOTH",
"1030 289 OFFCURVE",
"836 344 OFFCURVE",
"836 434 CURVE SMOOTH",
"836 465 OFFCURVE",
"853 493 OFFCURVE",
"893 493 CURVE SMOOTH",
"932 493 OFFCURVE",
"951 469 OFFCURVE",
"951 443 CURVE SMOOTH",
"951 411 OFFCURVE",
"923 376 OFFCURVE",
"865 376 CURVE SMOOTH",
"87 376 LINE SMOOTH",
"54 376 OFFCURVE",
"38 356 OFFCURVE",
"38 335 CURVE SMOOTH",
"38 314 OFFCURVE",
"55 293 OFFCURVE",
"87 293 CURVE SMOOTH",
"845 293 LINE SMOOTH",
"982 293 OFFCURVE",
"1047 383 OFFCURVE",
"1047 469 CURVE SMOOTH",
"1047 548 OFFCURVE",
"993 623 OFFCURVE",
"890 623 CURVE SMOOTH",
"815 623 OFFCURVE",
"741 573 OFFCURVE",
"741 472 CURVE SMOOTH",
"741 304 OFFCURVE",
"947 266 OFFCURVE",
"947 157 CURVE SMOOTH",
"947 125 OFFCURVE",
"927 104 OFFCURVE",
"893 104 CURVE SMOOTH",
"826 104 OFFCURVE",
"819 198 OFFCURVE",
"778 198 CURVE SMOOTH",
"752 198 OFFCURVE",
"742 174 OFFCURVE",
"742 143 CURVE SMOOTH",
"742 42 OFFCURVE",
"824 -8 OFFCURVE",
"894 -8 CURVE SMOOTH"
);
},
{
closed = 1;
nodes = (
"553 -8 OFFCURVE",
"675 104 OFFCURVE",
"675 273 CURVE SMOOTH",
"675 429 OFFCURVE",
"554 535 OFFCURVE",
"397 535 CURVE SMOOTH",
"240 535 OFFCURVE",
"123 429 OFFCURVE",
"123 273 CURVE SMOOTH",
"123 104 OFFCURVE",
"243 -8 OFFCURVE",
"398 -8 CURVE SMOOTH"
);
},
{
closed = 1;
nodes = (
"290 168 OFFCURVE",
"204 220 OFFCURVE",
"204 322 CURVE SMOOTH",
"204 436 OFFCURVE",
"301 493 OFFCURVE",
"399 493 CURVE SMOOTH",
"496 493 OFFCURVE",
"594 436 OFFCURVE",
"594 322 CURVE SMOOTH",
"594 220 OFFCURVE",
"509 168 OFFCURVE",
"399 168 CURVE SMOOTH"
);
},
{
closed = 1;
nodes = (
"285 477 LINE",
"399 513 LINE",
"516 477 LINE",
"537 477 LINE SMOOTH",
"627 477 OFFCURVE",
"695 536 OFFCURVE",
"695 641 CURVE SMOOTH",
"695 681 OFFCURVE",
"685 719 OFFCURVE",
"666 741 CURVE SMOOTH",
"656 752 OFFCURVE",
"644 759 OFFCURVE",
"629 759 CURVE SMOOTH",
"604 759 OFFCURVE",
"593 737 OFFCURVE",
"597 715 CURVE SMOOTH",
"598 708 OFFCURVE",
"599 701 OFFCURVE",
"599 688 CURVE SMOOTH",
"599 651 OFFCURVE",
"578 623 OFFCURVE",
"525 623 CURVE SMOOTH",
"184 623 LINE SMOOTH",
"130 623 OFFCURVE",
"103 586 OFFCURVE",
"103 550 CURVE SMOOTH",
"103 513 OFFCURVE",
"130 477 OFFCURVE",
"184 477 CURVE SMOOTH"
);
}
);
width = 1085;
},
{
background = {
paths = (
{
closed = 0;
nodes = (
"709 472 LINE",
"709 340 OFFCURVE",
"810 293 OFFCURVE",
"810 189 CURVE SMOOTH",
"810 148 OFFCURVE",
"803 130 OFFCURVE",
"779 97 CURVE SMOOTH",
"768 84 OFFCURVE",
"759 70 OFFCURVE",
"759 51 CURVE SMOOTH",
"759 13 OFFCURVE",
"797 -8 OFFCURVE",
"836 -8 CURVE SMOOTH",
"908 -8 OFFCURVE",
"946 50 OFFCURVE",
"946 113 CURVE SMOOTH",
"946 226 OFFCURVE",
"794 320 OFFCURVE",
"794 434 CURVE"
);
}
);
};
layerId = UUID0;
name = Bold;
paths = (
{
closed = 1;
nodes = (
"922 -8 OFFCURVE",
"959 51 OFFCURVE",
"959 112 CURVE SMOOTH",
"959 295 OFFCURVE",
"804 342 OFFCURVE",
"804 434 CURVE SMOOTH",
"804 473 OFFCURVE",
"833 492 OFFCURVE",
"860 492 CURVE SMOOTH",
"885 492 OFFCURVE",
"909 476 OFFCURVE",
"909 443 CURVE SMOOTH",
"909 411 OFFCURVE",
"881 376 OFFCURVE",
"823 376 CURVE SMOOTH",
"87 376 LINE SMOOTH",
"54 376 OFFCURVE",
"38 356 OFFCURVE",
"38 335 CURVE SMOOTH",
"38 314 OFFCURVE",
"55 293 OFFCURVE",
"87 293 CURVE SMOOTH",
"803 293 LINE SMOOTH",
"940 293 OFFCURVE",
"1005 383 OFFCURVE",
"1005 469 CURVE SMOOTH",
"1005 558 OFFCURVE",
"944 623 OFFCURVE",
"856 623 CURVE SMOOTH",
"765 623 OFFCURVE",
"709 557 OFFCURVE",
"709 482 CURVE SMOOTH",
"709 360 OFFCURVE",
"842 311 OFFCURVE",
"842 216 CURVE SMOOTH",
"842 152 OFFCURVE",
"778 137 OFFCURVE",
"778 65 CURVE SMOOTH",
"778 26 OFFCURVE",
"808 -8 OFFCURVE",
"858 -8 CURVE SMOOTH"
);
},
{
closed = 1;
nodes = (
"553 -8 OFFCURVE",
"675 104 OFFCURVE",
"675 273 CURVE SMOOTH",
"675 429 OFFCURVE",
"554 535 OFFCURVE",
"397 535 CURVE SMOOTH",
"240 535 OFFCURVE",
"123 429 OFFCURVE",
"123 273 CURVE SMOOTH",
"123 104 OFFCURVE",
"243 -8 OFFCURVE",
"398 -8 CURVE SMOOTH"
);
},
{
closed = 1;
nodes = (
"290 168 OFFCURVE",
"204 220 OFFCURVE",
"204 322 CURVE SMOOTH",
"204 436 OFFCURVE",
"301 493 OFFCURVE",
"399 493 CURVE SMOOTH",
"496 493 OFFCURVE",
"594 436 OFFCURVE",
"594 322 CURVE SMOOTH",
"594 220 OFFCURVE",
"509 168 OFFCURVE",
"399 168 CURVE SMOOTH"
);
},
{
closed = 1;
nodes = (
"285 477 LINE",
"399 513 LINE",
"516 477 LINE",
"537 477 LINE SMOOTH",
"627 477 OFFCURVE",
"695 536 OFFCURVE",
"695 641 CURVE SMOOTH",
"695 681 OFFCURVE",
"685 719 OFFCURVE",
"666 741 CURVE SMOOTH",
"656 752 OFFCURVE",
"644 759 OFFCURVE",
"629 759 CURVE SMOOTH",
"604 759 OFFCURVE",
"593 737 OFFCURVE",
"597 715 CURVE SMOOTH",
"598 708 OFFCURVE",
"599 701 OFFCURVE",
"599 688 CURVE SMOOTH",
"599 651 OFFCURVE",
"578 623 OFFCURVE",
"525 623 CURVE SMOOTH",
"184 623 LINE SMOOTH",
"130 623 OFFCURVE",
"103 586 OFFCURVE",
"103 550 CURVE SMOOTH",
"103 513 OFFCURVE",
"130 477 OFFCURVE",
"184 477 CURVE SMOOTH"
);
}
);
width = 1055;
}
);
unicode = 0C88;
},
{
glyphname = knU;
lastChange = "2015-10-08 10:19:29 +0000";
layers = (
{
background = {
paths = (
{
closed = 0;
nodes = (
"688 232 LINE SMOOTH",
"688 279 OFFCURVE",
"703 334 OFFCURVE",
"703 410 CURVE SMOOTH"
);
},
{
closed = 0;
nodes = (
"762 432 LINE SMOOTH",
"762 361 OFFCURVE",
"743 321 OFFCURVE",
"743 243 CURVE SMOOTH"
);
}
);
};
guideLines = (
{
position = "{1263, 93}";
}
);
layerId = "5E0B1C78-70A4-47D0-8E94-4E97FBB7DD03";
name = Light;
paths = (
{
closed = 1;
nodes = (
"484 -7 OFFCURVE",
"562 111 OFFCURVE",
"562 232 CURVE SMOOTH",
"562 279 OFFCURVE",
"547 334 OFFCURVE",
"547 415 CURVE SMOOTH",
"547 473 OFFCURVE",
"586 502 OFFCURVE",
"625 502 CURVE SMOOTH",
"664 502 OFFCURVE",
"703 473 OFFCURVE",
"703 415 CURVE SMOOTH",
"703 334 OFFCURVE",
"688 279 OFFCURVE",
"688 232 CURVE SMOOTH",
"688 96 OFFCURVE",
"775 -7 OFFCURVE",
"922 -7 CURVE SMOOTH",
"1078 -7 OFFCURVE",
"1162 107 OFFCURVE",
"1162 267 CURVE SMOOTH",
"1162 436 OFFCURVE",
"1067 597 OFFCURVE",
"881 597 CURVE SMOOTH",
"835 597 OFFCURVE",
"816 574 OFFCURVE",
"816 552 CURVE SMOOTH",
"816 532 OFFCURVE",
"832 513 OFFCURVE",
"855 513 CURVE SMOOTH",
"889 513 OFFCURVE",
"890 525 OFFCURVE",
"947 525 CURVE SMOOTH",
"1042 525 OFFCURVE",
"1093 417 OFFCURVE",
"1093 297 CURVE SMOOTH",
"1093 179 OFFCURVE",
"1055 93 OFFCURVE",
"921 93 CURVE SMOOTH",
"818 93 OFFCURVE",
"744 139 OFFCURVE",
"744 243 CURVE SMOOTH",
"744 321 OFFCURVE",
"763 361 OFFCURVE",
"763 437 CURVE SMOOTH",
"763 544 OFFCURVE",
"694 597 OFFCURVE",
"626 597 CURVE SMOOTH",
"557 597 OFFCURVE",
"488 544 OFFCURVE",
"488 437 CURVE SMOOTH",
"488 361 OFFCURVE",
"507 321 OFFCURVE",
"507 243 CURVE SMOOTH",
"507 156 OFFCURVE",
"446 93 OFFCURVE",
"319 93 CURVE SMOOTH",
"174 93 OFFCURVE",
"106 204 OFFCURVE",
"106 326 CURVE SMOOTH",
"106 399 OFFCURVE",
"130 475 OFFCURVE",
"175 535 CURVE",
"185 563 LINE",
"58 476 OFFCURVE",
"110 297 OFFCURVE",
"273 297 CURVE SMOOTH",
"377 297 OFFCURVE",
"427 369 OFFCURVE",
"427 443 CURVE SMOOTH",
"427 527 OFFCURVE",
"362 597 OFFCURVE",
"266 597 CURVE SMOOTH",
"129 597 OFFCURVE",
"48 449 OFFCURVE",
"48 303 CURVE SMOOTH",
"48 150 OFFCURVE",
"132 -7 OFFCURVE",
"321 -7 CURVE SMOOTH"
);
},
{
closed = 1;
nodes = (
"191 362 OFFCURVE",
"154 397 OFFCURVE",
"154 437 CURVE SMOOTH",
"154 478 OFFCURVE",
"191 523 OFFCURVE",
"266 523 CURVE SMOOTH",
"341 523 OFFCURVE",
"378 483 OFFCURVE",
"378 443 CURVE SMOOTH",
"378 402 OFFCURVE",
"341 362 OFFCURVE",
"266 362 CURVE SMOOTH"
);
}
);
width = 1210;
},
{
background = {
paths = (
{
closed = 1;
nodes = (
"784 271 OFFCURVE",
"800 288 OFFCURVE",
"800 308 CURVE SMOOTH",
"800 328 OFFCURVE",
"784 345 OFFCURVE",
"764 345 CURVE SMOOTH",
"743 345 OFFCURVE",
"727 328 OFFCURVE",
"727 308 CURVE SMOOTH",
"727 288 OFFCURVE",
"743 271 OFFCURVE",
"764 271 CURVE SMOOTH"
);
},
{
closed = 1;
nodes = (
"557 271 OFFCURVE",
"573 288 OFFCURVE",
"573 308 CURVE SMOOTH",
"573 328 OFFCURVE",
"557 345 OFFCURVE",
"537 345 CURVE SMOOTH",
"516 345 OFFCURVE",
"500 328 OFFCURVE",
"500 308 CURVE SMOOTH",
"500 288 OFFCURVE",
"516 271 OFFCURVE",
"537 271 CURVE SMOOTH"
);
}
);
};
layerId = UUID0;
name = Bold;
paths = (
{
closed = 1;
nodes = (
"505 -8 OFFCURVE",
"579 99 OFFCURVE",
"579 232 CURVE SMOOTH",
"579 279 OFFCURVE",
"569 317 OFFCURVE",
"569 372 CURVE SMOOTH",
"569 429 OFFCURVE",
"596 464 OFFCURVE",
"650 464 CURVE SMOOTH",
"706 464 OFFCURVE",
"733 429 OFFCURVE",
"733 374 CURVE SMOOTH",
"733 336 OFFCURVE",
"722 288 OFFCURVE",
"721 234 CURVE SMOOTH",
"718 84 OFFCURVE",
"829 -8 OFFCURVE",
"968 -8 CURVE SMOOTH",
"1142 -8 OFFCURVE",
"1229 137 OFFCURVE",
"1229 286 CURVE SMOOTH",
"1229 455 OFFCURVE",
"1115 623 OFFCURVE",
"956 623 CURVE SMOOTH",
"885 623 OFFCURVE",
"854 586 OFFCURVE",
"854 551 CURVE SMOOTH",
"854 521 OFFCURVE",
"877 493 OFFCURVE",
"917 493 CURVE SMOOTH",
"961 493 OFFCURVE",
"967 505 OFFCURVE",
"1017 505 CURVE SMOOTH",
"1100 505 OFFCURVE",
"1135 432 OFFCURVE",
"1135 358 CURVE SMOOTH",
"1135 262 OFFCURVE",
"1084 177 OFFCURVE",
"971 177 CURVE SMOOTH",
"876 177 OFFCURVE",
"800 239 OFFCURVE",
"800 324 CURVE SMOOTH",
"800 364 OFFCURVE",
"804 390 OFFCURVE",
"804 440 CURVE SMOOTH",
"804 543 OFFCURVE",
"753 623 OFFCURVE",
"649 623 CURVE SMOOTH",
"545 623 OFFCURVE",
"490 543 OFFCURVE",
"490 440 CURVE SMOOTH",
"490 399 OFFCURVE",
"501 371 OFFCURVE",
"501 328 CURVE SMOOTH",
"501 228 OFFCURVE",
"434 177 OFFCURVE",
"327 177 CURVE SMOOTH",
"182 177 OFFCURVE",
"119 272 OFFCURVE",
"119 371 CURVE SMOOTH",
"119 440 OFFCURVE",
"150 512 OFFCURVE",
"208 554 CURVE",
"208 575 LINE",
"84 502 OFFCURVE",
"112 313 OFFCURVE",
"280 313 CURVE SMOOTH",
"391 313 OFFCURVE",
"436 385 OFFCURVE",
"436 462 CURVE SMOOTH",
"436 554 OFFCURVE",
"377 623 OFFCURVE",
"270 623 CURVE SMOOTH",
"130 623 OFFCURVE",
"38 468 OFFCURVE",
"38 312 CURVE SMOOTH",
"38 153 OFFCURVE",
"122 -8 OFFCURVE",
"317 -8 CURVE SMOOTH"
);
},
{
closed = 1;
nodes = (
"222 413 OFFCURVE",
"193 439 OFFCURVE",
"193 465 CURVE SMOOTH",
"193 490 OFFCURVE",
"221 515 OFFCURVE",
"277 515 CURVE SMOOTH",
"333 515 OFFCURVE",
"361 490 OFFCURVE",
"361 465 CURVE SMOOTH",
"361 439 OFFCURVE",
"332 413 OFFCURVE",
"277 413 CURVE SMOOTH"
);
}
);
width = 1267;
}
);
unicode = 0C89;
},
{
glyphname = knUU;
lastChange = "2015-10-08 10:19:29 +0000";
layers = (
{
background = {
paths = (
{
closed = 0;
nodes = (
"677 162 LINE SMOOTH",
"677 49 OFFCURVE",
"746 -8 OFFCURVE",
"815 -8 CURVE SMOOTH",
"883 -8 OFFCURVE",
"952 49 OFFCURVE",
"952 162 CURVE SMOOTH"
);
},
{
closed = 0;
nodes = (
"893 181 LINE SMOOTH",
"893 117 OFFCURVE",
"854 86 OFFCURVE",
"815 86 CURVE SMOOTH",
"776 86 OFFCURVE",
"737 117 OFFCURVE",
"737 181 CURVE SMOOTH"
);
}
);
};
layerId = "5E0B1C78-70A4-47D0-8E94-4E97FBB7DD03";
name = Light;
paths = (
{
closed = 1;
nodes = (
"884 -8 OFFCURVE",
"952 50 OFFCURVE",
"952 164 CURVE SMOOTH",
"952 219 OFFCURVE",
"941 258 OFFCURVE",
"941 316 CURVE SMOOTH",
"941 438 OFFCURVE",
"1040 500 OFFCURVE",
"1147 500 CURVE SMOOTH",
"1261 500 OFFCURVE",
"1380 428 OFFCURVE",
"1380 278 CURVE SMOOTH",
"1380 183 OFFCURVE",
"1318 93 OFFCURVE",
"1204 93 CURVE SMOOTH",
"1126 93 OFFCURVE",
"1067 135 OFFCURVE",
"1067 200 CURVE SMOOTH",
"1067 238 OFFCURVE",
"1089 271 OFFCURVE",
"1122 271 CURVE SMOOTH",
"1155 271 OFFCURVE",
"1176 259 OFFCURVE",
"1205 259 CURVE SMOOTH",
"1231 259 OFFCURVE",
"1248 278 OFFCURVE",
"1248 298 CURVE SMOOTH",
"1248 320 OFFCURVE",
"1228 343 OFFCURVE",
"1182 343 CURVE SMOOTH",
"1066 343 OFFCURVE",
"1010 262 OFFCURVE",
"1010 177 CURVE SMOOTH",
"1010 65 OFFCURVE",
"1100 -7 OFFCURVE",
"1208 -7 CURVE SMOOTH",
"1355 -7 OFFCURVE",
"1437 133 OFFCURVE",
"1437 278 CURVE SMOOTH",
"1437 491 OFFCURVE",
"1287 591 OFFCURVE",
"1141 591 CURVE SMOOTH",
"1003 591 OFFCURVE",
"882 501 OFFCURVE",
"882 338 CURVE SMOOTH",
"882 271 OFFCURVE",
"893 246 OFFCURVE",
"893 186 CURVE SMOOTH",
"893 123 OFFCURVE",
"861 86 OFFCURVE",
"815 86 CURVE SMOOTH",
"768 86 OFFCURVE",
"737 121 OFFCURVE",
"737 186 CURVE SMOOTH",
"737 316 OFFCURVE",
"759 356 OFFCURVE",
"759 427 CURVE SMOOTH",
"759 540 OFFCURVE",
"690 597 OFFCURVE",
"622 597 CURVE SMOOTH",
"553 597 OFFCURVE",
"484 540 OFFCURVE",
"484 427 CURVE SMOOTH",
"484 366 OFFCURVE",
"503 321 OFFCURVE",
"503 243 CURVE SMOOTH",
"503 156 OFFCURVE",
"456 93 OFFCURVE",
"319 93 CURVE SMOOTH",
"184 93 OFFCURVE",
"106 204 OFFCURVE",
"106 326 CURVE SMOOTH",
"106 399 OFFCURVE",
"130 475 OFFCURVE",
"175 535 CURVE",
"185 563 LINE",
"58 476 OFFCURVE",
"110 297 OFFCURVE",
"273 297 CURVE SMOOTH",
"377 297 OFFCURVE",
"427 369 OFFCURVE",
"427 443 CURVE SMOOTH",
"427 527 OFFCURVE",
"362 597 OFFCURVE",
"266 597 CURVE SMOOTH",
"129 597 OFFCURVE",
"48 449 OFFCURVE",
"48 303 CURVE SMOOTH",
"48 150 OFFCURVE",
"142 -7 OFFCURVE",
"321 -7 CURVE SMOOTH",
"494 -7 OFFCURVE",
"559 111 OFFCURVE",
"559 232 CURVE SMOOTH",
"559 279 OFFCURVE",
"544 334 OFFCURVE",
"544 408 CURVE SMOOTH",
"544 472 OFFCURVE",
"583 503 OFFCURVE",
"622 503 CURVE SMOOTH",
"661 503 OFFCURVE",
"700 472 OFFCURVE",
"700 408 CURVE SMOOTH",
"700 324 OFFCURVE",
"677 229 OFFCURVE",
"677 166 CURVE SMOOTH",
"677 50 OFFCURVE",
"746 -8 OFFCURVE",
"815 -8 CURVE SMOOTH"
);
},
{
closed = 1;
nodes = (
"191 362 OFFCURVE",
"154 402 OFFCURVE",
"154 442 CURVE SMOOTH",
"154 483 OFFCURVE",
"191 523 OFFCURVE",
"266 523 CURVE SMOOTH",
"341 523 OFFCURVE",
"378 483 OFFCURVE",
"378 443 CURVE SMOOTH",
"378 402 OFFCURVE",
"341 362 OFFCURVE",
"266 362 CURVE SMOOTH"
);
}
);
width = 1485;
},
{
background = {
paths = (
{
closed = 1;
nodes = (
"770 225 OFFCURVE",
"785 240 OFFCURVE",
"785 259 CURVE SMOOTH",
"785 278 OFFCURVE",
"770 293 OFFCURVE",
"751 293 CURVE SMOOTH",
"732 293 OFFCURVE",
"717 278 OFFCURVE",
"717 259 CURVE SMOOTH",
"717 240 OFFCURVE",
"732 225 OFFCURVE",
"751 225 CURVE SMOOTH"
);
},
{
closed = 1;
nodes = (
"1003 225 OFFCURVE",
"1018 240 OFFCURVE",
"1018 259 CURVE SMOOTH",
"1018 278 OFFCURVE",
"1003 293 OFFCURVE",
"984 293 CURVE SMOOTH",
"965 293 OFFCURVE",
"950 278 OFFCURVE",
"950 259 CURVE SMOOTH",
"950 240 OFFCURVE",
"965 225 OFFCURVE",
"984 225 CURVE SMOOTH"
);
},
{
closed = 1;
nodes = (
"554 303 OFFCURVE",
"569 318 OFFCURVE",
"569 337 CURVE SMOOTH",
"569 356 OFFCURVE",
"554 371 OFFCURVE",
"535 371 CURVE SMOOTH",
"516 371 OFFCURVE",
"501 356 OFFCURVE",
"501 337 CURVE SMOOTH",
"501 318 OFFCURVE",
"516 303 OFFCURVE",
"535 303 CURVE SMOOTH"
);
},
{
closed = 1;
nodes = (
"1463 282 OFFCURVE",
"1478 297 OFFCURVE",
"1478 316 CURVE SMOOTH",
"1478 335 OFFCURVE",
"1463 350 OFFCURVE",
"1444 350 CURVE SMOOTH",
"1425 350 OFFCURVE",
"1410 335 OFFCURVE",
"1410 316 CURVE SMOOTH",
"1410 297 OFFCURVE",
"1425 282 OFFCURVE",
"1444 282 CURVE SMOOTH"
);
}
);
};
layerId = UUID0;
name = Bold;
paths = (
{
closed = 1;
nodes = (
"971 -8 OFFCURVE",
"1027 71 OFFCURVE",
"1027 174 CURVE SMOOTH",
"1027 217 OFFCURVE",
"1017 250 OFFCURVE",
"1017 288 CURVE SMOOTH",
"1017 395 OFFCURVE",
"1077 467 OFFCURVE",
"1217 467 CURVE SMOOTH",
"1350 467 OFFCURVE",
"1411 381 OFFCURVE",
"1411 310 CURVE SMOOTH",
"1411 245 OFFCURVE",
"1359 177 OFFCURVE",
"1270 177 CURVE SMOOTH",
"1191 177 OFFCURVE",
"1161 217 OFFCURVE",
"1161 252 CURVE SMOOTH",
"1161 279 OFFCURVE",
"1179 303 OFFCURVE",
"1205 303 CURVE SMOOTH",
"1248 303 OFFCURVE",
"1244 272 OFFCURVE",
"1288 272 CURVE SMOOTH",
"1315 272 OFFCURVE",
"1334 295 OFFCURVE",
"1334 320 CURVE SMOOTH",
"1334 349 OFFCURVE",
"1308 380 OFFCURVE",
"1239 380 CURVE SMOOTH",
"1128 380 OFFCURVE",
"1071 289 OFFCURVE",
"1071 195 CURVE SMOOTH",
"1071 95 OFFCURVE",
"1136 -8 OFFCURVE",
"1262 -8 CURVE SMOOTH",
"1402 -8 OFFCURVE",
"1477 137 OFFCURVE",
"1477 287 CURVE SMOOTH",
"1477 451 OFFCURVE",
"1388 623 OFFCURVE",
"1198 623 CURVE SMOOTH",
"1042 623 OFFCURVE",
"939 522 OFFCURVE",
"939 370 CURVE SMOOTH",
"939 333 OFFCURVE",
"950 303 OFFCURVE",
"950 242 CURVE SMOOTH",
"950 185 OFFCURVE",
"920 150 OFFCURVE",
"867 150 CURVE SMOOTH",
"814 150 OFFCURVE",
"785 185 OFFCURVE",
"785 242 CURVE SMOOTH",
"785 312 OFFCURVE",
"810 355 OFFCURVE",
"810 440 CURVE SMOOTH",
"810 538 OFFCURVE",
"756 623 OFFCURVE",
"649 623 CURVE SMOOTH",
"545 623 OFFCURVE",
"490 543 OFFCURVE",
"490 440 CURVE SMOOTH",
"490 399 OFFCURVE",
"501 371 OFFCURVE",
"501 328 CURVE SMOOTH",
"501 228 OFFCURVE",
"434 177 OFFCURVE",
"317 177 CURVE SMOOTH",
"182 177 OFFCURVE",
"119 272 OFFCURVE",
"119 371 CURVE SMOOTH",
"119 440 OFFCURVE",
"150 512 OFFCURVE",
"208 554 CURVE",
"208 575 LINE",
"84 502 OFFCURVE",
"112 313 OFFCURVE",
"280 313 CURVE SMOOTH",
"391 313 OFFCURVE",
"436 385 OFFCURVE",
"436 462 CURVE SMOOTH",
"436 554 OFFCURVE",
"377 623 OFFCURVE",
"270 623 CURVE SMOOTH",
"130 623 OFFCURVE",
"38 468 OFFCURVE",
"38 312 CURVE SMOOTH",
"38 153 OFFCURVE",
"122 -7 OFFCURVE",
"317 -7 CURVE SMOOTH",
"505 -7 OFFCURVE",
"578 99 OFFCURVE",
"578 232 CURVE SMOOTH",
"578 279 OFFCURVE",
"568 317 OFFCURVE",
"568 372 CURVE SMOOTH",
"568 429 OFFCURVE",
"596 464 OFFCURVE",
"650 464 CURVE SMOOTH",
"706 464 OFFCURVE",
"733 429 OFFCURVE",
"733 372 CURVE SMOOTH",
"733 317 OFFCURVE",
"708 267 OFFCURVE",
"708 174 CURVE SMOOTH",
"708 71 OFFCURVE",
"763 -8 OFFCURVE",
"867 -8 CURVE SMOOTH"
);
},
{
closed = 1;
nodes = (
"222 413 OFFCURVE",
"193 439 OFFCURVE",
"193 465 CURVE SMOOTH",
"193 490 OFFCURVE",
"221 515 OFFCURVE",
"277 515 CURVE SMOOTH",
"333 515 OFFCURVE",
"361 490 OFFCURVE",
"361 465 CURVE SMOOTH",
"361 439 OFFCURVE",
"332 413 OFFCURVE",
"277 413 CURVE SMOOTH"
);
}
);
width = 1515;
}
);
unicode = 0C8A;
},
{
color = 0;
glyphname = knvR;
lastChange = "2015-12-23 18:07:30 +0000";
layers = (
{
background = {
paths = (
{
closed = 1;
nodes = (
"390 -7 OFFCURVE",
"480 154 OFFCURVE",
"480 309 CURVE SMOOTH",
"480 453 OFFCURVE",
"390 592 OFFCURVE",
"241 592 CURVE SMOOTH",
"145 592 OFFCURVE",
"98 533 OFFCURVE",
"98 474 CURVE SMOOTH",
"98 415 OFFCURVE",
"144 356 OFFCURVE",
"234 356 CURVE SMOOTH",
"276 356 OFFCURVE",
"333 366 OFFCURVE",
"333 410 CURVE SMOOTH",
"333 428 OFFCURVE",
"314 443 OFFCURVE",
"296 443 CURVE SMOOTH",
"256 443 OFFCURVE",
"245 415 OFFCURVE",
"211 415 CURVE SMOOTH",
"181 415 OFFCURVE",
"164 436 OFFCURVE",
"164 459 CURVE SMOOTH",
"164 488 OFFCURVE",
"190 520 OFFCURVE",
"252 520 CURVE SMOOTH",
"357 520 OFFCURVE",
"429 433 OFFCURVE",
"429 321 CURVE SMOOTH",
"429 207 OFFCURVE",
"359 93 OFFCURVE",
"211 93 CURVE SMOOTH",
"152 93 OFFCURVE",
"124 122 OFFCURVE",
"124 150 CURVE SMOOTH",
"124 178 OFFCURVE",
"151 205 OFFCURVE",
"200 205 CURVE SMOOTH",
"362 205 OFFCURVE",
"442 -7 OFFCURVE",
"622 -7 CURVE SMOOTH",
"933 -7 OFFCURVE",
"894 540 OFFCURVE",
"632 540 CURVE",
"585 508 LINE",
"838 508 OFFCURVE",
"825 93 OFFCURVE",
"621 93 CURVE SMOOTH",
"501 93 OFFCURVE",
"350 259 OFFCURVE",
"199 259 CURVE SMOOTH",
"99 259 OFFCURVE",
"48 195 OFFCURVE",
"48 130 CURVE SMOOTH",
"48 62 OFFCURVE",
"103 -7 OFFCURVE",
"212 -7 CURVE SMOOTH"
);
},
{
closed = 1;
nodes = (
"698 508 LINE SMOOTH",
"793 508 OFFCURVE",
"838 566 OFFCURVE",
"838 624 CURVE SMOOTH",
"838 648 OFFCURVE",
"832 675 OFFCURVE",
"814 698 CURVE SMOOTH",
"807 707 OFFCURVE",
"801 711 OFFCURVE",
"791 711 CURVE SMOOTH",
"780 711 OFFCURVE",
"772 699 OFFCURVE",
"778 687 CURVE SMOOTH",
"783 678 OFFCURVE",
"788 665 OFFCURVE",
"788 649 CURVE SMOOTH",
"788 605 OFFCURVE",
"753 592 OFFCURVE",
"697 592 CURVE SMOOTH",
"498 592 LINE SMOOTH",
"463 592 OFFCURVE",
"445 571 OFFCURVE",
"445 550 CURVE SMOOTH",
"445 529 OFFCURVE",
"463 508 OFFCURVE",
"498 508 CURVE SMOOTH"
);
},
{
closed = 1;
nodes = (
"1195 -7 OFFCURVE",
"1269 122 OFFCURVE",
"1269 261 CURVE SMOOTH",
"1269 435 OFFCURVE",
"1174 592 OFFCURVE",
"988 592 CURVE SMOOTH",
"942 592 OFFCURVE",
"923 569 OFFCURVE",
"923 547 CURVE SMOOTH",
"923 527 OFFCURVE",
"939 508 OFFCURVE",
"962 508 CURVE SMOOTH",
"996 508 OFFCURVE",
"997 520 OFFCURVE",
"1054 520 CURVE SMOOTH",
"1149 520 OFFCURVE",
"1200 416 OFFCURVE",
"1200 311 CURVE SMOOTH",
"1200 202 OFFCURVE",
"1145 92 OFFCURVE",
"1038 92 CURVE SMOOTH",
"938 92 OFFCURVE",
"855 191 OFFCURVE",
"839 298 CURVE",
"810 260 LINE",
"820 114 OFFCURVE",
"900 -7 OFFCURVE",
"1047 -7 CURVE SMOOTH"
);
}
);
};
layerId = "5E0B1C78-70A4-47D0-8E94-4E97FBB7DD03";
name = Light;
paths = (
{
closed = 1;
nodes = (
"390 -7 OFFCURVE",
"485 156 OFFCURVE",
"485 313 CURVE SMOOTH",
"485 458 OFFCURVE",
"403 597 OFFCURVE",
"249 597 CURVE SMOOTH",
"157 597 OFFCURVE",
"110 534 OFFCURVE",
"110 473 CURVE SMOOTH",
"110 416 OFFCURVE",
"151 361 OFFCURVE",
"234 361 CURVE SMOOTH",
"276 361 OFFCURVE",
"333 371 OFFCURVE",
"333 415 CURVE SMOOTH",
"333 433 OFFCURVE",
"314 448 OFFCURVE",
"296 448 CURVE SMOOTH",
"256 448 OFFCURVE",
"245 420 OFFCURVE",
"211 420 CURVE SMOOTH",
"185 420 OFFCURVE",
"169 442 OFFCURVE",
"169 465 CURVE SMOOTH",
"169 494 OFFCURVE",
"192 525 OFFCURVE",
"252 525 CURVE SMOOTH",
"370 525 OFFCURVE",
"426 428 OFFCURVE",
"426 325 CURVE SMOOTH",
"426 212 OFFCURVE",
"357 93 OFFCURVE",
"211 93 CURVE SMOOTH",
"152 93 OFFCURVE",
"124 122 OFFCURVE",
"124 150 CURVE SMOOTH",
"124 178 OFFCURVE",
"151 205 OFFCURVE",
"200 205 CURVE SMOOTH",
"359 205 OFFCURVE",
"445 -7 OFFCURVE",
"615 -7 CURVE SMOOTH",
"774 -7 OFFCURVE",
"842 123 OFFCURVE",
"842 256 CURVE SMOOTH",
"842 396 OFFCURVE",
"766 540 OFFCURVE",
"632 540 CURVE",
"585 508 LINE",
"715 508 OFFCURVE",
"774 399 OFFCURVE",
"774 293 CURVE SMOOTH",
"774 199 OFFCURVE",
"733 93 OFFCURVE",
"614 93 CURVE SMOOTH",
"456 93 OFFCURVE",
"357 259 OFFCURVE",
"199 259 CURVE SMOOTH",
"99 259 OFFCURVE",
"48 195 OFFCURVE",
"48 130 CURVE SMOOTH",
"48 62 OFFCURVE",
"103 -7 OFFCURVE",
"212 -7 CURVE SMOOTH"
);
},
{
closed = 1;
nodes = (
"698 508 LINE SMOOTH",
"793 508 OFFCURVE",
"838 566 OFFCURVE",
"838 624 CURVE SMOOTH",
"838 648 OFFCURVE",
"832 675 OFFCURVE",
"814 698 CURVE SMOOTH",
"807 707 OFFCURVE",
"801 711 OFFCURVE",
"791 711 CURVE SMOOTH",
"780 711 OFFCURVE",
"772 699 OFFCURVE",
"778 687 CURVE SMOOTH",
"783 678 OFFCURVE",
"788 665 OFFCURVE",
"788 649 CURVE SMOOTH",
"788 605 OFFCURVE",
"753 592 OFFCURVE",
"697 592 CURVE SMOOTH",
"538 592 LINE SMOOTH",
"503 592 OFFCURVE",
"485 571 OFFCURVE",
"485 550 CURVE SMOOTH",
"485 529 OFFCURVE",
"503 508 OFFCURVE",
"538 508 CURVE SMOOTH"
);
},
{
closed = 1;
nodes = (
"1195 -7 OFFCURVE",
"1269 122 OFFCURVE",
"1269 266 CURVE SMOOTH",
"1269 435 OFFCURVE",
"1174 597 OFFCURVE",
"988 597 CURVE SMOOTH",
"942 597 OFFCURVE",
"923 574 OFFCURVE",
"923 552 CURVE SMOOTH",
"923 532 OFFCURVE",
"939 513 OFFCURVE",
"962 513 CURVE SMOOTH",
"996 513 OFFCURVE",
"997 525 OFFCURVE",
"1054 525 CURVE SMOOTH",
"1149 525 OFFCURVE",
"1200 416 OFFCURVE",
"1200 316 CURVE SMOOTH",
"1200 202 OFFCURVE",
"1145 92 OFFCURVE",
"1038 92 CURVE SMOOTH",
"938 92 OFFCURVE",
"855 191 OFFCURVE",
"839 298 CURVE",
"810 260 LINE",
"820 114 OFFCURVE",
"900 -7 OFFCURVE",
"1047 -7 CURVE SMOOTH"
);
}
);
width = 1317;
},
{
background = {
paths = (
{
closed = 1;
nodes = (
"412 -8 OFFCURVE",
"507 159 OFFCURVE",
"507 321 CURVE SMOOTH",
"507 459 OFFCURVE",
"431 623 OFFCURVE",
"268 623 CURVE SMOOTH",
"176 623 OFFCURVE",
"113 561 OFFCURVE",
"113 481 CURVE SMOOTH",
"113 415 OFFCURVE",
"159 351 OFFCURVE",
"251 351 CURVE SMOOTH",
"304 351 OFFCURVE",
"351 373 OFFCURVE",
"351 410 CURVE SMOOTH",
"351 432 OFFCURVE",
"336 455 OFFCURVE",
"307 455 CURVE SMOOTH",
"273 455 OFFCURVE",
"258 431 OFFCURVE",
"222 431 CURVE SMOOTH",
"201 431 OFFCURVE",
"188 445 OFFCURVE",
"188 461 CURVE SMOOTH",
"188 483 OFFCURVE",
"212 509 OFFCURVE",
"271 509 CURVE SMOOTH",
"358 509 OFFCURVE",
"428 456 OFFCURVE",
"428 349 CURVE SMOOTH",
"428 237 OFFCURVE",
"350 147 OFFCURVE",
"226 147 CURVE SMOOTH",
"177 147 OFFCURVE",
"153 172 OFFCURVE",
"153 197 CURVE SMOOTH",
"153 221 OFFCURVE",
"175 244 OFFCURVE",
"215 244 CURVE SMOOTH",
"341 244 OFFCURVE",
"462 -8 OFFCURVE",
"667 -8 CURVE SMOOTH",
"829 -8 OFFCURVE",
"914 125 OFFCURVE",
"914 269 CURVE SMOOTH",
"914 439 OFFCURVE",
"810 623 OFFCURVE",
"638 623 CURVE SMOOTH",
"584 623 OFFCURVE",
"537 598 OFFCURVE",
"537 550 CURVE SMOOTH",
"537 517 OFFCURVE",
"564 493 OFFCURVE",
"600 493 CURVE SMOOTH",
"633 493 OFFCURVE",
"648 503 OFFCURVE",
"693 503 CURVE SMOOTH",
"775 503 OFFCURVE",
"825 419 OFFCURVE",
"825 336 CURVE SMOOTH",
"825 242 OFFCURVE",
"766 177 OFFCURVE",
"653 177 CURVE SMOOTH",
"497 177 OFFCURVE",
"406 308 OFFCURVE",
"214 308 CURVE SMOOTH",
"96 308 OFFCURVE",
"38 230 OFFCURVE",
"38 151 CURVE SMOOTH",
"38 72 OFFCURVE",
"97 -8 OFFCURVE",
"217 -8 CURVE SMOOTH"
);
}
);
};
layerId = UUID0;
name = Bold;
paths = (
{
closed = 1;
nodes = (
"412 -8 OFFCURVE",
"507 159 OFFCURVE",
"507 321 CURVE SMOOTH",
"507 459 OFFCURVE",
"431 623 OFFCURVE",
"268 623 CURVE SMOOTH",
"165 623 OFFCURVE",
"113 551 OFFCURVE",
"113 481 CURVE SMOOTH",
"113 415 OFFCURVE",
"159 351 OFFCURVE",
"251 351 CURVE SMOOTH",
"304 351 OFFCURVE",
"351 373 OFFCURVE",
"351 410 CURVE SMOOTH",
"351 432 OFFCURVE",
"336 455 OFFCURVE",
"307 455 CURVE SMOOTH",
"273 455 OFFCURVE",
"258 431 OFFCURVE",
"222 431 CURVE SMOOTH",
"201 431 OFFCURVE",
"188 445 OFFCURVE",
"188 461 CURVE SMOOTH",
"188 483 OFFCURVE",
"212 509 OFFCURVE",
"271 509 CURVE SMOOTH",
"358 509 OFFCURVE",
"428 456 OFFCURVE",
"428 349 CURVE SMOOTH",
"428 237 OFFCURVE",
"350 147 OFFCURVE",
"226 147 CURVE SMOOTH",
"177 147 OFFCURVE",
"153 172 OFFCURVE",
"153 197 CURVE SMOOTH",
"153 221 OFFCURVE",
"175 244 OFFCURVE",
"215 244 CURVE SMOOTH",
"347 244 OFFCURVE",
"454 -8 OFFCURVE",
"667 -8 CURVE SMOOTH",
"832 -8 OFFCURVE",
"915 131 OFFCURVE",
"915 267 CURVE SMOOTH",
"915 395 OFFCURVE",
"841 520 OFFCURVE",
"691 520 CURVE",
"673 477 LINE",
"760 477 OFFCURVE",
"823 413 OFFCURVE",
"823 328 CURVE SMOOTH",
"823 250 OFFCURVE",
"781 178 OFFCURVE",
"660 178 CURVE SMOOTH",
"494 178 OFFCURVE",
"406 308 OFFCURVE",
"214 308 CURVE SMOOTH",
"96 308 OFFCURVE",
"38 230 OFFCURVE",
"38 151 CURVE SMOOTH",
"38 72 OFFCURVE",
"97 -8 OFFCURVE",
"217 -8 CURVE SMOOTH"
);
},
{
closed = 1;
nodes = (
"733 477 LINE SMOOTH",
"823 477 OFFCURVE",
"891 536 OFFCURVE",
"891 641 CURVE SMOOTH",
"891 681 OFFCURVE",
"881 719 OFFCURVE",
"862 741 CURVE SMOOTH",
"852 752 OFFCURVE",
"840 759 OFFCURVE",
"825 759 CURVE SMOOTH",
"800 759 OFFCURVE",
"789 737 OFFCURVE",
"793 715 CURVE SMOOTH",
"794 708 OFFCURVE",
"795 701 OFFCURVE",
"795 688 CURVE SMOOTH",
"795 651 OFFCURVE",
"774 623 OFFCURVE",
"721 623 CURVE SMOOTH",
"600 623 LINE SMOOTH",
"546 623 OFFCURVE",
"519 586 OFFCURVE",
"519 550 CURVE SMOOTH",
"519 513 OFFCURVE",
"546 477 OFFCURVE",
"600 477 CURVE SMOOTH"
);
},
{
closed = 1;
nodes = (
"1271 -8 OFFCURVE",
"1359 119 OFFCURVE",
"1359 286 CURVE SMOOTH",
"1359 455 OFFCURVE",
"1245 623 OFFCURVE",
"1086 623 CURVE SMOOTH",
"1015 623 OFFCURVE",
"984 586 OFFCURVE",
"984 551 CURVE SMOOTH",
"984 521 OFFCURVE",
"1007 493 OFFCURVE",
"1047 493 CURVE SMOOTH",
"1091 493 OFFCURVE",
"1096 513 OFFCURVE",
"1147 513 CURVE SMOOTH",
"1224 513 OFFCURVE",
"1265 437 OFFCURVE",
"1265 356 CURVE SMOOTH",
"1265 272 OFFCURVE",
"1221 177 OFFCURVE",
"1099 177 CURVE SMOOTH",
"1009 177 OFFCURVE",
"934 225 OFFCURVE",
"906 340 CURVE",
"874 263 LINE",
"874 116 OFFCURVE",
"957 -8 OFFCURVE",
"1112 -8 CURVE SMOOTH"
);
}
);
width = 1397;
},
{
associatedMasterId = UUID0;
layerId = "007D9B16-0670-4A9A-BC3E-AA78FC7591EC";
name = "Bold Aug 8 15, 18:27";
paths = (
{
closed = 1;
nodes = (
"408 -8 OFFCURVE",
"503 159 OFFCURVE",
"503 321 CURVE SMOOTH",
"503 474 OFFCURVE",
"418 623 OFFCURVE",
"259 623 CURVE SMOOTH",
"168 623 OFFCURVE",
"100 566 OFFCURVE",
"100 479 CURVE SMOOTH",
"100 411 OFFCURVE",
"148 345 OFFCURVE",
"245 345 CURVE SMOOTH",
"296 345 OFFCURVE",
"347 368 OFFCURVE",
"347 410 CURVE SMOOTH",
"347 432 OFFCURVE",
"332 455 OFFCURVE",
"303 455 CURVE SMOOTH",
"269 455 OFFCURVE",
"254 431 OFFCURVE",
"218 431 CURVE SMOOTH",
"195 431 OFFCURVE",
"178 443 OFFCURVE",
"178 468 CURVE SMOOTH",
"178 503 OFFCURVE",
"210 529 OFFCURVE",
"261 529 CURVE SMOOTH",
"361 529 OFFCURVE",
"424 448 OFFCURVE",
"424 349 CURVE SMOOTH",
"424 237 OFFCURVE",
"346 147 OFFCURVE",
"222 147 CURVE SMOOTH",
"175 147 OFFCURVE",
"152 170 OFFCURVE",
"152 193 CURVE SMOOTH",
"152 214 OFFCURVE",
"172 234 OFFCURVE",
"211 234 CURVE SMOOTH",
"352 234 OFFCURVE",
"463 -8 OFFCURVE",
"663 -8 CURVE SMOOTH",
"822 -8 OFFCURVE",
"910 109 OFFCURVE",
"910 276 CURVE SMOOTH",
"910 418 OFFCURVE",
"828 520 OFFCURVE",
"687 520 CURVE",
"669 477 LINE",
"756 477 OFFCURVE",
"816 423 OFFCURVE",
"816 348 CURVE SMOOTH",
"816 267 OFFCURVE",
"764 191 OFFCURVE",
"649 191 CURVE SMOOTH",
"476 191 OFFCURVE",
"402 298 OFFCURVE",
"210 298 CURVE SMOOTH",
"113 298 OFFCURVE",
"38 236 OFFCURVE",
"38 145 CURVE SMOOTH",
"38 52 OFFCURVE",
"109 -8 OFFCURVE",
"213 -8 CURVE SMOOTH"
);
},
{
closed = 1;
nodes = (
"729 477 LINE SMOOTH",
"819 477 OFFCURVE",
"887 536 OFFCURVE",
"887 641 CURVE SMOOTH",
"887 681 OFFCURVE",
"877 719 OFFCURVE",
"858 741 CURVE SMOOTH",
"848 752 OFFCURVE",
"836 759 OFFCURVE",
"821 759 CURVE SMOOTH",
"796 759 OFFCURVE",
"785 737 OFFCURVE",
"789 715 CURVE SMOOTH",
"790 708 OFFCURVE",
"791 701 OFFCURVE",
"791 688 CURVE SMOOTH",
"791 651 OFFCURVE",
"770 623 OFFCURVE",
"717 623 CURVE SMOOTH",
"576 623 LINE SMOOTH",
"522 623 OFFCURVE",
"495 586 OFFCURVE",
"495 550 CURVE SMOOTH",
"495 513 OFFCURVE",
"522 477 OFFCURVE",
"576 477 CURVE SMOOTH"
);
},
{
closed = 1;
nodes = (
"1270 -8 OFFCURVE",
"1358 119 OFFCURVE",
"1358 286 CURVE SMOOTH",
"1358 455 OFFCURVE",
"1244 623 OFFCURVE",
"1085 623 CURVE SMOOTH",
"1014 623 OFFCURVE",
"983 586 OFFCURVE",
"983 551 CURVE SMOOTH",
"983 521 OFFCURVE",
"1006 493 OFFCURVE",
"1046 493 CURVE SMOOTH",
"1090 493 OFFCURVE",
"1096 505 OFFCURVE",
"1146 505 CURVE SMOOTH",
"1229 505 OFFCURVE",
"1264 432 OFFCURVE",
"1264 358 CURVE SMOOTH",
"1264 277 OFFCURVE",
"1212 191 OFFCURVE",
"1097 191 CURVE SMOOTH",
"1018 191 OFFCURVE",
"931 239 OFFCURVE",
"903 340 CURVE",
"873 263 LINE",
"873 116 OFFCURVE",
"956 -8 OFFCURVE",
"1111 -8 CURVE SMOOTH"
);
}
);
width = 1410;
}
);
unicode = 0C8B;
},
{
color = 0;
glyphname = knvRR;
lastChange = "2015-12-23 18:07:30 +0000";
layers = (
{
layerId = "5E0B1C78-70A4-47D0-8E94-4E97FBB7DD03";
name = Light;
paths = (
{
closed = 1;
nodes = (
"1053 -7 OFFCURVE",
"1123 54 OFFCURVE",
"1123 165 CURVE SMOOTH",
"1123 220 OFFCURVE",
"1113 259 OFFCURVE",
"1113 317 CURVE SMOOTH",
"1113 439 OFFCURVE",
"1212 506 OFFCURVE",
"1319 506 CURVE SMOOTH",
"1433 506 OFFCURVE",
"1552 429 OFFCURVE",
"1552 279 CURVE SMOOTH",
"1552 184 OFFCURVE",
"1490 94 OFFCURVE",
"1376 94 CURVE SMOOTH",
"1298 94 OFFCURVE",
"1239 136 OFFCURVE",
"1239 201 CURVE SMOOTH",
"1239 239 OFFCURVE",
"1261 272 OFFCURVE",
"1294 272 CURVE SMOOTH",
"1327 272 OFFCURVE",
"1348 260 OFFCURVE",
"1377 260 CURVE SMOOTH",
"1403 260 OFFCURVE",
"1420 279 OFFCURVE",
"1420 299 CURVE SMOOTH",
"1420 321 OFFCURVE",
"1400 344 OFFCURVE",
"1354 344 CURVE SMOOTH",
"1238 344 OFFCURVE",
"1182 263 OFFCURVE",
"1182 178 CURVE SMOOTH",
"1182 66 OFFCURVE",
"1272 -6 OFFCURVE",
"1380 -6 CURVE SMOOTH",
"1527 -6 OFFCURVE",
"1609 134 OFFCURVE",
"1609 279 CURVE SMOOTH",
"1609 492 OFFCURVE",
"1459 597 OFFCURVE",
"1313 597 CURVE SMOOTH",
"1175 597 OFFCURVE",
"1054 502 OFFCURVE",
"1054 339 CURVE SMOOTH",
"1054 272 OFFCURVE",
"1062 247 OFFCURVE",
"1065 197 CURVE SMOOTH",
"1068 139 OFFCURVE",
"1048 93 OFFCURVE",
"983 93 CURVE SMOOTH",
"906 93 OFFCURVE",
"846 150 OFFCURVE",
"839 298 CURVE",
"810 220 LINE",
"821 64 OFFCURVE",
"902 -7 OFFCURVE",
"981 -7 CURVE SMOOTH"
);
},
{
closed = 1;
nodes = (
"390 -7 OFFCURVE",
"485 156 OFFCURVE",
"485 313 CURVE SMOOTH",
"485 458 OFFCURVE",
"403 597 OFFCURVE",
"249 597 CURVE SMOOTH",
"157 597 OFFCURVE",
"110 534 OFFCURVE",
"110 473 CURVE SMOOTH",
"110 416 OFFCURVE",
"151 361 OFFCURVE",
"234 361 CURVE SMOOTH",
"276 361 OFFCURVE",
"333 371 OFFCURVE",
"333 415 CURVE SMOOTH",
"333 433 OFFCURVE",
"314 448 OFFCURVE",
"296 448 CURVE SMOOTH",
"256 448 OFFCURVE",
"245 420 OFFCURVE",
"211 420 CURVE SMOOTH",
"185 420 OFFCURVE",
"169 442 OFFCURVE",
"169 465 CURVE SMOOTH",
"169 494 OFFCURVE",
"192 525 OFFCURVE",
"252 525 CURVE SMOOTH",
"370 525 OFFCURVE",
"426 428 OFFCURVE",
"426 325 CURVE SMOOTH",
"426 212 OFFCURVE",
"357 93 OFFCURVE",
"211 93 CURVE SMOOTH",
"152 93 OFFCURVE",
"124 122 OFFCURVE",
"124 150 CURVE SMOOTH",
"124 178 OFFCURVE",
"151 205 OFFCURVE",
"200 205 CURVE SMOOTH",
"359 205 OFFCURVE",
"445 -7 OFFCURVE",
"615 -7 CURVE SMOOTH",
"774 -7 OFFCURVE",
"842 123 OFFCURVE",
"842 256 CURVE SMOOTH",
"842 396 OFFCURVE",
"766 540 OFFCURVE",
"632 540 CURVE",
"585 508 LINE",
"715 508 OFFCURVE",
"774 399 OFFCURVE",
"774 293 CURVE SMOOTH",
"774 199 OFFCURVE",
"733 93 OFFCURVE",
"614 93 CURVE SMOOTH",
"456 93 OFFCURVE",
"357 259 OFFCURVE",
"199 259 CURVE SMOOTH",
"99 259 OFFCURVE",
"48 195 OFFCURVE",
"48 130 CURVE SMOOTH",
"48 62 OFFCURVE",
"103 -7 OFFCURVE",
"212 -7 CURVE SMOOTH"
);
},
{
closed = 1;
nodes = (
"698 508 LINE SMOOTH",
"793 508 OFFCURVE",
"838 566 OFFCURVE",
"838 624 CURVE SMOOTH",
"838 648 OFFCURVE",
"832 675 OFFCURVE",
"814 698 CURVE SMOOTH",
"807 707 OFFCURVE",
"801 711 OFFCURVE",
"791 711 CURVE SMOOTH",
"780 711 OFFCURVE",
"772 699 OFFCURVE",
"778 687 CURVE SMOOTH",
"783 678 OFFCURVE",
"788 665 OFFCURVE",
"788 649 CURVE SMOOTH",
"788 605 OFFCURVE",
"753 592 OFFCURVE",
"697 592 CURVE SMOOTH",
"538 592 LINE SMOOTH",
"503 592 OFFCURVE",
"485 571 OFFCURVE",
"485 550 CURVE SMOOTH",
"485 529 OFFCURVE",
"503 508 OFFCURVE",
"538 508 CURVE SMOOTH"
);
}
);
width = 1657;
},
{
layerId = UUID0;
name = Bold;
paths = (
{
closed = 1;
nodes = (
"1154 -8 OFFCURVE",
"1220 73 OFFCURVE",
"1220 179 CURVE SMOOTH",
"1220 218 OFFCURVE",
"1215 249 OFFCURVE",
"1215 284 CURVE SMOOTH",
"1215 404 OFFCURVE",
"1311 467 OFFCURVE",
"1419 467 CURVE SMOOTH",
"1552 467 OFFCURVE",
"1613 381 OFFCURVE",
"1613 310 CURVE SMOOTH",
"1613 245 OFFCURVE",
"1561 183 OFFCURVE",
"1472 183 CURVE SMOOTH",
"1391 183 OFFCURVE",
"1360 221 OFFCURVE",
"1360 255 CURVE SMOOTH",
"1360 280 OFFCURVE",
"1379 303 OFFCURVE",
"1407 303 CURVE SMOOTH",
"1450 303 OFFCURVE",
"1446 272 OFFCURVE",
"1490 272 CURVE SMOOTH",
"1517 272 OFFCURVE",
"1536 295 OFFCURVE",
"1536 320 CURVE SMOOTH",
"1536 349 OFFCURVE",
"1510 380 OFFCURVE",
"1441 380 CURVE SMOOTH",
"1330 380 OFFCURVE",
"1273 289 OFFCURVE",
"1273 195 CURVE SMOOTH",
"1273 95 OFFCURVE",
"1338 -8 OFFCURVE",
"1472 -8 CURVE SMOOTH",
"1614 -8 OFFCURVE",
"1694 139 OFFCURVE",
"1694 291 CURVE SMOOTH",
"1694 454 OFFCURVE",
"1603 623 OFFCURVE",
"1400 623 CURVE SMOOTH",
"1228 623 OFFCURVE",
"1135 514 OFFCURVE",
"1135 374 CURVE SMOOTH",
"1135 338 OFFCURVE",
"1142 326 OFFCURVE",
"1142 291 CURVE SMOOTH",
"1142 231 OFFCURVE",
"1110 191 OFFCURVE",
"1044 191 CURVE SMOOTH",
"960 191 OFFCURVE",
"918 244 OFFCURVE",
"907 340 CURVE",
"877 263 LINE",
"877 73 OFFCURVE",
"963 -8 OFFCURVE",
"1061 -8 CURVE SMOOTH"
);
},
{
closed = 1;
nodes = (
"412 -8 OFFCURVE",
"507 159 OFFCURVE",
"507 321 CURVE SMOOTH",
"507 459 OFFCURVE",
"431 623 OFFCURVE",
"268 623 CURVE SMOOTH",
"165 623 OFFCURVE",
"113 551 OFFCURVE",
"113 481 CURVE SMOOTH",
"113 415 OFFCURVE",
"159 351 OFFCURVE",
"251 351 CURVE SMOOTH",
"304 351 OFFCURVE",
"351 373 OFFCURVE",
"351 410 CURVE SMOOTH",
"351 432 OFFCURVE",
"336 455 OFFCURVE",
"307 455 CURVE SMOOTH",
"273 455 OFFCURVE",
"258 431 OFFCURVE",
"222 431 CURVE SMOOTH",
"201 431 OFFCURVE",
"188 445 OFFCURVE",
"188 461 CURVE SMOOTH",
"188 483 OFFCURVE",
"212 509 OFFCURVE",
"271 509 CURVE SMOOTH",
"358 509 OFFCURVE",
"428 456 OFFCURVE",
"428 349 CURVE SMOOTH",
"428 237 OFFCURVE",
"350 147 OFFCURVE",
"226 147 CURVE SMOOTH",
"177 147 OFFCURVE",
"153 172 OFFCURVE",
"153 197 CURVE SMOOTH",
"153 221 OFFCURVE",
"175 244 OFFCURVE",
"215 244 CURVE SMOOTH",
"347 244 OFFCURVE",
"454 -8 OFFCURVE",
"667 -8 CURVE SMOOTH",
"832 -8 OFFCURVE",
"915 131 OFFCURVE",
"915 267 CURVE SMOOTH",
"915 395 OFFCURVE",
"841 520 OFFCURVE",
"691 520 CURVE",
"673 477 LINE",
"760 477 OFFCURVE",
"823 413 OFFCURVE",
"823 328 CURVE SMOOTH",
"823 250 OFFCURVE",
"781 178 OFFCURVE",
"660 178 CURVE SMOOTH",
"494 178 OFFCURVE",
"406 308 OFFCURVE",
"214 308 CURVE SMOOTH",
"96 308 OFFCURVE",
"38 230 OFFCURVE",
"38 151 CURVE SMOOTH",
"38 72 OFFCURVE",
"97 -8 OFFCURVE",
"217 -8 CURVE SMOOTH"
);
},
{
closed = 1;
nodes = (
"733 477 LINE SMOOTH",
"823 477 OFFCURVE",
"891 536 OFFCURVE",
"891 641 CURVE SMOOTH",
"891 681 OFFCURVE",
"881 719 OFFCURVE",
"862 741 CURVE SMOOTH",
"852 752 OFFCURVE",
"840 759 OFFCURVE",
"825 759 CURVE SMOOTH",
"800 759 OFFCURVE",
"789 737 OFFCURVE",
"793 715 CURVE SMOOTH",
"794 708 OFFCURVE",
"795 701 OFFCURVE",
"795 688 CURVE SMOOTH",
"795 651 OFFCURVE",
"774 623 OFFCURVE",
"721 623 CURVE SMOOTH",
"600 623 LINE SMOOTH",
"546 623 OFFCURVE",
"519 586 OFFCURVE",
"519 550 CURVE SMOOTH",
"519 513 OFFCURVE",
"546 477 OFFCURVE",
"600 477 CURVE SMOOTH"
);
}
);
width = 1732;
}
);
unicode = 0CE0;
},
{
color = 1;
glyphname = knvL;
lastChange = "2015-12-23 18:07:42 +0000";
layers = (
{
layerId = "5E0B1C78-70A4-47D0-8E94-4E97FBB7DD03";
name = Light;
paths = (
{
closed = 1;
nodes = (
"762 -181 OFFCURVE",
"884 25 OFFCURVE",
"884 252 CURVE SMOOTH",
"884 363 OFFCURVE",
"850 477 OFFCURVE",
"784 573 CURVE SMOOTH",
"776 584 OFFCURVE",
"765 592 OFFCURVE",
"754 592 CURVE SMOOTH",
"730 592 OFFCURVE",
"732 566 OFFCURVE",
"742 550 CURVE SMOOTH",
"792 470 OFFCURVE",
"818 374 OFFCURVE",
"818 272 CURVE SMOOTH",
"818 58 OFFCURVE",
"701 -82 OFFCURVE",
"474 -82 CURVE SMOOTH",
"371 -82 OFFCURVE",
"233 -39 OFFCURVE",
"233 66 CURVE SMOOTH",
"233 259 OFFCURVE",
"695 202 OFFCURVE",
"695 443 CURVE SMOOTH",
"695 535 OFFCURVE",
"637 597 OFFCURVE",
"545 597 CURVE SMOOTH",
"438 597 OFFCURVE",
"361 500 OFFCURVE",
"361 446 CURVE",
"375 446 LINE",
"375 500 OFFCURVE",
"304 597 OFFCURVE",
"192 597 CURVE SMOOTH",
"110 597 OFFCURVE",
"58 542 OFFCURVE",
"58 472 CURVE SMOOTH",
"58 438 OFFCURVE",
"75 394 OFFCURVE",
"98 394 CURVE SMOOTH",
"113 394 OFFCURVE",
"117 407 OFFCURVE",
"115 420 CURVE SMOOTH",
"108 477 OFFCURVE",
"137 514 OFFCURVE",
"203 514 CURVE SMOOTH",
"274 514 OFFCURVE",
"310 465 OFFCURVE",
"340 408 CURVE SMOOTH",
"347 395 OFFCURVE",
"353 384 OFFCURVE",
"368 384 CURVE SMOOTH",
"383 384 OFFCURVE",
"389 395 OFFCURVE",
"396 408 CURVE SMOOTH",
"430 470 OFFCURVE",
"475 514 OFFCURVE",
"546 514 CURVE SMOOTH",
"594 514 OFFCURVE",
"635 489 OFFCURVE",
"635 435 CURVE SMOOTH",
"635 251 OFFCURVE",
"169 311 OFFCURVE",
"169 50 CURVE SMOOTH",
"169 -92 OFFCURVE",
"313 -181 OFFCURVE",
"479 -181 CURVE SMOOTH"
);
}
);
width = 932;
},
{
background = {
paths = (
{
closed = 1;
nodes = (
"699 -225 OFFCURVE",
"962 -78 OFFCURVE",
"962 247 CURVE SMOOTH",
"962 370 OFFCURVE",
"926 491 OFFCURVE",
"863 589 CURVE SMOOTH",
"850 610 OFFCURVE",
"832 622 OFFCURVE",
"815 622 CURVE SMOOTH",
"787 622 OFFCURVE",
"779 599 OFFCURVE",
"799 567 CURVE SMOOTH",
"848 488 OFFCURVE",
"872 392 OFFCURVE",
"872 296 CURVE SMOOTH",
"872 -128 OFFCURVE",
"251 -95 OFFCURVE",
"251 74 CURVE SMOOTH",
"251 244 OFFCURVE",
"736 162 OFFCURVE",
"736 440 CURVE SMOOTH",
"736 541 OFFCURVE",
"662 623 OFFCURVE",
"556 623 CURVE SMOOTH",
"429 623 OFFCURVE",
"364 524 OFFCURVE",
"364 412 CURVE",
"385 412 LINE",
"385 556 OFFCURVE",
"302 623 OFFCURVE",
"209 623 CURVE SMOOTH",
"127 623 OFFCURVE",
"48 569 OFFCURVE",
"48 467 CURVE SMOOTH",
"48 422 OFFCURVE",
"73 361 OFFCURVE",
"111 361 CURVE SMOOTH",
"126 361 OFFCURVE",
"133 370 OFFCURVE",
"133 385 CURVE SMOOTH",
"133 435 OFFCURVE",
"148 484 OFFCURVE",
"212 484 CURVE SMOOTH",
"287 484 OFFCURVE",
"328 411 OFFCURVE",
"346 368 CURVE SMOOTH",
"352 355 OFFCURVE",
"359 344 OFFCURVE",
"374 344 CURVE SMOOTH",
"389 344 OFFCURVE",
"395 355 OFFCURVE",
"402 368 CURVE SMOOTH",
"425 411 OFFCURVE",
"464 483 OFFCURVE",
"549 483 CURVE SMOOTH",
"603 483 OFFCURVE",
"629 456 OFFCURVE",
"629 409 CURVE SMOOTH",
"629 220 OFFCURVE",
"120 334 OFFCURVE",
"120 23 CURVE SMOOTH",
"120 -134 OFFCURVE",
"284 -225 OFFCURVE",
"467 -225 CURVE SMOOTH"
);
}
);
};
layerId = UUID0;
name = Bold;
paths = (
{
closed = 1;
nodes = (
"713 -225 OFFCURVE",
"962 -89 OFFCURVE",
"962 247 CURVE SMOOTH",
"962 370 OFFCURVE",
"926 491 OFFCURVE",
"863 589 CURVE SMOOTH",
"850 610 OFFCURVE",
"832 622 OFFCURVE",
"815 622 CURVE SMOOTH",
"787 622 OFFCURVE",
"779 599 OFFCURVE",
"799 567 CURVE SMOOTH",
"848 488 OFFCURVE",
"872 392 OFFCURVE",
"872 296 CURVE SMOOTH",
"872 44 OFFCURVE",
"673 -42 OFFCURVE",
"501 -42 CURVE SMOOTH",
"368 -42 OFFCURVE",
"251 9 OFFCURVE",
"251 74 CURVE SMOOTH",
"251 244 OFFCURVE",
"736 162 OFFCURVE",
"736 440 CURVE SMOOTH",
"736 541 OFFCURVE",
"662 623 OFFCURVE",
"556 623 CURVE SMOOTH",
"429 623 OFFCURVE",
"364 524 OFFCURVE",
"364 412 CURVE",
"385 412 LINE",
"385 556 OFFCURVE",
"302 623 OFFCURVE",
"209 623 CURVE SMOOTH",
"127 623 OFFCURVE",
"48 569 OFFCURVE",
"48 467 CURVE SMOOTH",
"48 422 OFFCURVE",
"73 361 OFFCURVE",
"111 361 CURVE SMOOTH",
"126 361 OFFCURVE",
"133 370 OFFCURVE",
"133 385 CURVE SMOOTH",
"133 435 OFFCURVE",
"148 484 OFFCURVE",
"212 484 CURVE SMOOTH",
"287 484 OFFCURVE",
"328 411 OFFCURVE",
"346 368 CURVE SMOOTH",
"352 355 OFFCURVE",
"359 344 OFFCURVE",
"374 344 CURVE SMOOTH",
"389 344 OFFCURVE",
"395 355 OFFCURVE",
"402 368 CURVE SMOOTH",
"425 411 OFFCURVE",
"464 483 OFFCURVE",
"549 483 CURVE SMOOTH",
"603 483 OFFCURVE",
"629 456 OFFCURVE",
"629 409 CURVE SMOOTH",
"629 220 OFFCURVE",
"120 334 OFFCURVE",
"120 23 CURVE SMOOTH",
"120 -129 OFFCURVE",
"295 -225 OFFCURVE",
"486 -225 CURVE SMOOTH"
);
}
);
width = 1000;
},
{
associatedMasterId = UUID0;
background = {
paths = (
{
closed = 1;
nodes = (
"726 524 OFFCURVE",
"674 623 OFFCURVE",
"556 623 CURVE SMOOTH",
"429 623 OFFCURVE",
"364 524 OFFCURVE",
"364 412 CURVE",
"385 412 LINE",
"385 556 OFFCURVE",
"302 623 OFFCURVE",
"209 623 CURVE SMOOTH",
"127 623 OFFCURVE",
"48 569 OFFCURVE",
"48 467 CURVE SMOOTH",
"48 422 OFFCURVE",
"73 361 OFFCURVE",
"111 361 CURVE SMOOTH",
"126 361 OFFCURVE",
"133 370 OFFCURVE",
"133 385 CURVE SMOOTH",
"133 435 OFFCURVE",
"148 484 OFFCURVE",
"212 484 CURVE SMOOTH",
"287 484 OFFCURVE",
"328 411 OFFCURVE",
"346 368 CURVE SMOOTH",
"352 355 OFFCURVE",
"359 344 OFFCURVE",
"374 344 CURVE SMOOTH",
"389 344 OFFCURVE",
"395 355 OFFCURVE",
"402 368 CURVE SMOOTH",
"425 411 OFFCURVE",
"464 483 OFFCURVE",
"549 483 CURVE SMOOTH",
"602 483 OFFCURVE",
"630 447 OFFCURVE",
"629 400 CURVE SMOOTH",
"626 203 OFFCURVE",
"120 333 OFFCURVE",
"120 -17 CURVE SMOOTH",
"120 -172 OFFCURVE",
"261 -288 OFFCURVE",
"452 -288 CURVE SMOOTH",
"807 -288 OFFCURVE",
"962 -25 OFFCURVE",
"962 247 CURVE SMOOTH",
"962 370 OFFCURVE",
"926 491 OFFCURVE",
"863 589 CURVE SMOOTH",
"850 610 OFFCURVE",
"832 622 OFFCURVE",
"815 622 CURVE SMOOTH",
"787 622 OFFCURVE",
"779 599 OFFCURVE",
"799 567 CURVE SMOOTH",
"848 488 OFFCURVE",
"872 392 OFFCURVE",
"872 296 CURVE SMOOTH",
"872 96 OFFCURVE",
"755 -91 OFFCURVE",
"445 -87 CURVE SMOOTH",
"346 -85 OFFCURVE",
"250 -38 OFFCURVE",
"250 54 CURVE SMOOTH",
"250 252 OFFCURVE",
"726 140 OFFCURVE",
"726 430 CURVE SMOOTH"
);
}
);
};
layerId = "123BD5A0-D040-47AB-9594-172250D72F7B";
name = "Bold Aug 13 15, 15:12";
paths = (
{
closed = 1;
nodes = (
"766 524 OFFCURVE",
"714 623 OFFCURVE",
"596 623 CURVE SMOOTH",
"469 623 OFFCURVE",
"404 524 OFFCURVE",
"404 412 CURVE",
"425 412 LINE",
"425 556 OFFCURVE",
"342 623 OFFCURVE",
"249 623 CURVE SMOOTH",
"167 623 OFFCURVE",
"88 569 OFFCURVE",
"88 467 CURVE SMOOTH",
"88 422 OFFCURVE",
"113 361 OFFCURVE",
"151 361 CURVE SMOOTH",
"166 361 OFFCURVE",
"173 370 OFFCURVE",
"173 385 CURVE SMOOTH",
"173 435 OFFCURVE",
"188 484 OFFCURVE",
"252 484 CURVE SMOOTH",
"327 484 OFFCURVE",
"368 411 OFFCURVE",
"386 368 CURVE SMOOTH",
"392 355 OFFCURVE",
"399 344 OFFCURVE",
"414 344 CURVE SMOOTH",
"429 344 OFFCURVE",
"435 355 OFFCURVE",
"442 368 CURVE SMOOTH",
"465 411 OFFCURVE",
"504 483 OFFCURVE",
"589 483 CURVE SMOOTH",
"642 483 OFFCURVE",
"669 452 OFFCURVE",
"669 410 CURVE SMOOTH",
"669 239 OFFCURVE",
"120 381 OFFCURVE",
"120 43 CURVE SMOOTH",
"120 -82 OFFCURVE",
"239 -189 OFFCURVE",
"440 -189 CURVE SMOOTH",
"900 -189 OFFCURVE",
"1077 207 OFFCURVE",
"853 589 CURVE SMOOTH",
"842 608 OFFCURVE",
"827 623 OFFCURVE",
"805 623 CURVE SMOOTH",
"782 623 OFFCURVE",
"772 598 OFFCURVE",
"789 567 CURVE SMOOTH",
"960 254 OFFCURVE",
"797 7 OFFCURVE",
"433 12 CURVE SMOOTH",
"324 14 OFFCURVE",
"250 52 OFFCURVE",
"250 116 CURVE SMOOTH",
"250 287 OFFCURVE",
"766 160 OFFCURVE",
"766 450 CURVE SMOOTH"
);
}
);
width = 1000;
}
);
unicode = 0C8C;
},
{
color = 1;
glyphname = knvLL;
lastChange = "2015-12-23 18:07:42 +0000";
layers = (
{
layerId = "5E0B1C78-70A4-47D0-8E94-4E97FBB7DD03";
name = Light;
paths = (
{
closed = 1;
nodes = (
"762 -181 OFFCURVE",
"884 25 OFFCURVE",
"884 252 CURVE SMOOTH",
"884 363 OFFCURVE",
"850 477 OFFCURVE",
"784 573 CURVE",
"791 508 LINE",
"1093 508 LINE SMOOTH",
"1224 508 OFFCURVE",
"1312 439 OFFCURVE",
"1312 288 CURVE SMOOTH",
"1312 190 OFFCURVE",
"1264 93 OFFCURVE",
"1135 93 CURVE SMOOTH",
"1057 93 OFFCURVE",
"998 135 OFFCURVE",
"998 200 CURVE SMOOTH",
"998 238 OFFCURVE",
"1020 271 OFFCURVE",
"1053 271 CURVE SMOOTH",
"1086 271 OFFCURVE",
"1107 259 OFFCURVE",
"1136 259 CURVE SMOOTH",
"1162 259 OFFCURVE",
"1179 278 OFFCURVE",
"1179 298 CURVE SMOOTH",
"1179 320 OFFCURVE",
"1159 343 OFFCURVE",
"1113 343 CURVE SMOOTH",
"997 343 OFFCURVE",
"941 262 OFFCURVE",
"941 177 CURVE SMOOTH",
"941 65 OFFCURVE",
"1031 -7 OFFCURVE",
"1139 -7 CURVE SMOOTH",
"1294 -7 OFFCURVE",
"1364 146 OFFCURVE",
"1364 276 CURVE SMOOTH",
"1364 468 OFFCURVE",
"1262 592 OFFCURVE",
"1092 592 CURVE SMOOTH",
"754 592 LINE SMOOTH",
"730 592 OFFCURVE",
"732 566 OFFCURVE",
"742 550 CURVE SMOOTH",
"792 470 OFFCURVE",
"818 374 OFFCURVE",
"818 272 CURVE SMOOTH",
"818 58 OFFCURVE",
"701 -82 OFFCURVE",
"474 -82 CURVE SMOOTH",
"371 -82 OFFCURVE",
"233 -39 OFFCURVE",
"233 66 CURVE SMOOTH",
"233 259 OFFCURVE",
"695 202 OFFCURVE",
"695 443 CURVE SMOOTH",
"695 535 OFFCURVE",
"637 597 OFFCURVE",
"545 597 CURVE SMOOTH",
"438 597 OFFCURVE",
"361 500 OFFCURVE",
"361 446 CURVE",
"375 446 LINE",
"375 500 OFFCURVE",
"304 597 OFFCURVE",
"192 597 CURVE SMOOTH",
"110 597 OFFCURVE",
"58 542 OFFCURVE",
"58 472 CURVE SMOOTH",
"58 438 OFFCURVE",
"75 394 OFFCURVE",
"98 394 CURVE SMOOTH",
"113 394 OFFCURVE",
"117 407 OFFCURVE",
"115 420 CURVE SMOOTH",
"108 477 OFFCURVE",
"137 514 OFFCURVE",
"203 514 CURVE SMOOTH",
"274 514 OFFCURVE",
"310 465 OFFCURVE",
"340 408 CURVE SMOOTH",
"347 395 OFFCURVE",
"353 384 OFFCURVE",
"368 384 CURVE SMOOTH",
"383 384 OFFCURVE",
"389 395 OFFCURVE",
"396 408 CURVE SMOOTH",
"430 470 OFFCURVE",
"475 514 OFFCURVE",
"546 514 CURVE SMOOTH",
"594 514 OFFCURVE",
"635 489 OFFCURVE",
"635 435 CURVE SMOOTH",
"635 251 OFFCURVE",
"169 311 OFFCURVE",
"169 50 CURVE SMOOTH",
"169 -92 OFFCURVE",
"313 -181 OFFCURVE",
"479 -181 CURVE SMOOTH"
);
}
);
width = 1412;
},
{
background = {
paths = (
{
closed = 0;
nodes = (
"815 622 LINE",
"787 622 OFFCURVE",
"779 599 OFFCURVE",
"799 567 CURVE SMOOTH",
"848 488 OFFCURVE",
"872 392 OFFCURVE",
"872 296 CURVE SMOOTH",
"872 63 OFFCURVE",
"654 -37 OFFCURVE",
"476 -37 CURVE SMOOTH",
"353 -37 OFFCURVE",
"250 10 OFFCURVE",
"250 94 CURVE SMOOTH",
"250 268 OFFCURVE",
"726 164 OFFCURVE",
"726 440 CURVE SMOOTH",
"726 541 OFFCURVE",
"662 623 OFFCURVE",
"556 623 CURVE SMOOTH",
"429 623 OFFCURVE",
"364 524 OFFCURVE",
"364 412 CURVE",
"385 412 LINE",
"385 556 OFFCURVE",
"302 623 OFFCURVE",
"209 623 CURVE SMOOTH",
"127 623 OFFCURVE",
"48 569 OFFCURVE",
"48 467 CURVE SMOOTH",
"48 422 OFFCURVE",
"73 361 OFFCURVE",
"111 361 CURVE SMOOTH",
"126 361 OFFCURVE",
"133 370 OFFCURVE",
"133 385 CURVE SMOOTH",
"133 435 OFFCURVE",
"148 484 OFFCURVE",
"212 484 CURVE SMOOTH",
"287 484 OFFCURVE",
"328 411 OFFCURVE",
"346 368 CURVE SMOOTH",
"352 355 OFFCURVE",
"359 344 OFFCURVE",
"374 344 CURVE SMOOTH",
"389 344 OFFCURVE",
"395 355 OFFCURVE",
"402 368 CURVE SMOOTH",
"425 411 OFFCURVE",
"464 483 OFFCURVE",
"549 483 CURVE SMOOTH",
"603 483 OFFCURVE",
"626 456 OFFCURVE",
"626 418 CURVE SMOOTH",
"626 232 OFFCURVE",
"120 362 OFFCURVE",
"120 33 CURVE SMOOTH",
"120 -134 OFFCURVE",
"284 -225 OFFCURVE",
"467 -225 CURVE SMOOTH",
"699 -225 OFFCURVE",
"962 -78 OFFCURVE",
"962 247 CURVE SMOOTH",
"962 370 OFFCURVE",
"926 491 OFFCURVE",
"863 589 CURVE"
);
}
);
};
layerId = UUID0;
name = Bold;
paths = (
{
closed = 1;
nodes = (
"713 -224 OFFCURVE",
"962 -88 OFFCURVE",
"962 248 CURVE SMOOTH",
"962 371 OFFCURVE",
"926 492 OFFCURVE",
"863 590 CURVE",
"863 477 LINE",
"1201 477 LINE SMOOTH",
"1309 477 OFFCURVE",
"1367 395 OFFCURVE",
"1367 317 CURVE SMOOTH",
"1367 249 OFFCURVE",
"1321 184 OFFCURVE",
"1225 184 CURVE SMOOTH",
"1144 184 OFFCURVE",
"1113 222 OFFCURVE",
"1113 256 CURVE SMOOTH",
"1113 281 OFFCURVE",
"1132 304 OFFCURVE",
"1160 304 CURVE SMOOTH",
"1203 304 OFFCURVE",
"1199 273 OFFCURVE",
"1243 273 CURVE SMOOTH",
"1270 273 OFFCURVE",
"1289 296 OFFCURVE",
"1289 321 CURVE SMOOTH",
"1289 350 OFFCURVE",
"1263 381 OFFCURVE",
"1194 381 CURVE SMOOTH",
"1083 381 OFFCURVE",
"1026 290 OFFCURVE",
"1026 196 CURVE SMOOTH",
"1026 96 OFFCURVE",
"1091 -7 OFFCURVE",
"1225 -7 CURVE SMOOTH",
"1371 -7 OFFCURVE",
"1446 144 OFFCURVE",
"1446 299 CURVE SMOOTH",
"1446 459 OFFCURVE",
"1365 623 OFFCURVE",
"1199 623 CURVE SMOOTH",
"815 623 LINE SMOOTH",
"787 623 OFFCURVE",
"779 600 OFFCURVE",
"799 568 CURVE SMOOTH",
"848 489 OFFCURVE",
"872 393 OFFCURVE",
"872 297 CURVE SMOOTH",
"872 45 OFFCURVE",
"673 -41 OFFCURVE",
"501 -41 CURVE SMOOTH",
"368 -41 OFFCURVE",
"251 10 OFFCURVE",
"251 75 CURVE SMOOTH",
"251 245 OFFCURVE",
"736 163 OFFCURVE",
"736 441 CURVE SMOOTH",
"736 542 OFFCURVE",
"662 624 OFFCURVE",
"556 624 CURVE SMOOTH",
"429 624 OFFCURVE",
"364 525 OFFCURVE",
"364 413 CURVE",
"385 413 LINE",
"385 557 OFFCURVE",
"302 624 OFFCURVE",
"209 624 CURVE SMOOTH",
"127 624 OFFCURVE",
"48 570 OFFCURVE",
"48 468 CURVE SMOOTH",
"48 423 OFFCURVE",
"73 362 OFFCURVE",
"111 362 CURVE SMOOTH",
"126 362 OFFCURVE",
"133 371 OFFCURVE",
"133 386 CURVE SMOOTH",
"133 436 OFFCURVE",
"148 485 OFFCURVE",
"212 485 CURVE SMOOTH",
"287 485 OFFCURVE",
"328 412 OFFCURVE",
"346 369 CURVE SMOOTH",
"352 356 OFFCURVE",
"359 345 OFFCURVE",
"374 345 CURVE SMOOTH",
"389 345 OFFCURVE",
"395 356 OFFCURVE",
"402 369 CURVE SMOOTH",
"425 412 OFFCURVE",
"464 484 OFFCURVE",
"549 484 CURVE SMOOTH",
"603 484 OFFCURVE",
"629 457 OFFCURVE",
"629 410 CURVE SMOOTH",
"629 221 OFFCURVE",
"120 335 OFFCURVE",
"120 24 CURVE SMOOTH",
"120 -128 OFFCURVE",
"295 -224 OFFCURVE",
"486 -224 CURVE SMOOTH"
);
}
);
width = 1484;
}
);
unicode = 0CE1;
},
{
glyphname = knE;
lastChange = "2015-10-08 10:19:29 +0000";
layers = (
{
background = {
paths = (
{
closed = 1;
nodes = (
"348 -7 OFFCURVE",
"411 63 OFFCURVE",
"437 188 CURVE",
"423 188 LINE",
"449 63 OFFCURVE",
"533 -7 OFFCURVE",
"619 -7 CURVE SMOOTH",
"748 -7 OFFCURVE",
"813 106 OFFCURVE",
"813 237 CURVE SMOOTH",
"813 422 OFFCURVE",
"683 644 OFFCURVE",
"417 640 CURVE SMOOTH",
"371 639 OFFCURVE",
"352 617 OFFCURVE",
"352 595 CURVE SMOOTH",
"352 575 OFFCURVE",
"368 556 OFFCURVE",
"391 556 CURVE SMOOTH",
"425 556 OFFCURVE",
"436 568 OFFCURVE",
"483 568 CURVE SMOOTH",
"656 568 OFFCURVE",
"750 398 OFFCURVE",
"750 261 CURVE SMOOTH",
"750 169 OFFCURVE",
"707 92 OFFCURVE",
"617 92 CURVE SMOOTH",
"528 92 OFFCURVE",
"484 177 OFFCURVE",
"458 227 CURVE SMOOTH",
"451 240 OFFCURVE",
"445 251 OFFCURVE",
"430 251 CURVE SMOOTH",
"415 251 OFFCURVE",
"409 240 OFFCURVE",
"402 227 CURVE SMOOTH",
"376 177 OFFCURVE",
"348 92 OFFCURVE",
"239 92 CURVE SMOOTH",
"167 92 OFFCURVE",
"123 129 OFFCURVE",
"123 192 CURVE SMOOTH",
"123 232 OFFCURVE",
"148 269 OFFCURVE",
"196 269 CURVE SMOOTH",
"230 269 OFFCURVE",
"242 241 OFFCURVE",
"272 241 CURVE SMOOTH",
"290 241 OFFCURVE",
"309 256 OFFCURVE",
"309 274 CURVE SMOOTH",
"309 368 OFFCURVE",
"48 373 OFFCURVE",
"48 167 CURVE SMOOTH",
"48 70 OFFCURVE",
"118 -7 OFFCURVE",
"229 -7 CURVE SMOOTH"
);
}
);
};
layerId = "5E0B1C78-70A4-47D0-8E94-4E97FBB7DD03";
name = Light;
paths = (
{
closed = 1;
nodes = (
"348 -7 OFFCURVE",
"411 63 OFFCURVE",
"437 188 CURVE",
"423 188 LINE",
"449 63 OFFCURVE",
"533 -7 OFFCURVE",
"619 -7 CURVE SMOOTH",
"748 -7 OFFCURVE",
"813 106 OFFCURVE",
"813 237 CURVE SMOOTH",
"813 422 OFFCURVE",
"683 644 OFFCURVE",
"417 640 CURVE SMOOTH",
"371 639 OFFCURVE",
"352 617 OFFCURVE",
"352 595 CURVE SMOOTH",
"352 575 OFFCURVE",
"368 556 OFFCURVE",
"391 556 CURVE SMOOTH",
"425 556 OFFCURVE",
"436 568 OFFCURVE",
"483 568 CURVE SMOOTH",
"656 568 OFFCURVE",
"750 398 OFFCURVE",
"750 261 CURVE SMOOTH",
"750 169 OFFCURVE",
"707 92 OFFCURVE",
"617 92 CURVE SMOOTH",
"528 92 OFFCURVE",
"484 177 OFFCURVE",
"458 227 CURVE SMOOTH",
"451 240 OFFCURVE",
"445 251 OFFCURVE",
"430 251 CURVE SMOOTH",
"415 251 OFFCURVE",
"409 240 OFFCURVE",
"402 227 CURVE SMOOTH",
"376 177 OFFCURVE",
"348 92 OFFCURVE",
"233 92 CURVE SMOOTH",
"153 92 OFFCURVE",
"119 141 OFFCURVE",
"119 187 CURVE SMOOTH",
"119 229 OFFCURVE",
"147 269 OFFCURVE",
"196 269 CURVE SMOOTH",
"230 269 OFFCURVE",
"244 243 OFFCURVE",
"273 243 CURVE SMOOTH",
"295 243 OFFCURVE",
"309 257 OFFCURVE",
"309 277 CURVE SMOOTH",
"309 314 OFFCURVE",
"266 337 OFFCURVE",
"214 337 CURVE SMOOTH",
"139 337 OFFCURVE",
"48 289 OFFCURVE",
"48 167 CURVE SMOOTH",
"48 70 OFFCURVE",
"118 -7 OFFCURVE",
"229 -7 CURVE SMOOTH"
);
}
);
width = 861;
},
{
background = {
paths = (
{
closed = 0;
nodes = (
"836 239 LINE SMOOTH",
"836 409 OFFCURVE",
"731 605 OFFCURVE",
"548 622 CURVE SMOOTH"
);
},
{
closed = 0;
nodes = (
"521 553 LINE",
"663 553 OFFCURVE",
"750 411 OFFCURVE",
"750 302 CURVE SMOOTH"
);
}
);
};
layerId = UUID0;
name = Bold;
paths = (
{
closed = 1;
nodes = (
"406 -8 OFFCURVE",
"472 142 OFFCURVE",
"472 263 CURVE",
"428 263 LINE",
"428 142 OFFCURVE",
"494 -8 OFFCURVE",
"635 -8 CURVE SMOOTH",
"769 -8 OFFCURVE",
"836 110 OFFCURVE",
"836 246 CURVE SMOOTH",
"836 444 OFFCURVE",
"689 651 OFFCURVE",
"464 651 CURVE SMOOTH",
"394 651 OFFCURVE",
"362 613 OFFCURVE",
"362 578 CURVE SMOOTH",
"362 549 OFFCURVE",
"385 522 OFFCURVE",
"425 522 CURVE SMOOTH",
"461 522 OFFCURVE",
"482 534 OFFCURVE",
"525 534 CURVE SMOOTH",
"676 534 OFFCURVE",
"749 410 OFFCURVE",
"749 299 CURVE SMOOTH",
"749 232 OFFCURVE",
"714 177 OFFCURVE",
"638 177 CURVE SMOOTH",
"543 177 OFFCURVE",
"501 268 OFFCURVE",
"478 312 CURVE SMOOTH",
"471 325 OFFCURVE",
"465 336 OFFCURVE",
"450 336 CURVE SMOOTH",
"435 336 OFFCURVE",
"429 325 OFFCURVE",
"422 312 CURVE SMOOTH",
"399 268 OFFCURVE",
"357 177 OFFCURVE",
"252 177 CURVE SMOOTH",
"174 177 OFFCURVE",
"139 221 OFFCURVE",
"139 260 CURVE SMOOTH",
"139 294 OFFCURVE",
"163 324 OFFCURVE",
"208 324 CURVE SMOOTH",
"244 324 OFFCURVE",
"259 300 OFFCURVE",
"293 300 CURVE SMOOTH",
"322 300 OFFCURVE",
"337 323 OFFCURVE",
"337 345 CURVE SMOOTH",
"337 387 OFFCURVE",
"286 410 OFFCURVE",
"235 410 CURVE SMOOTH",
"104 410 OFFCURVE",
"38 309 OFFCURVE",
"38 207 CURVE SMOOTH",
"38 100 OFFCURVE",
"109 -8 OFFCURVE",
"255 -8 CURVE SMOOTH"
);
}
);
width = 874;
},
{
associatedMasterId = "5E0B1C78-70A4-47D0-8E94-4E97FBB7DD03";
background = {
paths = (
{
closed = 1;
nodes = (
"348 -7 OFFCURVE",
"411 63 OFFCURVE",
"437 188 CURVE",
"423 188 LINE",
"449 63 OFFCURVE",
"533 -7 OFFCURVE",
"619 -7 CURVE SMOOTH",
"741 -7 OFFCURVE",
"805 99 OFFCURVE",
"805 221 CURVE SMOOTH",
"805 390 OFFCURVE",
"684 590 OFFCURVE",
"427 590 CURVE SMOOTH",
"381 590 OFFCURVE",
"362 567 OFFCURVE",
"362 545 CURVE SMOOTH",
"362 525 OFFCURVE",
"378 506 OFFCURVE",
"401 506 CURVE SMOOTH",
"435 506 OFFCURVE",
"446 518 OFFCURVE",
"493 518 CURVE SMOOTH",
"762 518 OFFCURVE",
"830 92 OFFCURVE",
"617 92 CURVE SMOOTH",
"528 92 OFFCURVE",
"484 177 OFFCURVE",
"458 227 CURVE SMOOTH",
"451 240 OFFCURVE",
"445 251 OFFCURVE",
"430 251 CURVE SMOOTH",
"415 251 OFFCURVE",
"409 240 OFFCURVE",
"402 227 CURVE SMOOTH",
"376 177 OFFCURVE",
"348 92 OFFCURVE",
"239 92 CURVE SMOOTH",
"167 92 OFFCURVE",
"123 129 OFFCURVE",
"123 192 CURVE SMOOTH",
"123 232 OFFCURVE",
"148 269 OFFCURVE",
"196 269 CURVE SMOOTH",
"230 269 OFFCURVE",
"241 241 OFFCURVE",
"281 241 CURVE SMOOTH",
"299 241 OFFCURVE",
"318 256 OFFCURVE",
"318 274 CURVE SMOOTH",
"318 318 OFFCURVE",
"261 328 OFFCURVE",
"219 328 CURVE SMOOTH",
"104 328 OFFCURVE",
"48 248 OFFCURVE",
"48 167 CURVE SMOOTH",
"48 70 OFFCURVE",
"118 -7 OFFCURVE",
"229 -7 CURVE SMOOTH"
);
}
);
};
layerId = "AC7350F7-3EBF-46E2-9516-B07AD77B46EC";
name = "Light Aug 20 15, 13:53";
paths = (
{
closed = 1;
nodes = (
"348 -7 OFFCURVE",
"411 63 OFFCURVE",
"437 158 CURVE",
"423 158 LINE",
"449 63 OFFCURVE",
"533 -7 OFFCURVE",
"619 -7 CURVE SMOOTH",
"748 -7 OFFCURVE",
"813 106 OFFCURVE",
"813 237 CURVE SMOOTH",
"813 422 OFFCURVE",
"683 644 OFFCURVE",
"417 640 CURVE SMOOTH",
"371 639 OFFCURVE",
"352 617 OFFCURVE",
"352 595 CURVE SMOOTH",
"352 575 OFFCURVE",
"368 556 OFFCURVE",
"391 556 CURVE SMOOTH",
"425 556 OFFCURVE",
"436 568 OFFCURVE",
"483 568 CURVE SMOOTH",
"656 568 OFFCURVE",
"750 398 OFFCURVE",
"750 261 CURVE SMOOTH",
"750 169 OFFCURVE",
"707 92 OFFCURVE",
"617 92 CURVE SMOOTH",
"528 92 OFFCURVE",
"484 177 OFFCURVE",
"458 227 CURVE SMOOTH",
"451 240 OFFCURVE",
"445 251 OFFCURVE",
"430 251 CURVE SMOOTH",
"415 251 OFFCURVE",
"409 240 OFFCURVE",
"402 227 CURVE SMOOTH",
"376 177 OFFCURVE",
"348 92 OFFCURVE",
"239 92 CURVE SMOOTH",
"167 92 OFFCURVE",
"123 129 OFFCURVE",
"123 192 CURVE SMOOTH",
"123 232 OFFCURVE",
"148 269 OFFCURVE",
"196 269 CURVE SMOOTH",
"230 269 OFFCURVE",
"242 241 OFFCURVE",
"272 241 CURVE SMOOTH",
"290 241 OFFCURVE",
"310 256 OFFCURVE",
"310 278 CURVE SMOOTH",
"310 379 OFFCURVE",
"48 375 OFFCURVE",
"48 167 CURVE SMOOTH",
"48 70 OFFCURVE",
"118 -7 OFFCURVE",
"229 -7 CURVE SMOOTH"
);
}
);
width = 853;
}
);
unicode = 0C8E;
},
{
glyphname = knEE;
lastChange = "2015-10-08 10:19:29 +0000";
layers = (
{
background = {
paths = (
{
closed = 0;
nodes = (
"196 548 LINE SMOOTH",
"193 562 OFFCURVE",
"194 575 OFFCURVE",
"200 584 CURVE SMOOTH",
"215 602 OFFCURVE",
"234 584 OFFCURVE",
"242 566 CURVE SMOOTH"
);
}
);
};
layerId = "5E0B1C78-70A4-47D0-8E94-4E97FBB7DD03";
name = Light;
paths = (
{
closed = 1;
nodes = (
"348 -7 OFFCURVE",
"411 63 OFFCURVE",
"437 188 CURVE",
"423 188 LINE",
"449 63 OFFCURVE",
"533 -7 OFFCURVE",
"619 -7 CURVE SMOOTH",
"741 -7 OFFCURVE",
"805 99 OFFCURVE",
"805 221 CURVE SMOOTH",
"805 379 OFFCURVE",
"679 569 OFFCURVE",
"509 590 CURVE SMOOTH",
"499 591 OFFCURVE",
"488 592 OFFCURVE",
"478 592 CURVE SMOOTH",
"424 592 OFFCURVE",
"429 502 OFFCURVE",
"346 502 CURVE SMOOTH",
"251 502 OFFCURVE",
"247 592 OFFCURVE",
"214 592 CURVE SMOOTH",
"201 592 OFFCURVE",
"197 581 OFFCURVE",
"197 569 CURVE SMOOTH",
"197 509 OFFCURVE",
"266 439 OFFCURVE",
"346 439 CURVE SMOOTH",
"415 439 OFFCURVE",
"474 483 OFFCURVE",
"488 563 CURVE",
"469 538 LINE",
"644 538 OFFCURVE",
"742 365 OFFCURVE",
"742 249 CURVE SMOOTH",
"742 164 OFFCURVE",
"701 92 OFFCURVE",
"617 92 CURVE SMOOTH",
"528 92 OFFCURVE",
"484 177 OFFCURVE",
"458 227 CURVE SMOOTH",
"451 240 OFFCURVE",
"445 251 OFFCURVE",
"430 251 CURVE SMOOTH",
"415 251 OFFCURVE",
"409 240 OFFCURVE",
"402 227 CURVE SMOOTH",
"376 177 OFFCURVE",
"348 92 OFFCURVE",
"233 92 CURVE SMOOTH",
"153 92 OFFCURVE",
"119 141 OFFCURVE",
"119 187 CURVE SMOOTH",
"119 229 OFFCURVE",
"147 269 OFFCURVE",
"196 269 CURVE SMOOTH",
"230 269 OFFCURVE",
"244 243 OFFCURVE",
"273 243 CURVE SMOOTH",
"295 243 OFFCURVE",
"309 257 OFFCURVE",
"309 277 CURVE SMOOTH",
"309 314 OFFCURVE",
"266 337 OFFCURVE",
"214 337 CURVE SMOOTH",
"139 337 OFFCURVE",
"48 289 OFFCURVE",
"48 167 CURVE SMOOTH",
"48 70 OFFCURVE",
"118 -7 OFFCURVE",
"229 -7 CURVE SMOOTH"
);
}
);
width = 853;
},
{
layerId = UUID0;
name = Bold;
paths = (
{
closed = 1;
nodes = (
"406 -8 OFFCURVE",
"472 142 OFFCURVE",
"472 263 CURVE",
"428 263 LINE",
"428 142 OFFCURVE",
"494 -8 OFFCURVE",
"635 -8 CURVE SMOOTH",
"773 -8 OFFCURVE",
"836 107 OFFCURVE",
"836 239 CURVE SMOOTH",
"836 409 OFFCURVE",
"731 605 OFFCURVE",
"548 622 CURVE SMOOTH",
"540 623 OFFCURVE",
"532 623 OFFCURVE",
"526 623 CURVE SMOOTH",
"438 623 OFFCURVE",
"482 529 OFFCURVE",
"387 529 CURVE SMOOTH",
"303 529 OFFCURVE",
"303 623 OFFCURVE",
"262 623 CURVE SMOOTH",
"245 623 OFFCURVE",
"237 606 OFFCURVE",
"237 583 CURVE SMOOTH",
"237 501 OFFCURVE",
"299 426 OFFCURVE",
"390 426 CURVE SMOOTH",
"467 426 OFFCURVE",
"534 480 OFFCURVE",
"540 579 CURVE",
"521 553 LINE",
"663 553 OFFCURVE",
"750 411 OFFCURVE",
"750 302 CURVE SMOOTH",
"750 233 OFFCURVE",
"716 177 OFFCURVE",
"638 177 CURVE SMOOTH",
"543 177 OFFCURVE",
"501 268 OFFCURVE",
"478 312 CURVE SMOOTH",
"471 325 OFFCURVE",
"465 336 OFFCURVE",
"450 336 CURVE SMOOTH",
"435 336 OFFCURVE",
"429 325 OFFCURVE",
"422 312 CURVE SMOOTH",
"399 268 OFFCURVE",
"357 177 OFFCURVE",
"252 177 CURVE SMOOTH",
"174 177 OFFCURVE",
"139 221 OFFCURVE",
"139 260 CURVE SMOOTH",
"139 294 OFFCURVE",
"163 324 OFFCURVE",
"208 324 CURVE SMOOTH",
"244 324 OFFCURVE",
"259 300 OFFCURVE",
"293 300 CURVE SMOOTH",
"322 300 OFFCURVE",
"337 323 OFFCURVE",
"337 345 CURVE SMOOTH",
"337 387 OFFCURVE",
"286 410 OFFCURVE",
"235 410 CURVE SMOOTH",
"104 410 OFFCURVE",
"38 309 OFFCURVE",
"38 207 CURVE SMOOTH",
"38 100 OFFCURVE",
"109 -8 OFFCURVE",
"255 -8 CURVE SMOOTH"
);
}
);
width = 874;
}
);
unicode = 0C8F;
},
{
glyphname = knAI;
lastChange = "2015-10-08 10:19:29 +0000";
layers = (
{
background = {
paths = (
{
closed = 0;
nodes = (
"1223 251 LINE",
"1208 251 OFFCURVE",
"1202 240 OFFCURVE",
"1195 227 CURVE SMOOTH",
"1169 177 OFFCURVE",
"1141 92 OFFCURVE",
"1026 92 CURVE SMOOTH",
"946 92 OFFCURVE",
"912 141 OFFCURVE",
"912 187 CURVE SMOOTH",
"912 229 OFFCURVE",
"940 269 OFFCURVE",
"989 269 CURVE SMOOTH",
"1023 269 OFFCURVE",
"1037 243 OFFCURVE",
"1066 243 CURVE SMOOTH",
"1088 243 OFFCURVE",
"1102 257 OFFCURVE",
"1102 277 CURVE SMOOTH",
"1102 314 OFFCURVE",
"1059 337 OFFCURVE",
"1007 337 CURVE SMOOTH",
"932 337 OFFCURVE",
"841 289 OFFCURVE",
"841 167 CURVE SMOOTH",
"841 70 OFFCURVE",
"911 -7 OFFCURVE",
"1022 -7 CURVE SMOOTH",
"1141 -7 OFFCURVE",
"1204 63 OFFCURVE",
"1230 188 CURVE",
"1216 188 LINE"
);
},
{
closed = 0;
nodes = (
"407 188 LINE",
"393 188 LINE",
"419 63 OFFCURVE",
"491 -7 OFFCURVE",
"577 -7 CURVE SMOOTH",
"703 -7 OFFCURVE",
"766 136 OFFCURVE",
"766 281 CURVE SMOOTH",
"766 434 OFFCURVE",
"697 590 OFFCURVE",
"556 590 CURVE SMOOTH",
"458 590 OFFCURVE",
"393 493 OFFCURVE",
"393 439 CURVE",
"407 439 LINE",
"407 493 OFFCURVE",
"340 590 OFFCURVE",
"223 590 CURVE SMOOTH",
"141 590 OFFCURVE",
"74 536 OFFCURVE",
"74 463 CURVE SMOOTH",
"74 429 OFFCURVE",
"91 385 OFFCURVE",
"114 385 CURVE SMOOTH",
"129 385 OFFCURVE",
"133 398 OFFCURVE",
"131 411 CURVE SMOOTH",
"124 466 OFFCURVE",
"161 507 OFFCURVE",
"229 507 CURVE SMOOTH",
"300 507 OFFCURVE",
"342 458 OFFCURVE",
"372 401 CURVE SMOOTH",
"379 388 OFFCURVE",
"385 377 OFFCURVE",
"400 377 CURVE SMOOTH",
"415 377 OFFCURVE",
"421 388 OFFCURVE",
"428 401 CURVE SMOOTH",
"462 463 OFFCURVE",
"495 507 OFFCURVE",
"567 507 CURVE SMOOTH",
"664 507 OFFCURVE",
"713 398 OFFCURVE",
"713 292 CURVE SMOOTH",
"713 191 OFFCURVE",
"668 92 OFFCURVE",
"577 92 CURVE SMOOTH",
"486 92 OFFCURVE",
"454 177 OFFCURVE",
"428 227 CURVE SMOOTH",
"421 240 OFFCURVE",
"415 251 OFFCURVE",
"400 251 CURVE"
);
}
);
};
layerId = "5E0B1C78-70A4-47D0-8E94-4E97FBB7DD03";
name = Light;
paths = (
{
closed = 1;
nodes = (
"318 -7 OFFCURVE",
"391 63 OFFCURVE",
"417 188 CURVE",
"403 188 LINE",
"429 63 OFFCURVE",
"501 -7 OFFCURVE",
"587 -7 CURVE SMOOTH",
"713 -7 OFFCURVE",
"776 136 OFFCURVE",
"776 281 CURVE SMOOTH",
"776 434 OFFCURVE",
"707 590 OFFCURVE",
"566 590 CURVE SMOOTH",
"468 590 OFFCURVE",
"403 493 OFFCURVE",
"403 439 CURVE",
"417 439 LINE",
"417 493 OFFCURVE",
"340 590 OFFCURVE",
"223 590 CURVE SMOOTH",
"141 590 OFFCURVE",
"74 536 OFFCURVE",
"74 463 CURVE SMOOTH",
"74 429 OFFCURVE",
"91 385 OFFCURVE",
"114 385 CURVE SMOOTH",
"129 385 OFFCURVE",
"133 398 OFFCURVE",
"131 411 CURVE SMOOTH",
"124 466 OFFCURVE",
"161 507 OFFCURVE",
"229 507 CURVE SMOOTH",
"300 507 OFFCURVE",
"352 458 OFFCURVE",
"382 401 CURVE SMOOTH",
"389 388 OFFCURVE",
"395 377 OFFCURVE",
"410 377 CURVE SMOOTH",
"425 377 OFFCURVE",
"431 388 OFFCURVE",
"438 401 CURVE SMOOTH",
"472 463 OFFCURVE",
"505 507 OFFCURVE",
"577 507 CURVE SMOOTH",
"674 507 OFFCURVE",
"723 398 OFFCURVE",
"723 292 CURVE SMOOTH",
"723 191 OFFCURVE",
"678 92 OFFCURVE",
"587 92 CURVE SMOOTH",
"496 92 OFFCURVE",
"464 177 OFFCURVE",
"438 227 CURVE SMOOTH",
"431 240 OFFCURVE",
"425 251 OFFCURVE",
"410 251 CURVE SMOOTH",
"395 251 OFFCURVE",
"389 240 OFFCURVE",
"382 227 CURVE SMOOTH",
"355 175 OFFCURVE",
"304 92 OFFCURVE",
"215 92 CURVE SMOOTH",
"149 92 OFFCURVE",
"118 136 OFFCURVE",
"118 178 CURVE SMOOTH",
"118 219 OFFCURVE",
"146 259 OFFCURVE",
"199 259 CURVE SMOOTH",
"233 259 OFFCURVE",
"247 233 OFFCURVE",
"276 233 CURVE SMOOTH",
"298 233 OFFCURVE",
"312 247 OFFCURVE",
"312 267 CURVE SMOOTH",
"312 304 OFFCURVE",
"269 327 OFFCURVE",
"217 327 CURVE SMOOTH",
"104 327 OFFCURVE",
"48 243 OFFCURVE",
"48 159 CURVE SMOOTH",
"48 76 OFFCURVE",
"103 -7 OFFCURVE",
"213 -7 CURVE SMOOTH"
);
}
);
width = 824;
},
{
background = {
paths = (
{
closed = 1;
nodes = (
"376 -8 OFFCURVE",
"442 142 OFFCURVE",
"442 263 CURVE",
"398 263 LINE",
"398 142 OFFCURVE",
"464 -8 OFFCURVE",
"605 -8 CURVE SMOOTH",
"742 -8 OFFCURVE",
"812 150 OFFCURVE",
"812 308 CURVE SMOOTH",
"812 536 OFFCURVE",
"693 623 OFFCURVE",
"584 623 CURVE SMOOTH",
"489 623 OFFCURVE",
"400 558 OFFCURVE",
"400 462 CURVE",
"437 462 LINE",
"437 570 OFFCURVE",
"343 623 OFFCURVE",
"250 623 CURVE SMOOTH",
"159 623 OFFCURVE",
"70 573 OFFCURVE",
"70 472 CURVE SMOOTH",
"70 426 OFFCURVE",
"82 380 OFFCURVE",
"115 380 CURVE SMOOTH",
"138 380 OFFCURVE",
"141 398 OFFCURVE",
"141 416 CURVE SMOOTH",
"141 467 OFFCURVE",
"172 512 OFFCURVE",
"238 512 CURVE SMOOTH",
"312 512 OFFCURVE",
"359 460 OFFCURVE",
"392 397 CURVE SMOOTH",
"399 384 OFFCURVE",
"405 373 OFFCURVE",
"420 373 CURVE SMOOTH",
"435 373 OFFCURVE",
"441 384 OFFCURVE",
"448 397 CURVE SMOOTH",
"471 441 OFFCURVE",
"508 512 OFFCURVE",
"602 512 CURVE SMOOTH",
"689 512 OFFCURVE",
"732 422 OFFCURVE",
"732 342 CURVE SMOOTH",
"732 260 OFFCURVE",
"688 177 OFFCURVE",
"600 177 CURVE SMOOTH",
"513 177 OFFCURVE",
"471 253 OFFCURVE",
"448 297 CURVE SMOOTH",
"441 310 OFFCURVE",
"435 321 OFFCURVE",
"420 321 CURVE SMOOTH",
"405 321 OFFCURVE",
"399 310 OFFCURVE",
"392 297 CURVE SMOOTH",
"369 253 OFFCURVE",
"327 177 OFFCURVE",
"222 177 CURVE SMOOTH",
"177 177 OFFCURVE",
"130 198 OFFCURVE",
"130 233 CURVE SMOOTH",
"130 257 OFFCURVE",
"147 274 OFFCURVE",
"178 274 CURVE SMOOTH",
"214 274 OFFCURVE",
"229 250 OFFCURVE",
"263 250 CURVE SMOOTH",
"292 250 OFFCURVE",
"307 273 OFFCURVE",
"307 295 CURVE SMOOTH",
"307 337 OFFCURVE",
"256 360 OFFCURVE",
"205 360 CURVE SMOOTH",
"99 360 OFFCURVE",
"38 272 OFFCURVE",
"38 182 CURVE SMOOTH",
"38 88 OFFCURVE",
"100 -8 OFFCURVE",
"225 -8 CURVE SMOOTH"
);
}
);
};
layerId = UUID0;
name = Bold;
paths = (
{
closed = 1;
nodes = (
"376 -8 OFFCURVE",
"442 142 OFFCURVE",
"442 263 CURVE",
"398 263 LINE",
"398 142 OFFCURVE",
"464 -8 OFFCURVE",
"605 -8 CURVE SMOOTH",
"742 -8 OFFCURVE",
"812 150 OFFCURVE",
"812 308 CURVE SMOOTH",
"812 536 OFFCURVE",
"693 623 OFFCURVE",
"584 623 CURVE SMOOTH",
"489 623 OFFCURVE",
"400 558 OFFCURVE",
"400 462 CURVE",
"437 462 LINE",
"437 570 OFFCURVE",
"343 623 OFFCURVE",
"250 623 CURVE SMOOTH",
"141 623 OFFCURVE",
"76 560 OFFCURVE",
"76 473 CURVE SMOOTH",
"76 428 OFFCURVE",
"96 390 OFFCURVE",
"123 390 CURVE SMOOTH",
"146 390 OFFCURVE",
"149 408 OFFCURVE",
"149 426 CURVE SMOOTH",
"149 477 OFFCURVE",
"172 512 OFFCURVE",
"238 512 CURVE SMOOTH",
"312 512 OFFCURVE",
"359 470 OFFCURVE",
"392 407 CURVE SMOOTH",
"399 394 OFFCURVE",
"405 383 OFFCURVE",
"420 383 CURVE SMOOTH",
"435 383 OFFCURVE",
"441 394 OFFCURVE",
"448 407 CURVE SMOOTH",
"471 451 OFFCURVE",
"508 512 OFFCURVE",
"602 512 CURVE SMOOTH",
"689 512 OFFCURVE",
"732 422 OFFCURVE",
"732 342 CURVE SMOOTH",
"732 260 OFFCURVE",
"688 177 OFFCURVE",
"600 177 CURVE SMOOTH",
"513 177 OFFCURVE",
"471 253 OFFCURVE",
"448 297 CURVE SMOOTH",
"441 310 OFFCURVE",
"435 321 OFFCURVE",
"420 321 CURVE SMOOTH",
"405 321 OFFCURVE",
"399 310 OFFCURVE",
"392 297 CURVE SMOOTH",
"369 253 OFFCURVE",
"327 177 OFFCURVE",
"222 177 CURVE SMOOTH",
"177 177 OFFCURVE",
"130 198 OFFCURVE",
"130 233 CURVE SMOOTH",
"130 257 OFFCURVE",
"147 274 OFFCURVE",
"178 274 CURVE SMOOTH",
"214 274 OFFCURVE",
"229 250 OFFCURVE",
"263 250 CURVE SMOOTH",
"292 250 OFFCURVE",
"307 273 OFFCURVE",
"307 295 CURVE SMOOTH",
"307 337 OFFCURVE",
"256 360 OFFCURVE",
"205 360 CURVE SMOOTH",
"99 360 OFFCURVE",
"38 272 OFFCURVE",
"38 182 CURVE SMOOTH",
"38 88 OFFCURVE",
"100 -8 OFFCURVE",
"225 -8 CURVE SMOOTH"
);
}
);
width = 850;
},
{
associatedMasterId = "5E0B1C78-70A4-47D0-8E94-4E97FBB7DD03";
layerId = "308D3213-AB24-4104-A685-45CC504840F4";
name = "Light Aug 6 15, 16:35";
paths = (
{
closed = 1;
nodes = (
"528 92 OFFCURVE",
"484 177 OFFCURVE",
"458 227 CURVE SMOOTH",
"451 240 OFFCURVE",
"445 251 OFFCURVE",
"430 251 CURVE SMOOTH",
"415 251 OFFCURVE",
"409 240 OFFCURVE",
"402 227 CURVE SMOOTH",
"376 177 OFFCURVE",
"348 92 OFFCURVE",
"239 92 CURVE SMOOTH",
"167 92 OFFCURVE",
"123 129 OFFCURVE",
"123 192 CURVE SMOOTH",
"123 232 OFFCURVE",
"148 269 OFFCURVE",
"196 269 CURVE SMOOTH",
"230 269 OFFCURVE",
"241 241 OFFCURVE",
"281 241 CURVE SMOOTH",
"299 241 OFFCURVE",
"318 256 OFFCURVE",
"318 274 CURVE SMOOTH",
"318 318 OFFCURVE",
"261 328 OFFCURVE",
"219 328 CURVE SMOOTH",
"104 328 OFFCURVE",
"48 248 OFFCURVE",
"48 167 CURVE SMOOTH",
"48 70 OFFCURVE",
"118 -7 OFFCURVE",
"229 -7 CURVE SMOOTH",
"348 -7 OFFCURVE",
"411 63 OFFCURVE",
"437 188 CURVE",
"423 188 LINE",
"449 63 OFFCURVE",
"533 -7 OFFCURVE",
"619 -7 CURVE SMOOTH",
"747 -7 OFFCURVE",
"812 143 OFFCURVE",
"812 292 CURVE SMOOTH",
"812 416 OFFCURVE",
"751 590 OFFCURVE",
"596 590 CURVE SMOOTH",
"499 590 OFFCURVE",
"422 493 OFFCURVE",
"422 439 CURVE",
"436 439 LINE",
"436 493 OFFCURVE",
"349 590 OFFCURVE",
"232 590 CURVE SMOOTH",
"140 590 OFFCURVE",
"79 538 OFFCURVE",
"79 465 CURVE SMOOTH",
"79 431 OFFCURVE",
"96 387 OFFCURVE",
"119 387 CURVE SMOOTH",
"134 387 OFFCURVE",
"138 400 OFFCURVE",
"136 413 CURVE SMOOTH",
"129 470 OFFCURVE",
"172 507 OFFCURVE",
"238 507 CURVE SMOOTH",
"309 507 OFFCURVE",
"371 458 OFFCURVE",
"401 401 CURVE SMOOTH",
"408 388 OFFCURVE",
"414 377 OFFCURVE",
"429 377 CURVE SMOOTH",
"444 377 OFFCURVE",
"450 388 OFFCURVE",
"457 401 CURVE SMOOTH",
"491 463 OFFCURVE",
"536 507 OFFCURVE",
"607 507 CURVE SMOOTH",
"707 507 OFFCURVE",
"759 409 OFFCURVE",
"759 304 CURVE SMOOTH",
"759 199 OFFCURVE",
"713 92 OFFCURVE",
"619 92 CURVE SMOOTH"
);
}
);
width = 853;
}
);
unicode = 0C90;
},
{
glyphname = knO;
lastChange = "2015-10-08 10:19:29 +0000";
layers = (
{
background = {
paths = (
{
closed = 1;
nodes = (
"353 -7 OFFCURVE",
"445 110 OFFCURVE",
"445 206 CURVE",
"431 206 LINE",
"431 110 OFFCURVE",
"523 -7 OFFCURVE",
"645 -7 CURVE SMOOTH",
"754 -7 OFFCURVE",
"824 70 OFFCURVE",
"824 176 CURVE SMOOTH",
"824 277 OFFCURVE",
"750 383 OFFCURVE",
"603 383 CURVE SMOOTH",
"514 383 OFFCURVE",
"525 299 OFFCURVE",
"580 299 CURVE SMOOTH",
"609 299 OFFCURVE",
"630 311 OFFCURVE",
"663 311 CURVE SMOOTH",
"725 311 OFFCURVE",
"756 262 OFFCURVE",
"756 211 CURVE SMOOTH",
"756 154 OFFCURVE",
"717 93 OFFCURVE",
"636 93 CURVE SMOOTH",
"531 93 OFFCURVE",
"489 184 OFFCURVE",
"466 228 CURVE SMOOTH",
"459 241 OFFCURVE",
"453 252 OFFCURVE",
"438 252 CURVE SMOOTH",
"423 252 OFFCURVE",
"417 241 OFFCURVE",
"410 228 CURVE SMOOTH",
"387 184 OFFCURVE",
"338 93 OFFCURVE",
"224 93 CURVE SMOOTH",
"168 93 OFFCURVE",
"141 117 OFFCURVE",
"141 159 CURVE SMOOTH",
"141 278 OFFCURVE",
"346 291 OFFCURVE",
"346 449 CURVE SMOOTH",
"346 538 OFFCURVE",
"283 597 OFFCURVE",
"201 597 CURVE SMOOTH",
"112 597 OFFCURVE",
"58 533 OFFCURVE",
"58 458 CURVE SMOOTH",
"58 424 OFFCURVE",
"62 379 OFFCURVE",
"93 379 CURVE SMOOTH",
"117 379 OFFCURVE",
"116 399 OFFCURVE",
"115 420 CURVE SMOOTH",
"113 467 OFFCURVE",
"142 514 OFFCURVE",
"203 514 CURVE SMOOTH",
"255 514 OFFCURVE",
"289 489 OFFCURVE",
"289 442 CURVE SMOOTH",
"289 312 OFFCURVE",
"59 301 OFFCURVE",
"59 134 CURVE SMOOTH",
"59 51 OFFCURVE",
"120 -7 OFFCURVE",
"219 -7 CURVE SMOOTH"
);
}
);
};
layerId = "5E0B1C78-70A4-47D0-8E94-4E97FBB7DD03";
name = Light;
paths = (
{
closed = 1;
nodes = (
"353 -7 OFFCURVE",
"435 110 OFFCURVE",
"435 206 CURVE",
"421 206 LINE",
"421 110 OFFCURVE",
"523 -7 OFFCURVE",
"637 -7 CURVE SMOOTH",
"753 -7 OFFCURVE",
"811 83 OFFCURVE",
"811 172 CURVE SMOOTH",
"811 260 OFFCURVE",
"755 347 OFFCURVE",
"643 347 CURVE SMOOTH",
"601 347 OFFCURVE",
"544 337 OFFCURVE",
"544 293 CURVE SMOOTH",
"544 275 OFFCURVE",
"563 260 OFFCURVE",
"581 260 CURVE SMOOTH",
"621 260 OFFCURVE",
"632 288 OFFCURVE",
"666 288 CURVE SMOOTH",
"714 288 OFFCURVE",
"742 243 OFFCURVE",
"742 197 CURVE SMOOTH",
"742 146 OFFCURVE",
"709 93 OFFCURVE",
"636 93 CURVE SMOOTH",
"531 93 OFFCURVE",
"479 184 OFFCURVE",
"456 228 CURVE SMOOTH",
"449 241 OFFCURVE",
"443 252 OFFCURVE",
"428 252 CURVE SMOOTH",
"413 252 OFFCURVE",
"407 241 OFFCURVE",
"400 228 CURVE SMOOTH",
"377 184 OFFCURVE",
"338 93 OFFCURVE",
"224 93 CURVE SMOOTH",
"168 93 OFFCURVE",
"141 117 OFFCURVE",
"141 159 CURVE SMOOTH",
"141 278 OFFCURVE",
"346 291 OFFCURVE",
"346 449 CURVE SMOOTH",
"346 538 OFFCURVE",
"283 597 OFFCURVE",
"201 597 CURVE SMOOTH",
"112 597 OFFCURVE",
"58 533 OFFCURVE",
"58 458 CURVE SMOOTH",
"58 424 OFFCURVE",
"62 379 OFFCURVE",
"93 379 CURVE SMOOTH",
"119 379 OFFCURVE",
"115 402 OFFCURVE",
"115 425 CURVE SMOOTH",
"115 470 OFFCURVE",
"144 514 OFFCURVE",
"203 514 CURVE SMOOTH",
"255 514 OFFCURVE",
"289 489 OFFCURVE",
"289 442 CURVE SMOOTH",
"289 312 OFFCURVE",
"59 301 OFFCURVE",
"59 134 CURVE SMOOTH",
"59 51 OFFCURVE",
"120 -7 OFFCURVE",
"219 -7 CURVE SMOOTH"
);
}
);
width = 844;
},
{
background = {
paths = (
{
closed = 1;
nodes = (
"364 -8 OFFCURVE",
"455 121 OFFCURVE",
"455 253 CURVE",
"411 253 LINE",
"411 121 OFFCURVE",
"491 -8 OFFCURVE",
"617 -8 CURVE SMOOTH",
"746 -8 OFFCURVE",
"821 89 OFFCURVE",
"821 211 CURVE SMOOTH",
"821 318 OFFCURVE",
"755 424 OFFCURVE",
"630 424 CURVE SMOOTH",
"502 424 OFFCURVE",
"522 316 OFFCURVE",
"581 316 CURVE SMOOTH",
"625 316 OFFCURVE",
"621 347 OFFCURVE",
"664 347 CURVE SMOOTH",
"704 347 OFFCURVE",
"732 311 OFFCURVE",
"732 273 CURVE SMOOTH",
"732 212 OFFCURVE",
"691 179 OFFCURVE",
"620 179 CURVE SMOOTH",
"500 179 OFFCURVE",
"484 268 OFFCURVE",
"461 312 CURVE SMOOTH",
"454 325 OFFCURVE",
"448 336 OFFCURVE",
"433 336 CURVE SMOOTH",
"418 336 OFFCURVE",
"412 325 OFFCURVE",
"405 312 CURVE SMOOTH",
"382 268 OFFCURVE",
"348 179 OFFCURVE",
"252 179 CURVE SMOOTH",
"220 179 OFFCURVE",
"199 198 OFFCURVE",
"199 229 CURVE SMOOTH",
"199 318 OFFCURVE",
"358 340 OFFCURVE",
"358 471 CURVE SMOOTH",
"358 561 OFFCURVE",
"306 623 OFFCURVE",
"207 623 CURVE SMOOTH",
"109 623 OFFCURVE",
"48 554 OFFCURVE",
"48 473 CURVE SMOOTH",
"48 436 OFFCURVE",
"58 378 OFFCURVE",
"97 378 CURVE SMOOTH",
"115 378 OFFCURVE",
"131 391 OFFCURVE",
"129 415 CURVE SMOOTH",
"125 463 OFFCURVE",
"154 503 OFFCURVE",
"206 503 CURVE SMOOTH",
"250 503 OFFCURVE",
"274 481 OFFCURVE",
"274 443 CURVE SMOOTH",
"274 361 OFFCURVE",
"51 317 OFFCURVE",
"51 151 CURVE SMOOTH",
"51 62 OFFCURVE",
"114 -8 OFFCURVE",
"228 -8 CURVE SMOOTH"
);
}
);
};
layerId = UUID0;
name = Bold;
paths = (
{
closed = 1;
nodes = (
"364 -8 OFFCURVE",
"455 121 OFFCURVE",
"455 253 CURVE",
"411 253 LINE",
"411 121 OFFCURVE",
"491 -8 OFFCURVE",
"617 -8 CURVE SMOOTH",
"746 -8 OFFCURVE",
"821 89 OFFCURVE",
"821 211 CURVE SMOOTH",
"821 318 OFFCURVE",
"755 424 OFFCURVE",
"630 424 CURVE SMOOTH",
"561 424 OFFCURVE",
"535 393 OFFCURVE",
"535 364 CURVE SMOOTH",
"535 339 OFFCURVE",
"554 316 OFFCURVE",
"581 316 CURVE SMOOTH",
"625 316 OFFCURVE",
"621 347 OFFCURVE",
"664 347 CURVE SMOOTH",
"706 347 OFFCURVE",
"735 316 OFFCURVE",
"735 271 CURVE SMOOTH",
"735 216 OFFCURVE",
"693 179 OFFCURVE",
"630 179 CURVE SMOOTH",
"518 179 OFFCURVE",
"484 268 OFFCURVE",
"461 312 CURVE SMOOTH",
"454 325 OFFCURVE",
"448 336 OFFCURVE",
"433 336 CURVE SMOOTH",
"418 336 OFFCURVE",
"412 325 OFFCURVE",
"405 312 CURVE SMOOTH",
"382 268 OFFCURVE",
"348 186 OFFCURVE",
"256 186 CURVE SMOOTH",
"220 186 OFFCURVE",
"199 205 OFFCURVE",
"199 236 CURVE SMOOTH",
"199 313 OFFCURVE",
"358 342 OFFCURVE",
"358 471 CURVE SMOOTH",
"358 561 OFFCURVE",
"306 623 OFFCURVE",
"207 623 CURVE SMOOTH",
"109 623 OFFCURVE",
"48 554 OFFCURVE",
"48 473 CURVE SMOOTH",
"48 436 OFFCURVE",
"58 378 OFFCURVE",
"97 378 CURVE SMOOTH",
"115 378 OFFCURVE",
"131 391 OFFCURVE",
"129 415 CURVE SMOOTH",
"125 463 OFFCURVE",
"154 503 OFFCURVE",
"206 503 CURVE SMOOTH",
"250 503 OFFCURVE",
"274 481 OFFCURVE",
"274 443 CURVE SMOOTH",
"274 361 OFFCURVE",
"51 317 OFFCURVE",
"51 151 CURVE SMOOTH",
"51 62 OFFCURVE",
"114 -8 OFFCURVE",
"228 -8 CURVE SMOOTH"
);
}
);
width = 859;
},
{
associatedMasterId = UUID0;
layerId = "C90CA5D6-FC96-4023-9580-EB43D59E2A9B";
name = "Bold Aug 8 15, 12:49";
paths = (
{
closed = 1;
nodes = (
"364 -8 OFFCURVE",
"455 121 OFFCURVE",
"455 253 CURVE",
"411 253 LINE",
"411 121 OFFCURVE",
"491 -8 OFFCURVE",
"617 -8 CURVE SMOOTH",
"746 -8 OFFCURVE",
"821 89 OFFCURVE",
"821 211 CURVE SMOOTH",
"821 318 OFFCURVE",
"755 424 OFFCURVE",
"630 424 CURVE SMOOTH",
"566 424 OFFCURVE",
"540 391 OFFCURVE",
"540 361 CURVE SMOOTH",
"540 336 OFFCURVE",
"560 316 OFFCURVE",
"585 316 CURVE SMOOTH",
"625 316 OFFCURVE",
"626 347 OFFCURVE",
"669 347 CURVE SMOOTH",
"704 347 OFFCURVE",
"732 311 OFFCURVE",
"732 273 CURVE SMOOTH",
"732 219 OFFCURVE",
"695 192 OFFCURVE",
"620 192 CURVE SMOOTH",
"500 192 OFFCURVE",
"484 273 OFFCURVE",
"461 317 CURVE SMOOTH",
"454 330 OFFCURVE",
"448 341 OFFCURVE",
"433 341 CURVE SMOOTH",
"418 341 OFFCURVE",
"412 330 OFFCURVE",
"405 317 CURVE SMOOTH",
"382 273 OFFCURVE",
"348 188 OFFCURVE",
"258 188 CURVE SMOOTH",
"227 188 OFFCURVE",
"199 205 OFFCURVE",
"199 239 CURVE SMOOTH",
"199 318 OFFCURVE",
"358 340 OFFCURVE",
"358 471 CURVE SMOOTH",
"358 561 OFFCURVE",
"306 623 OFFCURVE",
"207 623 CURVE SMOOTH",
"109 623 OFFCURVE",
"48 554 OFFCURVE",
"48 473 CURVE SMOOTH",
"48 436 OFFCURVE",
"58 378 OFFCURVE",
"97 378 CURVE SMOOTH",
"115 378 OFFCURVE",
"131 391 OFFCURVE",
"129 415 CURVE SMOOTH",
"125 463 OFFCURVE",
"154 503 OFFCURVE",
"206 503 CURVE SMOOTH",
"250 503 OFFCURVE",
"274 481 OFFCURVE",
"274 443 CURVE SMOOTH",
"274 361 OFFCURVE",
"51 317 OFFCURVE",
"51 151 CURVE SMOOTH",
"51 62 OFFCURVE",
"114 -8 OFFCURVE",
"228 -8 CURVE SMOOTH"
);
}
);
width = 859;
}
);
unicode = 0C92;
},
{
glyphname = knOO;
lastChange = "2015-10-08 10:19:29 +0000";
layers = (
{
background = {
paths = (
{
closed = 1;
nodes = (
"256 587 LINE",
"213 601 OFFCURVE",
"189 643 OFFCURVE",
"189 678 CURVE SMOOTH",
"189 714 OFFCURVE",
"212 740 OFFCURVE",
"251 740 CURVE SMOOTH",
"300 740 OFFCURVE",
"323 707 OFFCURVE",
"322 665 CURVE SMOOTH",
"321 648 OFFCURVE",
"320 632 OFFCURVE",
"339 632 CURVE SMOOTH",
"364 632 OFFCURVE",
"367 669 OFFCURVE",
"367 696 CURVE SMOOTH",
"367 758 OFFCURVE",
"321 808 OFFCURVE",
"252 808 CURVE SMOOTH",
"181 808 OFFCURVE",
"133 761 OFFCURVE",
"133 699 CURVE SMOOTH",
"133 650 OFFCURVE",
"163 599 OFFCURVE",
"222 579 CURVE"
);
}
);
};
layerId = "5E0B1C78-70A4-47D0-8E94-4E97FBB7DD03";
name = Light;
paths = (
{
closed = 1;
nodes = (
"353 -7 OFFCURVE",
"435 110 OFFCURVE",
"435 206 CURVE",
"421 206 LINE",
"421 110 OFFCURVE",
"523 -7 OFFCURVE",
"637 -7 CURVE SMOOTH",
"753 -7 OFFCURVE",
"811 83 OFFCURVE",
"811 172 CURVE SMOOTH",
"811 260 OFFCURVE",
"755 347 OFFCURVE",
"643 347 CURVE",
"601 347 OFFCURVE",
"544 337 OFFCURVE",
"544 293 CURVE",
"544 275 OFFCURVE",
"563 260 OFFCURVE",
"581 260 CURVE",
"621 260 OFFCURVE",
"632 288 OFFCURVE",
"666 288 CURVE",
"714 288 OFFCURVE",
"742 243 OFFCURVE",
"742 197 CURVE SMOOTH",
"742 146 OFFCURVE",
"709 93 OFFCURVE",
"636 93 CURVE SMOOTH",
"531 93 OFFCURVE",
"479 184 OFFCURVE",
"456 228 CURVE SMOOTH",
"449 241 OFFCURVE",
"443 252 OFFCURVE",
"428 252 CURVE SMOOTH",
"413 252 OFFCURVE",
"407 241 OFFCURVE",
"400 228 CURVE SMOOTH",
"377 184 OFFCURVE",
"338 93 OFFCURVE",
"224 93 CURVE SMOOTH",
"168 93 OFFCURVE",
"141 117 OFFCURVE",
"141 159 CURVE SMOOTH",
"141 278 OFFCURVE",
"346 291 OFFCURVE",
"346 449 CURVE SMOOTH",
"346 538 OFFCURVE",
"283 597 OFFCURVE",
"201 597 CURVE SMOOTH",
"112 597 OFFCURVE",
"58 533 OFFCURVE",
"58 458 CURVE SMOOTH",
"58 424 OFFCURVE",
"62 379 OFFCURVE",
"93 379 CURVE SMOOTH",
"119 379 OFFCURVE",
"115 402 OFFCURVE",
"115 425 CURVE SMOOTH",
"115 470 OFFCURVE",
"144 514 OFFCURVE",
"203 514 CURVE SMOOTH",
"255 514 OFFCURVE",
"289 489 OFFCURVE",
"289 442 CURVE SMOOTH",
"289 312 OFFCURVE",
"59 301 OFFCURVE",
"59 134 CURVE SMOOTH",
"59 51 OFFCURVE",
"120 -7 OFFCURVE",
"219 -7 CURVE SMOOTH"
);
},
{
closed = 1;
nodes = (
"259 586 LINE",
"223 596 OFFCURVE",
"205 622 OFFCURVE",
"205 646 CURVE SMOOTH",
"205 670 OFFCURVE",
"224 691 OFFCURVE",
"260 691 CURVE SMOOTH",
"300 691 OFFCURVE",
"310 679 OFFCURVE",
"344 679 CURVE SMOOTH",
"367 679 OFFCURVE",
"383 698 OFFCURVE",
"383 718 CURVE SMOOTH",
"383 751 OFFCURVE",
"348 768 OFFCURVE",
"306 768 CURVE SMOOTH",
"235 768 OFFCURVE",
"165 729 OFFCURVE",
"165 656 CURVE SMOOTH",
"165 614 OFFCURVE",
"194 574 OFFCURVE",
"236 572 CURVE"
);
}
);
width = 872;
},
{
background = {
paths = (
{
closed = 1;
nodes = (
"265 606 LINE",
"199 623 OFFCURVE",
"206 702 OFFCURVE",
"271 702 CURVE SMOOTH",
"304 702 OFFCURVE",
"309 692 OFFCURVE",
"334 692 CURVE SMOOTH",
"373 692 OFFCURVE",
"397 713 OFFCURVE",
"397 749 CURVE SMOOTH",
"397 797 OFFCURVE",
"350 822 OFFCURVE",
"296 822 CURVE SMOOTH",
"125 822 OFFCURVE",
"109 594 OFFCURVE",
"267 578 CURVE"
);
}
);
};
layerId = UUID0;
name = Bold;
paths = (
{
closed = 1;
nodes = (
"364 -8 OFFCURVE",
"455 121 OFFCURVE",
"455 253 CURVE",
"411 253 LINE",
"411 121 OFFCURVE",
"491 -8 OFFCURVE",
"617 -8 CURVE SMOOTH",
"746 -8 OFFCURVE",
"821 89 OFFCURVE",
"821 211 CURVE SMOOTH",
"821 318 OFFCURVE",
"755 424 OFFCURVE",
"630 424 CURVE SMOOTH",
"561 424 OFFCURVE",
"535 393 OFFCURVE",
"535 364 CURVE SMOOTH",
"535 339 OFFCURVE",
"554 316 OFFCURVE",
"581 316 CURVE SMOOTH",
"625 316 OFFCURVE",
"621 347 OFFCURVE",
"664 347 CURVE SMOOTH",
"706 347 OFFCURVE",
"735 316 OFFCURVE",
"735 271 CURVE SMOOTH",
"735 216 OFFCURVE",
"693 179 OFFCURVE",
"630 179 CURVE SMOOTH",
"518 179 OFFCURVE",
"484 268 OFFCURVE",
"461 312 CURVE SMOOTH",
"454 325 OFFCURVE",
"448 336 OFFCURVE",
"433 336 CURVE SMOOTH",
"418 336 OFFCURVE",
"412 325 OFFCURVE",
"405 312 CURVE SMOOTH",
"382 268 OFFCURVE",
"348 186 OFFCURVE",
"256 186 CURVE SMOOTH",
"220 186 OFFCURVE",
"199 205 OFFCURVE",
"199 236 CURVE SMOOTH",
"199 313 OFFCURVE",
"358 342 OFFCURVE",
"358 471 CURVE SMOOTH",
"358 561 OFFCURVE",
"306 623 OFFCURVE",
"207 623 CURVE SMOOTH",
"109 623 OFFCURVE",
"48 554 OFFCURVE",
"48 473 CURVE SMOOTH",
"48 436 OFFCURVE",
"58 378 OFFCURVE",
"97 378 CURVE SMOOTH",
"115 378 OFFCURVE",
"131 391 OFFCURVE",
"129 415 CURVE SMOOTH",
"125 463 OFFCURVE",
"154 503 OFFCURVE",
"206 503 CURVE SMOOTH",
"250 503 OFFCURVE",
"274 481 OFFCURVE",
"274 443 CURVE SMOOTH",
"274 361 OFFCURVE",
"51 317 OFFCURVE",
"51 151 CURVE SMOOTH",
"51 62 OFFCURVE",
"114 -8 OFFCURVE",
"228 -8 CURVE SMOOTH"
);
},
{
closed = 1;
nodes = (
"279 609 LINE",
"250 621 OFFCURVE",
"235 643 OFFCURVE",
"235 663 CURVE SMOOTH",
"235 683 OFFCURVE",
"251 700 OFFCURVE",
"284 700 CURVE SMOOTH",
"307 700 OFFCURVE",
"318 690 OFFCURVE",
"347 690 CURVE SMOOTH",
"385 690 OFFCURVE",
"406 716 OFFCURVE",
"406 743 CURVE SMOOTH",
"406 775 OFFCURVE",
"379 810 OFFCURVE",
"319 810 CURVE SMOOTH",
"226 810 OFFCURVE",
"178 749 OFFCURVE",
"178 690 CURVE SMOOTH",
"178 641 OFFCURVE",
"211 592 OFFCURVE",
"280 582 CURVE"
);
}
);
width = 859;
}
);
unicode = 0C93;
},
{
glyphname = knAU;
lastChange = "2015-10-08 10:19:29 +0000";
layers = (
{
background = {
paths = (
{
closed = 0;
nodes = (
"179 159 LINE SMOOTH",
"179 278 OFFCURVE",
"384 291 OFFCURVE",
"384 449 CURVE SMOOTH",
"384 538 OFFCURVE",
"321 597 OFFCURVE",
"239 597 CURVE SMOOTH",
"150 597 OFFCURVE",
"96 533 OFFCURVE",
"96 458 CURVE SMOOTH",
"96 424 OFFCURVE",
"100 379 OFFCURVE",
"131 379 CURVE SMOOTH",
"155 379 OFFCURVE",
"154 399 OFFCURVE",
"153 420 CURVE SMOOTH",
"151 467 OFFCURVE",
"180 514 OFFCURVE",
"241 514 CURVE SMOOTH",
"293 514 OFFCURVE",
"327 489 OFFCURVE",
"327 442 CURVE SMOOTH",
"327 312 OFFCURVE",
"97 301 OFFCURVE",
"97 134 CURVE SMOOTH"
);
}
);
};
layerId = "5E0B1C78-70A4-47D0-8E94-4E97FBB7DD03";
name = Light;
paths = (
{
closed = 1;
nodes = (
"391 -7 OFFCURVE",
"483 110 OFFCURVE",
"483 206 CURVE",
"469 206 LINE",
"469 110 OFFCURVE",
"561 -7 OFFCURVE",
"685 -7 CURVE SMOOTH",
"795 -7 OFFCURVE",
"862 80 OFFCURVE",
"862 172 CURVE SMOOTH",
"862 232 OFFCURVE",
"826 304 OFFCURVE",
"790 304 CURVE SMOOTH",
"777 304 OFFCURVE",
"767 295 OFFCURVE",
"767 282 CURVE SMOOTH",
"767 263 OFFCURVE",
"794 245 OFFCURVE",
"794 198 CURVE SMOOTH",
"794 128 OFFCURVE",
"752 93 OFFCURVE",
"676 93 CURVE SMOOTH",
"569 93 OFFCURVE",
"527 184 OFFCURVE",
"504 228 CURVE SMOOTH",
"497 241 OFFCURVE",
"491 252 OFFCURVE",
"476 252 CURVE SMOOTH",
"461 252 OFFCURVE",
"455 241 OFFCURVE",
"448 228 CURVE SMOOTH",
"425 184 OFFCURVE",
"376 93 OFFCURVE",
"262 93 CURVE SMOOTH",
"206 93 OFFCURVE",
"179 117 OFFCURVE",
"179 159 CURVE SMOOTH",
"179 277 OFFCURVE",
"384 291 OFFCURVE",
"384 449 CURVE SMOOTH",
"384 538 OFFCURVE",
"321 591 OFFCURVE",
"239 591 CURVE SMOOTH",
"150 591 OFFCURVE",
"96 533 OFFCURVE",
"96 458 CURVE SMOOTH",
"96 424 OFFCURVE",
"100 379 OFFCURVE",
"131 379 CURVE SMOOTH",
"157 379 OFFCURVE",
"153 402 OFFCURVE",
"153 425 CURVE SMOOTH",
"153 470 OFFCURVE",
"182 514 OFFCURVE",
"241 514 CURVE SMOOTH",
"293 514 OFFCURVE",
"327 489 OFFCURVE",
"327 442 CURVE SMOOTH",
"327 312 OFFCURVE",
"97 301 OFFCURVE",
"97 134 CURVE SMOOTH",
"97 51 OFFCURVE",
"158 -7 OFFCURVE",
"257 -7 CURVE SMOOTH"
);
},
{
closed = 1;
nodes = (
"791 371 OFFCURVE",
"862 471 OFFCURVE",
"862 576 CURVE SMOOTH",
"862 712 OFFCURVE",
"763 808 OFFCURVE",
"598 808 CURVE SMOOTH",
"106 808 LINE SMOOTH",
"78 808 OFFCURVE",
"58 793 OFFCURVE",
"58 767 CURVE SMOOTH",
"58 743 OFFCURVE",
"78 727 OFFCURVE",
"106 727 CURVE SMOOTH",
"343 727 LINE SMOOTH",
"441 727 OFFCURVE",
"445 601 OFFCURVE",
"344 601 CURVE SMOOTH",
"94 601 LINE SMOOTH",
"74 601 OFFCURVE",
"58 591 OFFCURVE",
"58 576 CURVE SMOOTH",
"58 560 OFFCURVE",
"76 551 OFFCURVE",
"95 551 CURVE SMOOTH",
"338 551 LINE SMOOTH",
"500 551 OFFCURVE",
"496 720 OFFCURVE",
"413 744 CURVE",
"411 726 LINE",
"588 726 LINE SMOOTH",
"719 726 OFFCURVE",
"800 686 OFFCURVE",
"800 565 CURVE SMOOTH",
"800 495 OFFCURVE",
"747 428 OFFCURVE",
"651 428 CURVE SMOOTH",
"571 428 OFFCURVE",
"538 476 OFFCURVE",
"538 516 CURVE SMOOTH",
"538 546 OFFCURVE",
"556 572 OFFCURVE",
"587 572 CURVE SMOOTH",
"620 572 OFFCURVE",
"641 560 OFFCURVE",
"670 560 CURVE SMOOTH",
"696 560 OFFCURVE",
"713 579 OFFCURVE",
"713 599 CURVE SMOOTH",
"713 621 OFFCURVE",
"693 644 OFFCURVE",
"647 644 CURVE SMOOTH",
"538 644 OFFCURVE",
"484 578 OFFCURVE",
"484 511 CURVE SMOOTH",
"484 442 OFFCURVE",
"542 371 OFFCURVE",
"657 371 CURVE SMOOTH"
);
}
);
width = 910;
},
{
background = {
paths = (
{
closed = 1;
nodes = (
"406 -8 OFFCURVE",
"497 121 OFFCURVE",
"497 253 CURVE",
"453 253 LINE",
"453 121 OFFCURVE",
"533 -8 OFFCURVE",
"659 -8 CURVE SMOOTH",
"788 -8 OFFCURVE",
"863 89 OFFCURVE",
"863 211 CURVE SMOOTH",
"863 318 OFFCURVE",
"797 424 OFFCURVE",
"672 424 CURVE SMOOTH",
"544 424 OFFCURVE",
"564 316 OFFCURVE",
"623 316 CURVE SMOOTH",
"667 316 OFFCURVE",
"663 347 OFFCURVE",
"706 347 CURVE SMOOTH",
"748 347 OFFCURVE",
"777 316 OFFCURVE",
"777 271 CURVE SMOOTH",
"777 216 OFFCURVE",
"735 179 OFFCURVE",
"672 179 CURVE SMOOTH",
"560 179 OFFCURVE",
"526 268 OFFCURVE",
"503 312 CURVE SMOOTH",
"496 325 OFFCURVE",
"490 336 OFFCURVE",
"475 336 CURVE SMOOTH",
"460 336 OFFCURVE",
"454 325 OFFCURVE",
"447 312 CURVE SMOOTH",
"424 268 OFFCURVE",
"390 186 OFFCURVE",
"298 186 CURVE SMOOTH",
"262 186 OFFCURVE",
"241 205 OFFCURVE",
"241 236 CURVE SMOOTH",
"241 313 OFFCURVE",
"400 342 OFFCURVE",
"400 471 CURVE SMOOTH",
"400 561 OFFCURVE",
"348 623 OFFCURVE",
"249 623 CURVE SMOOTH",
"151 623 OFFCURVE",
"90 554 OFFCURVE",
"90 473 CURVE SMOOTH",
"90 436 OFFCURVE",
"100 378 OFFCURVE",
"139 378 CURVE SMOOTH",
"157 378 OFFCURVE",
"173 391 OFFCURVE",
"171 415 CURVE SMOOTH",
"167 463 OFFCURVE",
"196 503 OFFCURVE",
"248 503 CURVE SMOOTH",
"292 503 OFFCURVE",
"316 481 OFFCURVE",
"316 443 CURVE SMOOTH",
"316 361 OFFCURVE",
"93 317 OFFCURVE",
"93 151 CURVE SMOOTH",
"93 62 OFFCURVE",
"156 -8 OFFCURVE",
"270 -8 CURVE SMOOTH"
);
}
);
};
layerId = UUID0;
name = Bold;
paths = (
{
closed = 1;
nodes = (
"406 -8 OFFCURVE",
"497 121 OFFCURVE",
"497 253 CURVE",
"453 253 LINE",
"453 121 OFFCURVE",
"533 -8 OFFCURVE",
"669 -8 CURVE SMOOTH",
"796 -8 OFFCURVE",
"861 94 OFFCURVE",
"861 196 CURVE SMOOTH",
"861 258 OFFCURVE",
"821 349 OFFCURVE",
"782 349 CURVE SMOOTH",
"767 349 OFFCURVE",
"757 339 OFFCURVE",
"757 324 CURVE SMOOTH",
"757 307 OFFCURVE",
"769 292 OFFCURVE",
"769 268 CURVE SMOOTH",
"769 215 OFFCURVE",
"734 180 OFFCURVE",
"671 179 CURVE SMOOTH",
"560 178 OFFCURVE",
"526 268 OFFCURVE",
"503 312 CURVE SMOOTH",
"496 325 OFFCURVE",
"490 336 OFFCURVE",
"475 336 CURVE SMOOTH",
"460 336 OFFCURVE",
"454 325 OFFCURVE",
"447 312 CURVE SMOOTH",
"424 268 OFFCURVE",
"390 186 OFFCURVE",
"299 186 CURVE SMOOTH",
"269 186 OFFCURVE",
"241 201 OFFCURVE",
"241 235 CURVE SMOOTH",
"241 313 OFFCURVE",
"400 340 OFFCURVE",
"400 471 CURVE SMOOTH",
"400 559 OFFCURVE",
"348 623 OFFCURVE",
"249 623 CURVE SMOOTH",
"151 623 OFFCURVE",
"90 554 OFFCURVE",
"90 473 CURVE SMOOTH",
"90 436 OFFCURVE",
"100 378 OFFCURVE",
"139 378 CURVE SMOOTH",
"157 378 OFFCURVE",
"173 391 OFFCURVE",
"171 415 CURVE SMOOTH",
"167 463 OFFCURVE",
"196 503 OFFCURVE",
"248 503 CURVE SMOOTH",
"292 503 OFFCURVE",
"316 481 OFFCURVE",
"316 442 CURVE SMOOTH",
"316 362 OFFCURVE",
"93 317 OFFCURVE",
"93 151 CURVE SMOOTH",
"93 62 OFFCURVE",
"156 -8 OFFCURVE",
"270 -8 CURVE SMOOTH"
);
},
{
closed = 1;
nodes = (
"798 364 OFFCURVE",
"861 476 OFFCURVE",
"861 590 CURVE SMOOTH",
"861 712 OFFCURVE",
"783 838 OFFCURVE",
"612 838 CURVE SMOOTH",
"113 838 LINE SMOOTH",
"77 838 OFFCURVE",
"48 816 OFFCURVE",
"48 781 CURVE SMOOTH",
"48 743 OFFCURVE",
"77 724 OFFCURVE",
"113 724 CURVE SMOOTH",
"338 724 LINE SMOOTH",
"413 724 OFFCURVE",
"416 623 OFFCURVE",
"338 623 CURVE SMOOTH",
"96 623 LINE SMOOTH",
"67 623 OFFCURVE",
"52 606 OFFCURVE",
"52 588 CURVE SMOOTH",
"52 571 OFFCURVE",
"67 553 OFFCURVE",
"96 553 CURVE SMOOTH",
"324 553 LINE SMOOTH",
"464 553 OFFCURVE",
"488 677 OFFCURVE",
"434 748 CURVE",
"405 724 LINE",
"632 724 LINE SMOOTH",
"741 724 OFFCURVE",
"796 659 OFFCURVE",
"796 597 CURVE SMOOTH",
"796 543 OFFCURVE",
"753 492 OFFCURVE",
"669 492 CURVE SMOOTH",
"593 492 OFFCURVE",
"566 525 OFFCURVE",
"566 554 CURVE SMOOTH",
"566 575 OFFCURVE",
"581 593 OFFCURVE",
"601 593 CURVE SMOOTH",
"644 593 OFFCURVE",
"640 562 OFFCURVE",
"684 562 CURVE SMOOTH",
"711 562 OFFCURVE",
"730 585 OFFCURVE",
"730 610 CURVE SMOOTH",
"730 639 OFFCURVE",
"704 670 OFFCURVE",
"635 670 CURVE SMOOTH",
"548 670 OFFCURVE",
"499 597 OFFCURVE",
"499 523 CURVE SMOOTH",
"499 446 OFFCURVE",
"558 364 OFFCURVE",
"667 364 CURVE SMOOTH"
);
}
);
width = 899;
}
);
unicode = 0C94;
},
{
color = 8;
glyphname = knmAA;
lastChange = "2015-12-28 04:48:06 +0000";
layers = (
{
background = {
paths = (
{
closed = 1;
nodes = (
"412 -8 OFFCURVE",
"485 136 OFFCURVE",
"485 286 CURVE SMOOTH",
"485 451 OFFCURVE",
"397 623 OFFCURVE",
"203 623 CURVE SMOOTH",
"-74 623 LINE SMOOTH",
"-127 623 OFFCURVE",
"-154 586 OFFCURVE",
"-154 550 CURVE SMOOTH",
"-154 513 OFFCURVE",
"-127 477 OFFCURVE",
"-74 477 CURVE SMOOTH",
"255 477 LINE SMOOTH",
"360 477 OFFCURVE",
"419 390 OFFCURVE",
"419 310 CURVE SMOOTH",
"419 241 OFFCURVE",
"375 177 OFFCURVE",
"279 177 CURVE SMOOTH",
"198 177 OFFCURVE",
"170 221 OFFCURVE",
"170 255 CURVE SMOOTH",
"170 280 OFFCURVE",
"186 303 OFFCURVE",
"214 303 CURVE SMOOTH",
"257 303 OFFCURVE",
"253 272 OFFCURVE",
"297 272 CURVE SMOOTH",
"324 272 OFFCURVE",
"343 295 OFFCURVE",
"343 320 CURVE SMOOTH",
"343 349 OFFCURVE",
"317 380 OFFCURVE",
"248 380 CURVE SMOOTH",
"137 380 OFFCURVE",
"80 289 OFFCURVE",
"80 195 CURVE SMOOTH",
"80 95 OFFCURVE",
"145 -8 OFFCURVE",
"279 -8 CURVE SMOOTH"
);
}
);
};
layerId = UUID0;
name = Bold;
paths = (
{
closed = 1;
nodes = (
"370 -8 OFFCURVE",
"443 136 OFFCURVE",
"443 286 CURVE SMOOTH",
"443 451 OFFCURVE",
"355 623 OFFCURVE",
"161 623 CURVE SMOOTH",
"-194 623 LINE SMOOTH",
"-247 623 OFFCURVE",
"-274 586 OFFCURVE",
"-274 550 CURVE SMOOTH",
"-274 513 OFFCURVE",
"-247 477 OFFCURVE",
"-194 477 CURVE SMOOTH",
"213 477 LINE SMOOTH",
"318 477 OFFCURVE",
"377 390 OFFCURVE",
"377 310 CURVE SMOOTH",
"377 241 OFFCURVE",
"333 177 OFFCURVE",
"237 177 CURVE SMOOTH",
"156 177 OFFCURVE",
"128 221 OFFCURVE",
"128 255 CURVE SMOOTH",
"128 280 OFFCURVE",
"144 303 OFFCURVE",
"172 303 CURVE SMOOTH",
"215 303 OFFCURVE",
"211 272 OFFCURVE",
"255 272 CURVE SMOOTH",
"282 272 OFFCURVE",
"301 295 OFFCURVE",
"301 320 CURVE SMOOTH",
"301 349 OFFCURVE",
"275 380 OFFCURVE",
"206 380 CURVE SMOOTH",
"95 380 OFFCURVE",
"38 289 OFFCURVE",
"38 195 CURVE SMOOTH",
"38 95 OFFCURVE",
"103 -8 OFFCURVE",
"237 -8 CURVE SMOOTH"
);
}
);
width = 481;
},
{
background = {
paths = (
{
closed = 1;
nodes = (
"413 -113 OFFCURVE",
"413 276 CURVE SMOOTH",
"413 468 OFFCURVE",
"311 592 OFFCURVE",
"131 592 CURVE SMOOTH",
"-179 592 LINE SMOOTH",
"-214 592 OFFCURVE",
"-232 571 OFFCURVE",
"-232 550 CURVE SMOOTH",
"-232 529 OFFCURVE",
"-214 508 OFFCURVE",
"-179 508 CURVE SMOOTH",
"132 508 LINE SMOOTH",
"259 508 OFFCURVE",
"361 439 OFFCURVE",
"361 288 CURVE SMOOTH",
"361 28 OFFCURVE",
"37 60 OFFCURVE",
"37 200 CURVE SMOOTH",
"37 238 OFFCURVE",
"59 271 OFFCURVE",
"92 271 CURVE SMOOTH",
"125 271 OFFCURVE",
"146 259 OFFCURVE",
"175 259 CURVE SMOOTH",
"201 259 OFFCURVE",
"218 278 OFFCURVE",
"218 298 CURVE SMOOTH",
"218 320 OFFCURVE",
"198 343 OFFCURVE",
"152 343 CURVE SMOOTH",
"36 343 OFFCURVE",
"-20 262 OFFCURVE",
"-20 177 CURVE SMOOTH",
"-20 -55 OFFCURVE"
);
},
{
closed = 1;
nodes = (
"1224 383 OFFCURVE",
"1295 483 OFFCURVE",
"1295 588 CURVE SMOOTH",
"1295 724 OFFCURVE",
"1196 820 OFFCURVE",
"1031 820 CURVE SMOOTH",
"536 820 LINE SMOOTH",
"508 820 OFFCURVE",
"488 805 OFFCURVE",
"488 779 CURVE SMOOTH",
"488 755 OFFCURVE",
"508 739 OFFCURVE",
"536 739 CURVE SMOOTH",
"735 739 LINE SMOOTH",
"833 739 OFFCURVE",
"837 613 OFFCURVE",
"736 613 CURVE SMOOTH",
"524 613 LINE SMOOTH",
"504 613 OFFCURVE",
"488 603 OFFCURVE",
"488 588 CURVE SMOOTH",
"488 572 OFFCURVE",
"506 563 OFFCURVE",
"525 563 CURVE SMOOTH",
"730 563 LINE SMOOTH",
"892 563 OFFCURVE",
"888 732 OFFCURVE",
"805 756 CURVE",
"803 738 LINE",
"1021 738 LINE SMOOTH",
"1152 738 OFFCURVE",
"1233 698 OFFCURVE",
"1233 577 CURVE SMOOTH",
"1233 507 OFFCURVE",
"1180 440 OFFCURVE",
"1084 440 CURVE SMOOTH",
"1004 440 OFFCURVE",
"971 488 OFFCURVE",
"971 528 CURVE SMOOTH",
"971 558 OFFCURVE",
"989 584 OFFCURVE",
"1020 584 CURVE SMOOTH",
"1053 584 OFFCURVE",
"1074 572 OFFCURVE",
"1103 572 CURVE SMOOTH",
"1129 572 OFFCURVE",
"1146 591 OFFCURVE",
"1146 611 CURVE SMOOTH",
"1146 633 OFFCURVE",
"1126 656 OFFCURVE",
"1080 656 CURVE SMOOTH",
"971 656 OFFCURVE",
"917 590 OFFCURVE",
"917 523 CURVE SMOOTH",
"917 454 OFFCURVE",
"975 383 OFFCURVE",
"1090 383 CURVE SMOOTH"
);
}
);
};
guideLines = (
{
position = "{-113, 93}";
}
);
layerId = "5E0B1C78-70A4-47D0-8E94-4E97FBB7DD03";
name = Light;
paths = (
{
closed = 1;
nodes = (
"333 -7 OFFCURVE",
"403 146 OFFCURVE",
"403 276 CURVE SMOOTH",
"403 468 OFFCURVE",
"301 592 OFFCURVE",
"131 592 CURVE SMOOTH",
"-239 592 LINE SMOOTH",
"-274 592 OFFCURVE",
"-292 571 OFFCURVE",
"-292 550 CURVE SMOOTH",
"-292 529 OFFCURVE",
"-274 508 OFFCURVE",
"-239 508 CURVE SMOOTH",
"132 508 LINE SMOOTH",
"263 508 OFFCURVE",
"351 439 OFFCURVE",
"351 288 CURVE SMOOTH",
"351 190 OFFCURVE",
"303 93 OFFCURVE",
"174 93 CURVE SMOOTH",
"96 93 OFFCURVE",
"37 135 OFFCURVE",
"37 200 CURVE SMOOTH",
"37 238 OFFCURVE",
"59 271 OFFCURVE",
"92 271 CURVE SMOOTH",
"125 271 OFFCURVE",
"146 259 OFFCURVE",
"175 259 CURVE SMOOTH",
"201 259 OFFCURVE",
"218 278 OFFCURVE",
"218 298 CURVE SMOOTH",
"218 320 OFFCURVE",
"198 343 OFFCURVE",
"152 343 CURVE SMOOTH",
"36 343 OFFCURVE",
"-20 262 OFFCURVE",
"-20 177 CURVE SMOOTH",
"-20 65 OFFCURVE",
"70 -7 OFFCURVE",
"178 -7 CURVE SMOOTH"
);
}
);
width = 451;
}
);
unicode = 0CBE;
},
{
color = 10;
glyphname = knmI;
lastChange = "2015-12-28 04:47:49 +0000";
layers = (
{
background = {
paths = (
{
closed = 1;
nodes = (
"300 555 OFFCURVE",
"360 653 OFFCURVE",
"360 749 CURVE SMOOTH",
"360 841 OFFCURVE",
"305 931 OFFCURVE",
"191 931 CURVE SMOOTH",
"-10 931 OFFCURVE",
"-11 657 OFFCURVE",
"191 657 CURVE SMOOTH",
"264 657 OFFCURVE",
"300 694 OFFCURVE",
"316 725 CURVE",
"296 730 LINE",
"296 727 OFFCURVE",
"296 724 OFFCURVE",
"296 720 CURVE SMOOTH",
"296 657 OFFCURVE",
"255 609 OFFCURVE",
"178 609 CURVE SMOOTH",
"146 609 OFFCURVE",
"126 615 OFFCURVE",
"113 621 CURVE SMOOTH",
"89 631 OFFCURVE",
"70 622 OFFCURVE",
"69 605 CURVE SMOOTH",
"68 593 OFFCURVE",
"74 584 OFFCURVE",
"86 576 CURVE SMOOTH",
"101 566 OFFCURVE",
"130 555 OFFCURVE",
"180 555 CURVE SMOOTH"
);
},
{
closed = 1;
nodes = (
"123 717 OFFCURVE",
"89 754 OFFCURVE",
"89 791 CURVE SMOOTH",
"89 827 OFFCURVE",
"123 864 OFFCURVE",
"191 864 CURVE SMOOTH",
"259 864 OFFCURVE",
"293 827 OFFCURVE",
"293 790 CURVE SMOOTH",
"293 754 OFFCURVE",
"259 717 OFFCURVE",
"191 717 CURVE SMOOTH"
);
}
);
};
layerId = "5E0B1C78-70A4-47D0-8E94-4E97FBB7DD03";
name = Light;
paths = (
{
closed = 1;
nodes = (
"301 552 OFFCURVE",
"362 650 OFFCURVE",
"362 746 CURVE SMOOTH",
"362 839 OFFCURVE",
"305 931 OFFCURVE",
"191 931 CURVE SMOOTH",
"90 931 OFFCURVE",
"40 863 OFFCURVE",
"40 794 CURVE SMOOTH",
"40 726 OFFCURVE",
"90 657 OFFCURVE",
"191 657 CURVE SMOOTH",
"264 657 OFFCURVE",
"306 694 OFFCURVE",
"314 733 CURVE",
"300 734 LINE",
"300 727 OFFCURVE",
"300 720 OFFCURVE",
"300 713 CURVE SMOOTH",
"300 654 OFFCURVE",
"246 609 OFFCURVE",
"178 609 CURVE SMOOTH",
"146 609 OFFCURVE",
"126 615 OFFCURVE",
"113 621 CURVE SMOOTH",
"106 624 OFFCURVE",
"100 625 OFFCURVE",
"94 625 CURVE SMOOTH",
"79 625 OFFCURVE",
"69 616 OFFCURVE",
"69 603 CURVE SMOOTH",
"69 571 OFFCURVE",
"124 552 OFFCURVE",
"180 552 CURVE SMOOTH"
);
},
{
closed = 1;
nodes = (
"128 718 OFFCURVE",
"96 754 OFFCURVE",
"96 791 CURVE SMOOTH",
"96 827 OFFCURVE",
"128 863 OFFCURVE",
"191 863 CURVE SMOOTH",
"259 863 OFFCURVE",
"292 827 OFFCURVE",
"292 791 CURVE SMOOTH",
"292 754 OFFCURVE",
"259 718 OFFCURVE",
"191 718 CURVE SMOOTH"
);
}
);
width = 397;
},
{
background = {
paths = (
{
closed = 1;
nodes = (
"336 554 OFFCURVE",
"402 648 OFFCURVE",
"402 745 CURVE SMOOTH",
"402 846 OFFCURVE",
"329 949 OFFCURVE",
"193 949 CURVE SMOOTH",
"91 949 OFFCURVE",
"38 875 OFFCURVE",
"38 801 CURVE SMOOTH",
"38 728 OFFCURVE",
"90 655 OFFCURVE",
"196 655 CURVE SMOOTH",
"298 655 OFFCURVE",
"364 749 OFFCURVE",
"323 832 CURVE",
"323 804 LINE",
"332 781 OFFCURVE",
"337 759 OFFCURVE",
"337 738 CURVE SMOOTH",
"337 668 OFFCURVE",
"286 615 OFFCURVE",
"195 615 CURVE SMOOTH",
"174 615 OFFCURVE",
"153 618 OFFCURVE",
"130 625 CURVE SMOOTH",
"103 633 OFFCURVE",
"86 617 OFFCURVE",
"86 599 CURVE SMOOTH",
"86 586 OFFCURVE",
"94 573 OFFCURVE",
"115 567 CURVE SMOOTH",
"144 558 OFFCURVE",
"170 554 OFFCURVE",
"196 554 CURVE SMOOTH"
);
},
{
closed = 1;
nodes = (
"141 751 OFFCURVE",
"112 777 OFFCURVE",
"112 803 CURVE SMOOTH",
"112 828 OFFCURVE",
"140 853 OFFCURVE",
"196 853 CURVE SMOOTH",
"252 853 OFFCURVE",
"280 828 OFFCURVE",
"280 803 CURVE SMOOTH",
"280 777 OFFCURVE",
"251 751 OFFCURVE",
"196 751 CURVE SMOOTH"
);
}
);
};
layerId = UUID0;
name = Bold;
paths = (
{
closed = 1;
nodes = (
"336 531 OFFCURVE",
"404 636 OFFCURVE",
"404 742 CURVE SMOOTH",
"404 847 OFFCURVE",
"336 953 OFFCURVE",
"205 953 CURVE SMOOTH",
"107 953 OFFCURVE",
"38 890 OFFCURVE",
"38 795 CURVE SMOOTH",
"38 715 OFFCURVE",
"94 649 OFFCURVE",
"196 649 CURVE SMOOTH",
"285 649 OFFCURVE",
"362 718 OFFCURVE",
"329 804 CURVE",
"305 798 LINE",
"321 772 OFFCURVE",
"328 747 OFFCURVE",
"328 724 CURVE SMOOTH",
"328 650 OFFCURVE",
"271 609 OFFCURVE",
"195 609 CURVE SMOOTH",
"174 609 OFFCURVE",
"153 612 OFFCURVE",
"130 619 CURVE SMOOTH",
"124 621 OFFCURVE",
"118 622 OFFCURVE",
"113 622 CURVE SMOOTH",
"92 622 OFFCURVE",
"80 607 OFFCURVE",
"80 590 CURVE SMOOTH",
"80 550 OFFCURVE",
"142 531 OFFCURVE",
"196 531 CURVE SMOOTH"
);
},
{
closed = 1;
nodes = (
"151 755 OFFCURVE",
"124 779 OFFCURVE",
"124 804 CURVE SMOOTH",
"124 828 OFFCURVE",
"150 851 OFFCURVE",
"203 851 CURVE SMOOTH",
"256 851 OFFCURVE",
"282 828 OFFCURVE",
"282 804 CURVE SMOOTH",
"282 779 OFFCURVE",
"255 755 OFFCURVE",
"203 755 CURVE SMOOTH"
);
}
);
width = 443;
}
);
unicode = 0CBF;
},
{
color = 10;
glyphname = knmII;
lastChange = "2015-12-28 04:47:49 +0000";
layers = (
{
background = {
paths = (
{
closed = 1;
nodes = (
"300 555 OFFCURVE",
"360 653 OFFCURVE",
"360 749 CURVE SMOOTH",
"360 841 OFFCURVE",
"305 931 OFFCURVE",
"191 931 CURVE SMOOTH",
"116 931 OFFCURVE",
"40 885 OFFCURVE",
"40 794 CURVE SMOOTH",
"40 712 OFFCURVE",
"104 657 OFFCURVE",
"191 657 CURVE SMOOTH",
"264 657 OFFCURVE",
"299 700 OFFCURVE",
"331 742 CURVE",
"296 730 LINE",
"296 727 OFFCURVE",
"296 724 OFFCURVE",
"296 720 CURVE SMOOTH",
"296 657 OFFCURVE",
"255 609 OFFCURVE",
"178 609 CURVE SMOOTH",
"146 609 OFFCURVE",
"126 615 OFFCURVE",
"113 621 CURVE SMOOTH",
"89 631 OFFCURVE",
"70 622 OFFCURVE",
"69 605 CURVE SMOOTH",
"68 593 OFFCURVE",
"74 584 OFFCURVE",
"86 576 CURVE SMOOTH",
"101 566 OFFCURVE",
"130 555 OFFCURVE",
"180 555 CURVE SMOOTH"
);
},
{
closed = 1;
nodes = (
"123 717 OFFCURVE",
"89 754 OFFCURVE",
"89 791 CURVE SMOOTH",
"89 827 OFFCURVE",
"123 864 OFFCURVE",
"191 864 CURVE SMOOTH",
"259 864 OFFCURVE",
"293 827 OFFCURVE",
"293 790 CURVE SMOOTH",
"293 754 OFFCURVE",
"259 717 OFFCURVE",
"191 717 CURVE SMOOTH"
);
},
{
closed = 1;
nodes = (
"346 610 OFFCURVE",
"261 398 OFFCURVE",
"261 170 CURVE SMOOTH",
"261 3 OFFCURVE",
"306 -172 OFFCURVE",
"391 -282 CURVE SMOOTH",
"408 -303 OFFCURVE",
"426 -325 OFFCURVE",
"455 -325 CURVE SMOOTH",
"495 -325 OFFCURVE",
"504 -281 OFFCURVE",
"474 -244 CURVE SMOOTH",
"359 -105 OFFCURVE",
"316 21 OFFCURVE",
"316 216 CURVE SMOOTH",
"316 328 OFFCURVE",
"350 518 OFFCURVE",
"473 558 CURVE",
"468 565 LINE",
"416 544 OFFCURVE",
"385 494 OFFCURVE",
"385 440 CURVE SMOOTH",
"385 369 OFFCURVE",
"433 296 OFFCURVE",
"531 296 CURVE SMOOTH",
"630 296 OFFCURVE",
"689 366 OFFCURVE",
"689 452 CURVE SMOOTH",
"689 540 OFFCURVE",
"628 610 OFFCURVE",
"531 610 CURVE"
);
},
{
closed = 1;
nodes = (
"583 518 OFFCURVE",
"623 489 OFFCURVE",
"623 433 CURVE SMOOTH",
"623 383 OFFCURVE",
"583 349 OFFCURVE",
"531 349 CURVE SMOOTH",
"479 349 OFFCURVE",
"439 383 OFFCURVE",
"439 433 CURVE SMOOTH",
"439 487 OFFCURVE",
"479 518 OFFCURVE",
"531 518 CURVE SMOOTH"
);
}
);
};
layerId = "5E0B1C78-70A4-47D0-8E94-4E97FBB7DD03";
name = Light;
paths = (
{
closed = 1;
nodes = (
"538 -7 OFFCURVE",
"571 12 OFFCURVE",
"571 33 CURVE SMOOTH",
"571 48 OFFCURVE",
"552 60 OFFCURVE",
"525 65 CURVE SMOOTH",
"377 93 OFFCURVE",
"315 215 OFFCURVE",
"315 331 CURVE SMOOTH",
"315 417 OFFCURVE",
"354 500 OFFCURVE",
"431 540 CURVE",
"428 565 LINE",
"367 541 OFFCURVE",
"340 490 OFFCURVE",
"340 440 CURVE SMOOTH",
"340 373 OFFCURVE",
"389 307 OFFCURVE",
"475 307 CURVE SMOOTH",
"568 307 OFFCURVE",
"615 378 OFFCURVE",
"615 450 CURVE SMOOTH",
"615 521 OFFCURVE",
"568 592 OFFCURVE",
"475 592 CURVE SMOOTH",
"333 592 OFFCURVE",
"264 456 OFFCURVE",
"264 313 CURVE SMOOTH",
"264 157 OFFCURVE",
"334 -7 OFFCURVE",
"498 -7 CURVE SMOOTH"
);
},
{
closed = 1;
nodes = (
"431 375 OFFCURVE",
"385 399 OFFCURVE",
"385 447 CURVE SMOOTH",
"385 496 OFFCURVE",
"431 520 OFFCURVE",
"476 520 CURVE SMOOTH",
"522 520 OFFCURVE",
"567 496 OFFCURVE",
"567 448 CURVE SMOOTH",
"567 399 OFFCURVE",
"522 375 OFFCURVE",
"476 375 CURVE SMOOTH"
);
},
{
closed = 1;
nodes = (
"301 552 OFFCURVE",
"362 650 OFFCURVE",
"362 746 CURVE SMOOTH",
"362 839 OFFCURVE",
"305 931 OFFCURVE",
"191 931 CURVE SMOOTH",
"90 931 OFFCURVE",
"40 863 OFFCURVE",
"40 794 CURVE SMOOTH",
"40 726 OFFCURVE",
"90 657 OFFCURVE",
"191 657 CURVE SMOOTH",
"264 657 OFFCURVE",
"300 694 OFFCURVE",
"316 725 CURVE",
"296 730 LINE",
"296 727 OFFCURVE",
"296 724 OFFCURVE",
"296 720 CURVE SMOOTH",
"296 657 OFFCURVE",
"255 609 OFFCURVE",
"178 609 CURVE SMOOTH",
"146 609 OFFCURVE",
"126 615 OFFCURVE",
"113 621 CURVE SMOOTH",
"89 631 OFFCURVE",
"70 622 OFFCURVE",
"69 605 CURVE SMOOTH",
"66 572 OFFCURVE",
"123 552 OFFCURVE",
"180 552 CURVE SMOOTH"
);
},
{
closed = 1;
nodes = (
"128 718 OFFCURVE",
"96 754 OFFCURVE",
"96 791 CURVE SMOOTH",
"96 827 OFFCURVE",
"128 863 OFFCURVE",
"191 863 CURVE SMOOTH",
"259 863 OFFCURVE",
"292 827 OFFCURVE",
"292 791 CURVE SMOOTH",
"292 754 OFFCURVE",
"259 718 OFFCURVE",
"191 718 CURVE SMOOTH"
);
}
);
width = 663;
},
{
background = {
paths = (
{
closed = 1;
nodes = (
"344 539 OFFCURVE",
"411 638 OFFCURVE",
"411 739 CURVE SMOOTH",
"411 843 OFFCURVE",
"340 950 OFFCURVE",
"207 950 CURVE SMOOTH",
"123 950 OFFCURVE",
"43 899 OFFCURVE",
"43 801 CURVE SMOOTH",
"43 728 OFFCURVE",
"95 655 OFFCURVE",
"201 655 CURVE SMOOTH",
"303 655 OFFCURVE",
"374 749 OFFCURVE",
"333 832 CURVE",
"318 804 LINE",
"327 781 OFFCURVE",
"336 759 OFFCURVE",
"336 738 CURVE SMOOTH",
"336 668 OFFCURVE",
"291 615 OFFCURVE",
"200 615 CURVE SMOOTH",
"179 615 OFFCURVE",
"158 618 OFFCURVE",
"135 625 CURVE SMOOTH",
"104 635 OFFCURVE",
"85 617 OFFCURVE",
"85 596 CURVE SMOOTH",
"85 581 OFFCURVE",
"96 564 OFFCURVE",
"120 556 CURVE SMOOTH",
"149 547 OFFCURVE",
"175 544 OFFCURVE",
"201 543 CURVE SMOOTH"
);
},
{
closed = 1;
nodes = (
"146 751 OFFCURVE",
"117 777 OFFCURVE",
"117 803 CURVE SMOOTH",
"117 828 OFFCURVE",
"145 853 OFFCURVE",
"201 853 CURVE SMOOTH",
"257 853 OFFCURVE",
"285 828 OFFCURVE",
"285 803 CURVE SMOOTH",
"285 777 OFFCURVE",
"256 751 OFFCURVE",
"201 751 CURVE SMOOTH"
);
}
);
};
layerId = UUID0;
name = Bold;
paths = (
{
closed = 1;
nodes = (
"648 -8 OFFCURVE",
"696 23 OFFCURVE",
"696 63 CURVE SMOOTH",
"696 96 OFFCURVE",
"638 109 OFFCURVE",
"606 118 CURVE SMOOTH",
"503 148 OFFCURVE",
"409 225 OFFCURVE",
"409 343 CURVE SMOOTH",
"409 423 OFFCURVE",
"450 505 OFFCURVE",
"532 555 CURVE",
"554 579 LINE",
"484 558 OFFCURVE",
"434 506 OFFCURVE",
"434 444 CURVE SMOOTH",
"434 370 OFFCURVE",
"492 305 OFFCURVE",
"577 305 CURVE SMOOTH",
"676 305 OFFCURVE",
"727 385 OFFCURVE",
"727 464 CURVE SMOOTH",
"727 544 OFFCURVE",
"676 623 OFFCURVE",
"573 623 CURVE SMOOTH",
"415 623 OFFCURVE",
"335 469 OFFCURVE",
"335 313 CURVE SMOOTH",
"335 153 OFFCURVE",
"418 -8 OFFCURVE",
"587 -8 CURVE SMOOTH"
);
},
{
closed = 1;
nodes = (
"517 412 OFFCURVE",
"488 438 OFFCURVE",
"488 464 CURVE SMOOTH",
"488 489 OFFCURVE",
"516 514 OFFCURVE",
"572 514 CURVE SMOOTH",
"628 514 OFFCURVE",
"656 489 OFFCURVE",
"656 464 CURVE SMOOTH",
"656 438 OFFCURVE",
"627 412 OFFCURVE",
"572 412 CURVE SMOOTH"
);
},
{
closed = 1;
nodes = (
"338 531 OFFCURVE",
"405 635 OFFCURVE",
"405 739 CURVE SMOOTH",
"405 846 OFFCURVE",
"336 953 OFFCURVE",
"205 953 CURVE SMOOTH",
"107 953 OFFCURVE",
"38 890 OFFCURVE",
"38 795 CURVE SMOOTH",
"38 715 OFFCURVE",
"94 649 OFFCURVE",
"196 649 CURVE SMOOTH",
"295 649 OFFCURVE",
"364 725 OFFCURVE",
"336 804 CURVE",
"313 798 LINE",
"322 775 OFFCURVE",
"331 753 OFFCURVE",
"331 732 CURVE SMOOTH",
"331 662 OFFCURVE",
"286 609 OFFCURVE",
"195 609 CURVE SMOOTH",
"174 609 OFFCURVE",
"153 612 OFFCURVE",
"130 619 CURVE SMOOTH",
"99 629 OFFCURVE",
"80 611 OFFCURVE",
"80 590 CURVE SMOOTH",
"80 550 OFFCURVE",
"142 531 OFFCURVE",
"196 531 CURVE SMOOTH"
);
},
{
closed = 1;
nodes = (
"151 755 OFFCURVE",
"124 779 OFFCURVE",
"124 804 CURVE SMOOTH",
"124 828 OFFCURVE",
"150 851 OFFCURVE",
"203 851 CURVE SMOOTH",
"256 851 OFFCURVE",
"282 828 OFFCURVE",
"282 804 CURVE SMOOTH",
"282 779 OFFCURVE",
"255 755 OFFCURVE",
"203 755 CURVE SMOOTH"
);
}
);
width = 765;
}
);
unicode = 0CC0;
},
{
color = 8;
glyphname = knmU;
lastChange = "2015-12-28 04:48:06 +0000";
layers = (
{
background = {
paths = (
{
closed = 1;
nodes = (
"432 -7 OFFCURVE",
"506 122 OFFCURVE",
"506 261 CURVE SMOOTH",
"506 435 OFFCURVE",
"411 591 OFFCURVE",
"225 591 CURVE SMOOTH",
"179 591 OFFCURVE",
"160 568 OFFCURVE",
"160 546 CURVE SMOOTH",
"160 526 OFFCURVE",
"176 507 OFFCURVE",
"199 507 CURVE SMOOTH",
"233 507 OFFCURVE",
"234 519 OFFCURVE",
"291 519 CURVE SMOOTH",
"386 519 OFFCURVE",
"437 416 OFFCURVE",
"437 311 CURVE SMOOTH",
"437 202 OFFCURVE",
"382 92 OFFCURVE",
"275 92 CURVE SMOOTH",
"175 92 OFFCURVE",
"92 191 OFFCURVE",
"76 298 CURVE",
"47 260 LINE",
"57 114 OFFCURVE",
"137 -7 OFFCURVE",
"284 -7 CURVE SMOOTH"
);
}
);
};
layerId = "5E0B1C78-70A4-47D0-8E94-4E97FBB7DD03";
name = Light;
paths = (
{
closed = 1;
nodes = (
"424 -7 OFFCURVE",
"506 120 OFFCURVE",
"506 261 CURVE SMOOTH",
"506 435 OFFCURVE",
"411 591 OFFCURVE",
"225 591 CURVE SMOOTH",
"179 591 OFFCURVE",
"160 568 OFFCURVE",
"160 546 CURVE SMOOTH",
"160 526 OFFCURVE",
"176 507 OFFCURVE",
"199 507 CURVE SMOOTH",
"233 507 OFFCURVE",
"234 519 OFFCURVE",
"291 519 CURVE SMOOTH",
"386 519 OFFCURVE",
"437 416 OFFCURVE",
"437 311 CURVE SMOOTH",
"437 195 OFFCURVE",
"391 92 OFFCURVE",
"275 92 CURVE SMOOTH",
"188 92 OFFCURVE",
"123 151 OFFCURVE",
"92 238 CURVE SMOOTH",
"78 277 OFFCURVE",
"75 292 OFFCURVE",
"60 292 CURVE SMOOTH",
"52 292 OFFCURVE",
"48 283 OFFCURVE",
"48 273 CURVE SMOOTH",
"48 132 OFFCURVE",
"135 -7 OFFCURVE",
"278 -7 CURVE SMOOTH"
);
}
);
width = 554;
},
{
background = {
paths = (
{
closed = 1;
nodes = (
"435 -8 OFFCURVE",
"523 119 OFFCURVE",
"523 286 CURVE SMOOTH",
"523 455 OFFCURVE",
"409 623 OFFCURVE",
"250 623 CURVE SMOOTH",
"179 623 OFFCURVE",
"148 586 OFFCURVE",
"148 551 CURVE SMOOTH",
"148 521 OFFCURVE",
"171 493 OFFCURVE",
"211 493 CURVE SMOOTH",
"255 493 OFFCURVE",
"260 513 OFFCURVE",
"311 513 CURVE SMOOTH",
"388 513 OFFCURVE",
"429 437 OFFCURVE",
"429 356 CURVE SMOOTH",
"429 272 OFFCURVE",
"385 177 OFFCURVE",
"263 177 CURVE SMOOTH",
"173 177 OFFCURVE",
"98 225 OFFCURVE",
"70 340 CURVE",
"38 263 LINE",
"38 116 OFFCURVE",
"121 -8 OFFCURVE",
"276 -8 CURVE SMOOTH"
);
}
);
};
layerId = UUID0;
name = Bold;
paths = (
{
closed = 1;
nodes = (
"435 -8 OFFCURVE",
"523 119 OFFCURVE",
"523 286 CURVE SMOOTH",
"523 455 OFFCURVE",
"409 623 OFFCURVE",
"250 623 CURVE SMOOTH",
"179 623 OFFCURVE",
"148 586 OFFCURVE",
"148 551 CURVE SMOOTH",
"148 521 OFFCURVE",
"171 493 OFFCURVE",
"211 493 CURVE SMOOTH",
"255 493 OFFCURVE",
"260 513 OFFCURVE",
"311 513 CURVE SMOOTH",
"388 513 OFFCURVE",
"429 437 OFFCURVE",
"429 356 CURVE SMOOTH",
"429 272 OFFCURVE",
"385 177 OFFCURVE",
"263 177 CURVE SMOOTH",
"158 177 OFFCURVE",
"118 241 OFFCURVE",
"91 286 CURVE SMOOTH",
"77 309 OFFCURVE",
"66 326 OFFCURVE",
"51 326 CURVE SMOOTH",
"37 326 OFFCURVE",
"33 313 OFFCURVE",
"33 300 CURVE SMOOTH",
"33 137 OFFCURVE",
"112 -8 OFFCURVE",
"276 -8 CURVE SMOOTH"
);
}
);
width = 561;
}
);
unicode = 0CC1;
},
{
color = 8;
glyphname = knmUU;
lastChange = "2015-12-28 04:48:06 +0000";
layers = (
{
background = {
paths = (
{
closed = 1;
nodes = (
"275 -7 OFFCURVE",
"345 54 OFFCURVE",
"345 165 CURVE SMOOTH",
"345 220 OFFCURVE",
"335 259 OFFCURVE",
"335 317 CURVE SMOOTH",
"335 439 OFFCURVE",
"434 501 OFFCURVE",
"541 501 CURVE SMOOTH",
"655 501 OFFCURVE",
"774 429 OFFCURVE",
"774 279 CURVE SMOOTH",
"774 184 OFFCURVE",
"712 94 OFFCURVE",
"598 94 CURVE SMOOTH",
"520 94 OFFCURVE",
"461 136 OFFCURVE",
"461 201 CURVE SMOOTH",
"461 239 OFFCURVE",
"483 272 OFFCURVE",
"516 272 CURVE SMOOTH",
"549 272 OFFCURVE",
"570 260 OFFCURVE",
"599 260 CURVE SMOOTH",
"625 260 OFFCURVE",
"642 279 OFFCURVE",
"642 299 CURVE SMOOTH",
"642 321 OFFCURVE",
"622 344 OFFCURVE",
"576 344 CURVE SMOOTH",
"460 344 OFFCURVE",
"404 263 OFFCURVE",
"404 178 CURVE SMOOTH",
"404 66 OFFCURVE",
"494 -6 OFFCURVE",
"602 -6 CURVE SMOOTH",
"749 -6 OFFCURVE",
"831 134 OFFCURVE",
"831 279 CURVE SMOOTH",
"831 492 OFFCURVE",
"681 592 OFFCURVE",
"535 592 CURVE SMOOTH",
"397 592 OFFCURVE",
"276 502 OFFCURVE",
"276 339 CURVE SMOOTH",
"276 272 OFFCURVE",
"284 247 OFFCURVE",
"287 197 CURVE SMOOTH",
"290 139 OFFCURVE",
"270 93 OFFCURVE",
"205 93 CURVE SMOOTH",
"128 93 OFFCURVE",
"68 150 OFFCURVE",
"61 298 CURVE",
"32 220 LINE",
"43 64 OFFCURVE",
"124 -7 OFFCURVE",
"203 -7 CURVE SMOOTH"
);
}
);
};
layerId = "5E0B1C78-70A4-47D0-8E94-4E97FBB7DD03";
name = Light;
paths = (
{
closed = 1;
nodes = (
"297 -7 OFFCURVE",
"345 74 OFFCURVE",
"345 165 CURVE SMOOTH",
"345 220 OFFCURVE",
"335 259 OFFCURVE",
"335 317 CURVE SMOOTH",
"335 439 OFFCURVE",
"434 501 OFFCURVE",
"541 501 CURVE SMOOTH",
"655 501 OFFCURVE",
"774 429 OFFCURVE",
"774 279 CURVE SMOOTH",
"774 184 OFFCURVE",
"712 92 OFFCURVE",
"598 92 CURVE SMOOTH",
"520 92 OFFCURVE",
"461 136 OFFCURVE",
"461 201 CURVE SMOOTH",
"461 239 OFFCURVE",
"483 272 OFFCURVE",
"516 272 CURVE SMOOTH",
"549 272 OFFCURVE",
"570 260 OFFCURVE",
"599 260 CURVE SMOOTH",
"625 260 OFFCURVE",
"642 279 OFFCURVE",
"642 299 CURVE SMOOTH",
"642 321 OFFCURVE",
"622 344 OFFCURVE",
"576 344 CURVE SMOOTH",
"460 344 OFFCURVE",
"404 263 OFFCURVE",
"404 178 CURVE SMOOTH",
"404 66 OFFCURVE",
"494 -7 OFFCURVE",
"602 -7 CURVE SMOOTH",
"749 -7 OFFCURVE",
"831 134 OFFCURVE",
"831 279 CURVE SMOOTH",
"831 492 OFFCURVE",
"681 592 OFFCURVE",
"535 592 CURVE SMOOTH",
"397 592 OFFCURVE",
"276 502 OFFCURVE",
"276 339 CURVE SMOOTH",
"276 272 OFFCURVE",
"287 247 OFFCURVE",
"287 179 CURVE SMOOTH",
"287 131 OFFCURVE",
"263 92 OFFCURVE",
"213 92 CURVE SMOOTH",
"154 92 OFFCURVE",
"122 141 OFFCURVE",
"102 194 CURVE SMOOTH",
"98 204 OFFCURVE",
"93 217 OFFCURVE",
"83 217 CURVE SMOOTH",
"71 217 OFFCURVE",
"68 202 OFFCURVE",
"68 186 CURVE SMOOTH",
"68 94 OFFCURVE",
"116 -7 OFFCURVE",
"214 -7 CURVE SMOOTH"
);
}
);
width = 879;
},
{
background = {
paths = (
{
closed = 1;
nodes = (
"318 -8 OFFCURVE",
"369 71 OFFCURVE",
"369 174 CURVE SMOOTH",
"369 217 OFFCURVE",
"360 250 OFFCURVE",
"360 284 CURVE SMOOTH",
"360 395 OFFCURVE",
"424 467 OFFCURVE",
"564 467 CURVE SMOOTH",
"697 467 OFFCURVE",
"758 381 OFFCURVE",
"758 310 CURVE SMOOTH",
"758 245 OFFCURVE",
"706 177 OFFCURVE",
"617 177 CURVE SMOOTH",
"538 177 OFFCURVE",
"508 217 OFFCURVE",
"508 252 CURVE SMOOTH",
"508 279 OFFCURVE",
"526 303 OFFCURVE",
"552 303 CURVE SMOOTH",
"595 303 OFFCURVE",
"591 272 OFFCURVE",
"635 272 CURVE SMOOTH",
"662 272 OFFCURVE",
"681 295 OFFCURVE",
"681 320 CURVE SMOOTH",
"681 349 OFFCURVE",
"655 380 OFFCURVE",
"586 380 CURVE SMOOTH",
"475 380 OFFCURVE",
"418 289 OFFCURVE",
"418 195 CURVE SMOOTH",
"418 95 OFFCURVE",
"483 -8 OFFCURVE",
"609 -8 CURVE SMOOTH",
"749 -8 OFFCURVE",
"824 137 OFFCURVE",
"824 287 CURVE SMOOTH",
"824 451 OFFCURVE",
"735 623 OFFCURVE",
"545 623 CURVE SMOOTH",
"389 623 OFFCURVE",
"286 522 OFFCURVE",
"286 370 CURVE SMOOTH",
"286 333 OFFCURVE",
"294 303 OFFCURVE",
"294 242 CURVE SMOOTH",
"294 185 OFFCURVE",
"267 150 OFFCURVE",
"214 150 CURVE SMOOTH",
"136 150 OFFCURVE",
"103 217 OFFCURVE",
"84 298 CURVE",
"38 221 LINE",
"45 83 OFFCURVE",
"93 -8 OFFCURVE",
"214 -8 CURVE SMOOTH"
);
}
);
};
layerId = UUID0;
name = Bold;
paths = (
{
closed = 1;
nodes = (
"315 -8 OFFCURVE",
"369 75 OFFCURVE",
"369 174 CURVE SMOOTH",
"369 217 OFFCURVE",
"360 250 OFFCURVE",
"360 284 CURVE SMOOTH",
"360 395 OFFCURVE",
"424 467 OFFCURVE",
"564 467 CURVE SMOOTH",
"697 467 OFFCURVE",
"758 381 OFFCURVE",
"758 310 CURVE SMOOTH",
"758 245 OFFCURVE",
"706 177 OFFCURVE",
"617 177 CURVE SMOOTH",
"538 177 OFFCURVE",
"508 217 OFFCURVE",
"508 252 CURVE SMOOTH",
"508 279 OFFCURVE",
"526 303 OFFCURVE",
"552 303 CURVE SMOOTH",
"595 303 OFFCURVE",
"591 272 OFFCURVE",
"635 272 CURVE SMOOTH",
"662 272 OFFCURVE",
"681 295 OFFCURVE",
"681 320 CURVE SMOOTH",
"681 349 OFFCURVE",
"655 380 OFFCURVE",
"586 380 CURVE SMOOTH",
"475 380 OFFCURVE",
"418 289 OFFCURVE",
"418 195 CURVE SMOOTH",
"418 95 OFFCURVE",
"483 -8 OFFCURVE",
"609 -8 CURVE SMOOTH",
"749 -8 OFFCURVE",
"824 137 OFFCURVE",
"824 287 CURVE SMOOTH",
"824 451 OFFCURVE",
"735 623 OFFCURVE",
"545 623 CURVE SMOOTH",
"389 623 OFFCURVE",
"286 522 OFFCURVE",
"286 370 CURVE SMOOTH",
"286 333 OFFCURVE",
"294 303 OFFCURVE",
"294 242 CURVE SMOOTH",
"294 187 OFFCURVE",
"266 150 OFFCURVE",
"213 150 CURVE SMOOTH",
"148 150 OFFCURVE",
"112 197 OFFCURVE",
"96 259 CURVE SMOOTH",
"93 272 OFFCURVE",
"83 296 OFFCURVE",
"63 296 CURVE SMOOTH",
"38 296 OFFCURVE",
"30 254 OFFCURVE",
"30 212 CURVE SMOOTH",
"30 122 OFFCURVE",
"78 -8 OFFCURVE",
"214 -8 CURVE SMOOTH"
);
}
);
width = 862;
}
);
unicode = 0CC2;
},
{
color = 0;
glyphname = knmvR;
lastChange = "2015-12-23 18:08:46 +0000";
layers = (
{
layerId = "5E0B1C78-70A4-47D0-8E94-4E97FBB7DD03";
name = Light;
paths = (
{
closed = 1;
nodes = (
"23 231 OFFCURVE",
"7 181 OFFCURVE",
"45 150 CURVE SMOOTH",
"140 73 OFFCURVE",
"192 -45 OFFCURVE",
"192 -145 CURVE SMOOTH",
"192 -220 OFFCURVE",
"163 -285 OFFCURVE",
"101 -316 CURVE",
"106 -341 LINE",
"164 -317 OFFCURVE",
"190 -270 OFFCURVE",
"190 -222 CURVE SMOOTH",
"190 -153 OFFCURVE",
"137 -84 OFFCURVE",
"45 -84 CURVE SMOOTH",
"-52 -84 OFFCURVE",
"-100 -154 OFFCURVE",
"-100 -225 CURVE SMOOTH",
"-100 -296 OFFCURVE",
"-51 -368 OFFCURVE",
"47 -368 CURVE SMOOTH",
"176 -368 OFFCURVE",
"242 -245 OFFCURVE",
"242 -106 CURVE SMOOTH",
"242 -3 OFFCURVE",
"206 110 OFFCURVE",
"133 188 CURVE SMOOTH",
"114 209 OFFCURVE",
"92 231 OFFCURVE",
"63 231 CURVE SMOOTH"
);
},
{
closed = 1;
nodes = (
"115 -154 OFFCURVE",
"148 -190 OFFCURVE",
"148 -226 CURVE SMOOTH",
"148 -263 OFFCURVE",
"115 -299 OFFCURVE",
"47 -299 CURVE SMOOTH",
"-21 -299 OFFCURVE",
"-54 -263 OFFCURVE",
"-54 -227 CURVE SMOOTH",
"-54 -190 OFFCURVE",
"-21 -154 OFFCURVE",
"47 -154 CURVE SMOOTH"
);
}
);
width = 290;
},
{
layerId = UUID0;
name = Bold;
paths = (
{
closed = 1;
nodes = (
"30 238 OFFCURVE",
"8 159 OFFCURVE",
"65 102 CURVE SMOOTH",
"151 16 OFFCURVE",
"197 -75 OFFCURVE",
"197 -153 CURVE SMOOTH",
"197 -211 OFFCURVE",
"193 -281 OFFCURVE",
"122 -322 CURVE",
"112 -349 LINE",
"179 -328 OFFCURVE",
"209 -276 OFFCURVE",
"209 -214 CURVE SMOOTH",
"209 -122 OFFCURVE",
"135 -75 OFFCURVE",
"59 -75 CURVE SMOOTH",
"-19 -75 OFFCURVE",
"-99 -126 OFFCURVE",
"-99 -228 CURVE SMOOTH",
"-99 -316 OFFCURVE",
"-45 -393 OFFCURVE",
"63 -393 CURVE SMOOTH",
"217 -393 OFFCURVE",
"273 -229 OFFCURVE",
"273 -76 CURVE SMOOTH",
"273 20 OFFCURVE",
"243 120 OFFCURVE",
"176 196 CURVE SMOOTH",
"147 229 OFFCURVE",
"125 238 OFFCURVE",
"97 238 CURVE SMOOTH"
);
},
{
closed = 1;
nodes = (
"116 -182 OFFCURVE",
"145 -208 OFFCURVE",
"145 -234 CURVE SMOOTH",
"145 -259 OFFCURVE",
"117 -284 OFFCURVE",
"61 -284 CURVE SMOOTH",
"5 -284 OFFCURVE",
"-23 -259 OFFCURVE",
"-23 -234 CURVE SMOOTH",
"-23 -208 OFFCURVE",
"6 -182 OFFCURVE",
"61 -182 CURVE SMOOTH"
);
}
);
width = 311;
}
);
unicode = 0CC3;
},
{
color = 0;
glyphname = knmvRR;
lastChange = "2015-12-23 18:08:46 +0000";
layers = (
{
layerId = "5E0B1C78-70A4-47D0-8E94-4E97FBB7DD03";
name = Light;
paths = (
{
closed = 1;
nodes = (
"176 -368 OFFCURVE",
"242 -245 OFFCURVE",
"242 -106 CURVE SMOOTH",
"242 -3 OFFCURVE",
"206 110 OFFCURVE",
"113 188 CURVE",
"106 149 LINE",
"405 149 LINE",
"427 190 LINE",
"381 167 OFFCURVE",
"358 119 OFFCURVE",
"358 70 CURVE SMOOTH",
"358 -6 OFFCURVE",
"415 -73 OFFCURVE",
"504 -73 CURVE SMOOTH",
"603 -73 OFFCURVE",
"662 -6 OFFCURVE",
"662 80 CURVE SMOOTH",
"662 168 OFFCURVE",
"601 231 OFFCURVE",
"504 231 CURVE SMOOTH",
"63 231 LINE SMOOTH",
"13 231 OFFCURVE",
"10 178 OFFCURVE",
"45 150 CURVE SMOOTH",
"140 73 OFFCURVE",
"192 -45 OFFCURVE",
"192 -145 CURVE SMOOTH",
"192 -220 OFFCURVE",
"163 -285 OFFCURVE",
"101 -316 CURVE",
"106 -341 LINE",
"164 -317 OFFCURVE",
"190 -270 OFFCURVE",
"190 -222 CURVE SMOOTH",
"190 -153 OFFCURVE",
"137 -84 OFFCURVE",
"45 -84 CURVE SMOOTH",
"-52 -84 OFFCURVE",
"-100 -154 OFFCURVE",
"-100 -225 CURVE SMOOTH",
"-100 -296 OFFCURVE",
"-51 -368 OFFCURVE",
"47 -368 CURVE SMOOTH"
);
},
{
closed = 1;
nodes = (
"-21 -299 OFFCURVE",
"-54 -263 OFFCURVE",
"-54 -227 CURVE SMOOTH",
"-54 -190 OFFCURVE",
"-21 -154 OFFCURVE",
"47 -154 CURVE SMOOTH",
"115 -154 OFFCURVE",
"148 -190 OFFCURVE",
"148 -226 CURVE SMOOTH",
"148 -263 OFFCURVE",
"115 -299 OFFCURVE",
"47 -299 CURVE SMOOTH"
);
},
{
closed = 1;
nodes = (
"452 -20 OFFCURVE",
"412 14 OFFCURVE",
"412 64 CURVE SMOOTH",
"412 118 OFFCURVE",
"452 149 OFFCURVE",
"504 149 CURVE SMOOTH",
"556 149 OFFCURVE",
"596 120 OFFCURVE",
"596 64 CURVE SMOOTH",
"596 14 OFFCURVE",
"556 -20 OFFCURVE",
"504 -20 CURVE SMOOTH"
);
}
);
width = 710;
},
{
background = {
paths = (
{
closed = 1;
nodes = (
"217 -393 OFFCURVE",
"273 -229 OFFCURVE",
"273 -76 CURVE SMOOTH",
"273 11 OFFCURVE",
"215 135 OFFCURVE",
"126 166 CURVE",
"139 122 LINE",
"471 122 LINE",
"457 173 LINE",
"437 149 OFFCURVE",
"420 123 OFFCURVE",
"420 72 CURVE SMOOTH",
"420 2 OFFCURVE",
"474 -60 OFFCURVE",
"571 -60 CURVE SMOOTH",
"666 -60 OFFCURVE",
"725 3 OFFCURVE",
"725 86 CURVE SMOOTH",
"725 169 OFFCURVE",
"662 238 OFFCURVE",
"565 238 CURVE SMOOTH",
"97 238 LINE SMOOTH",
"30 238 OFFCURVE",
"8 159 OFFCURVE",
"65 102 CURVE SMOOTH",
"151 16 OFFCURVE",
"197 -75 OFFCURVE",
"197 -153 CURVE SMOOTH",
"197 -211 OFFCURVE",
"193 -281 OFFCURVE",
"122 -322 CURVE",
"112 -349 LINE",
"179 -328 OFFCURVE",
"209 -276 OFFCURVE",
"209 -214 CURVE SMOOTH",
"209 -122 OFFCURVE",
"135 -75 OFFCURVE",
"59 -75 CURVE SMOOTH",
"-19 -75 OFFCURVE",
"-99 -126 OFFCURVE",
"-99 -228 CURVE SMOOTH",
"-99 -316 OFFCURVE",
"-45 -393 OFFCURVE",
"63 -393 CURVE SMOOTH"
);
},
{
closed = 1;
nodes = (
"5 -284 OFFCURVE",
"-23 -259 OFFCURVE",
"-23 -234 CURVE SMOOTH",
"-23 -208 OFFCURVE",
"6 -182 OFFCURVE",
"61 -182 CURVE SMOOTH",
"116 -182 OFFCURVE",
"145 -208 OFFCURVE",
"145 -234 CURVE SMOOTH",
"145 -259 OFFCURVE",
"117 -284 OFFCURVE",
"61 -284 CURVE SMOOTH"
);
},
{
closed = 1;
nodes = (
"509 36 OFFCURVE",
"481 61 OFFCURVE",
"481 86 CURVE SMOOTH",
"481 112 OFFCURVE",
"510 138 OFFCURVE",
"565 138 CURVE SMOOTH",
"620 138 OFFCURVE",
"649 112 OFFCURVE",
"649 86 CURVE SMOOTH",
"649 61 OFFCURVE",
"621 36 OFFCURVE",
"565 36 CURVE SMOOTH"
);
}
);
};
layerId = UUID0;
name = Bold;
paths = (
{
closed = 1;
nodes = (
"197 -393 OFFCURVE",
"264 -256 OFFCURVE",
"264 -112 CURVE SMOOTH",
"264 9 OFFCURVE",
"206 135 OFFCURVE",
"112 186 CURVE",
"139 122 LINE",
"471 122 LINE",
"457 173 LINE",
"437 149 OFFCURVE",
"420 123 OFFCURVE",
"420 72 CURVE SMOOTH",
"420 2 OFFCURVE",
"474 -60 OFFCURVE",
"571 -60 CURVE SMOOTH",
"666 -60 OFFCURVE",
"725 3 OFFCURVE",
"725 86 CURVE SMOOTH",
"725 169 OFFCURVE",
"662 238 OFFCURVE",
"565 238 CURVE SMOOTH",
"97 238 LINE SMOOTH",
"30 238 OFFCURVE",
"8 159 OFFCURVE",
"65 102 CURVE SMOOTH",
"151 16 OFFCURVE",
"197 -75 OFFCURVE",
"197 -153 CURVE SMOOTH",
"197 -211 OFFCURVE",
"193 -281 OFFCURVE",
"122 -322 CURVE",
"112 -349 LINE",
"179 -328 OFFCURVE",
"209 -276 OFFCURVE",
"209 -214 CURVE SMOOTH",
"209 -122 OFFCURVE",
"135 -75 OFFCURVE",
"59 -75 CURVE SMOOTH",
"-19 -75 OFFCURVE",
"-99 -126 OFFCURVE",
"-99 -228 CURVE SMOOTH",
"-99 -316 OFFCURVE",
"-45 -393 OFFCURVE",
"63 -393 CURVE SMOOTH"
);
},
{
closed = 1;
nodes = (
"5 -284 OFFCURVE",
"-23 -259 OFFCURVE",
"-23 -234 CURVE SMOOTH",
"-23 -208 OFFCURVE",
"6 -182 OFFCURVE",
"61 -182 CURVE SMOOTH",
"116 -182 OFFCURVE",
"145 -208 OFFCURVE",
"145 -234 CURVE SMOOTH",
"145 -259 OFFCURVE",
"117 -284 OFFCURVE",
"61 -284 CURVE SMOOTH"
);
},
{
closed = 1;
nodes = (
"509 36 OFFCURVE",
"481 61 OFFCURVE",
"481 86 CURVE SMOOTH",
"481 112 OFFCURVE",
"510 138 OFFCURVE",
"565 138 CURVE SMOOTH",
"620 138 OFFCURVE",
"649 112 OFFCURVE",
"649 86 CURVE SMOOTH",
"649 61 OFFCURVE",
"621 36 OFFCURVE",
"565 36 CURVE SMOOTH"
);
}
);
width = 763;
}
);
unicode = 0CC4;
},
{
color = 0;
glyphname = knmvL;
lastChange = "2015-12-23 18:09:01 +0000";
layers = (
{
layerId = "5E0B1C78-70A4-47D0-8E94-4E97FBB7DD03";
name = Light;
paths = (
{
closed = 1;
nodes = (
"-183 -558 OFFCURVE",
"-107 -427 OFFCURVE",
"-107 -291 CURVE SMOOTH",
"-107 -226 OFFCURVE",
"-124 -161 OFFCURVE",
"-161 -108 CURVE SMOOTH",
"-166 -101 OFFCURVE",
"-173 -96 OFFCURVE",
"-181 -96 CURVE SMOOTH",
"-194 -96 OFFCURVE",
"-197 -109 OFFCURVE",
"-189 -119 CURVE SMOOTH",
"-159 -161 OFFCURVE",
"-144 -213 OFFCURVE",
"-144 -264 CURVE SMOOTH",
"-144 -370 OFFCURVE",
"-205 -472 OFFCURVE",
"-316 -472 CURVE SMOOTH",
"-368 -472 OFFCURVE",
"-391 -450 OFFCURVE",
"-391 -418 CURVE SMOOTH",
"-391 -330 OFFCURVE",
"-218 -306 OFFCURVE",
"-218 -193 CURVE SMOOTH",
"-218 -136 OFFCURVE",
"-256 -96 OFFCURVE",
"-315 -96 CURVE SMOOTH",
"-383 -96 OFFCURVE",
"-430 -157 OFFCURVE",
"-430 -193 CURVE",
"-421 -193 LINE",
"-421 -155 OFFCURVE",
"-466 -96 OFFCURVE",
"-536 -96 CURVE SMOOTH",
"-587 -96 OFFCURVE",
"-621 -130 OFFCURVE",
"-621 -176 CURVE SMOOTH",
"-621 -198 OFFCURVE",
"-610 -226 OFFCURVE",
"-595 -226 CURVE SMOOTH",
"-585 -226 OFFCURVE",
"-583 -218 OFFCURVE",
"-584 -210 CURVE SMOOTH",
"-588 -174 OFFCURVE",
"-570 -151 OFFCURVE",
"-529 -151 CURVE SMOOTH",
"-484 -151 OFFCURVE",
"-462 -182 OFFCURVE",
"-444 -217 CURVE SMOOTH",
"-439 -225 OFFCURVE",
"-435 -233 OFFCURVE",
"-426 -233 CURVE SMOOTH",
"-416 -233 OFFCURVE",
"-413 -225 OFFCURVE",
"-409 -218 CURVE SMOOTH",
"-387 -180 OFFCURVE",
"-360 -151 OFFCURVE",
"-314 -151 CURVE SMOOTH",
"-285 -151 OFFCURVE",
"-258 -166 OFFCURVE",
"-258 -199 CURVE SMOOTH",
"-258 -286 OFFCURVE",
"-452 -311 OFFCURVE",
"-452 -440 CURVE SMOOTH",
"-452 -503 OFFCURVE",
"-401 -558 OFFCURVE",
"-319 -558 CURVE SMOOTH"
);
}
);
width = 0;
},
{
layerId = UUID0;
name = Bold;
paths = (
{
closed = 1;
nodes = (
"-143 -624 OFFCURVE",
"-59 -454 OFFCURVE",
"-59 -294 CURVE SMOOTH",
"-59 -223 OFFCURVE",
"-76 -155 OFFCURVE",
"-108 -104 CURVE SMOOTH",
"-117 -90 OFFCURVE",
"-129 -82 OFFCURVE",
"-141 -82 CURVE SMOOTH",
"-159 -82 OFFCURVE",
"-165 -96 OFFCURVE",
"-152 -118 CURVE SMOOTH",
"-128 -159 OFFCURVE",
"-115 -210 OFFCURVE",
"-115 -262 CURVE SMOOTH",
"-115 -374 OFFCURVE",
"-173 -488 OFFCURVE",
"-305 -488 CURVE SMOOTH",
"-346 -488 OFFCURVE",
"-379 -471 OFFCURVE",
"-379 -435 CURVE SMOOTH",
"-379 -347 OFFCURVE",
"-201 -326 OFFCURVE",
"-201 -195 CURVE SMOOTH",
"-201 -141 OFFCURVE",
"-234 -81 OFFCURVE",
"-312 -81 CURVE SMOOTH",
"-396 -81 OFFCURVE",
"-438 -145 OFFCURVE",
"-438 -222 CURVE",
"-424 -222 LINE",
"-424 -122 OFFCURVE",
"-478 -81 OFFCURVE",
"-537 -81 CURVE SMOOTH",
"-591 -81 OFFCURVE",
"-644 -116 OFFCURVE",
"-644 -184 CURVE SMOOTH",
"-644 -214 OFFCURVE",
"-627 -255 OFFCURVE",
"-601 -255 CURVE SMOOTH",
"-592 -255 OFFCURVE",
"-587 -250 OFFCURVE",
"-587 -240 CURVE SMOOTH",
"-587 -208 OFFCURVE",
"-578 -175 OFFCURVE",
"-536 -175 CURVE SMOOTH",
"-487 -175 OFFCURVE",
"-460 -225 OFFCURVE",
"-449 -251 CURVE SMOOTH",
"-445 -260 OFFCURVE",
"-441 -267 OFFCURVE",
"-431 -267 CURVE SMOOTH",
"-421 -267 OFFCURVE",
"-417 -259 OFFCURVE",
"-413 -251 CURVE SMOOTH",
"-399 -224 OFFCURVE",
"-374 -176 OFFCURVE",
"-317 -176 CURVE SMOOTH",
"-292 -176 OFFCURVE",
"-270 -192 OFFCURVE",
"-270 -219 CURVE SMOOTH",
"-270 -300 OFFCURVE",
"-474 -334 OFFCURVE",
"-474 -485 CURVE SMOOTH",
"-474 -568 OFFCURVE",
"-410 -624 OFFCURVE",
"-314 -624 CURVE SMOOTH"
);
}
);
width = 0;
}
);
unicode = 0CE2;
},
{
color = 0;
glyphname = knmvLL;
lastChange = "2015-12-23 18:09:01 +0000";
layers = (
{
layerId = "5E0B1C78-70A4-47D0-8E94-4E97FBB7DD03";
name = Light;
paths = (
{
closed = 1;
nodes = (
"-183 -558 OFFCURVE",
"-107 -427 OFFCURVE",
"-107 -291 CURVE SMOOTH",
"-107 -226 OFFCURVE",
"-124 -161 OFFCURVE",
"-161 -108 CURVE",
"-147 -150 LINE",
"4 -150 LINE",
"-4 -130 LINE",
"-24 -148 OFFCURVE",
"-35 -171 OFFCURVE",
"-35 -196 CURVE SMOOTH",
"-35 -244 OFFCURVE",
"1 -280 OFFCURVE",
"59 -280 CURVE SMOOTH",
"123 -280 OFFCURVE",
"156 -241 OFFCURVE",
"156 -188 CURVE SMOOTH",
"156 -133 OFFCURVE",
"114 -96 OFFCURVE",
"52 -96 CURVE SMOOTH",
"-182 -96 LINE SMOOTH",
"-196 -96 OFFCURVE",
"-197 -109 OFFCURVE",
"-189 -119 CURVE SMOOTH",
"-159 -161 OFFCURVE",
"-144 -213 OFFCURVE",
"-144 -264 CURVE SMOOTH",
"-144 -370 OFFCURVE",
"-205 -472 OFFCURVE",
"-316 -472 CURVE SMOOTH",
"-368 -472 OFFCURVE",
"-391 -450 OFFCURVE",
"-391 -418 CURVE SMOOTH",
"-391 -330 OFFCURVE",
"-218 -306 OFFCURVE",
"-218 -193 CURVE SMOOTH",
"-218 -136 OFFCURVE",
"-256 -96 OFFCURVE",
"-315 -96 CURVE SMOOTH",
"-383 -96 OFFCURVE",
"-430 -157 OFFCURVE",
"-430 -193 CURVE",
"-421 -193 LINE",
"-421 -155 OFFCURVE",
"-466 -96 OFFCURVE",
"-536 -96 CURVE SMOOTH",
"-587 -96 OFFCURVE",
"-621 -130 OFFCURVE",
"-621 -176 CURVE SMOOTH",
"-621 -198 OFFCURVE",
"-610 -226 OFFCURVE",
"-595 -226 CURVE SMOOTH",
"-585 -226 OFFCURVE",
"-583 -218 OFFCURVE",
"-584 -210 CURVE SMOOTH",
"-588 -174 OFFCURVE",
"-570 -151 OFFCURVE",
"-529 -151 CURVE SMOOTH",
"-484 -151 OFFCURVE",
"-462 -182 OFFCURVE",
"-444 -217 CURVE SMOOTH",
"-439 -225 OFFCURVE",
"-435 -233 OFFCURVE",
"-426 -233 CURVE SMOOTH",
"-416 -233 OFFCURVE",
"-413 -225 OFFCURVE",
"-409 -218 CURVE SMOOTH",
"-387 -180 OFFCURVE",
"-360 -151 OFFCURVE",
"-314 -151 CURVE SMOOTH",
"-285 -151 OFFCURVE",
"-258 -166 OFFCURVE",
"-258 -199 CURVE SMOOTH",
"-258 -286 OFFCURVE",
"-452 -311 OFFCURVE",
"-452 -440 CURVE SMOOTH",
"-452 -503 OFFCURVE",
"-401 -558 OFFCURVE",
"-319 -558 CURVE SMOOTH"
);
},
{
closed = 1;
nodes = (
"14 -239 OFFCURVE",
"-8 -216 OFFCURVE",
"-8 -192 CURVE SMOOTH",
"-8 -168 OFFCURVE",
"14 -144 OFFCURVE",
"58 -144 CURVE SMOOTH",
"102 -144 OFFCURVE",
"124 -168 OFFCURVE",
"124 -191 CURVE SMOOTH",
"124 -216 OFFCURVE",
"102 -239 OFFCURVE",
"58 -239 CURVE SMOOTH"
);
}
);
width = 0;
},
{
background = {
paths = (
{
closed = 1;
nodes = (
"107 -228 OFFCURVE",
"91 -207 OFFCURVE",
"91 -186 CURVE SMOOTH",
"91 -166 OFFCURVE",
"107 -145 OFFCURVE",
"139 -145 CURVE SMOOTH",
"167 -145 OFFCURVE",
"187 -162 OFFCURVE",
"187 -186 CURVE SMOOTH",
"187 -211 OFFCURVE",
"167 -228 OFFCURVE",
"139 -228 CURVE SMOOTH"
);
}
);
};
layerId = UUID0;
name = Bold;
paths = (
{
closed = 1;
nodes = (
"-144 -624 OFFCURVE",
"-60 -454 OFFCURVE",
"-60 -294 CURVE SMOOTH",
"-60 -224 OFFCURVE",
"-76 -155 OFFCURVE",
"-108 -103 CURVE",
"-94 -163 LINE",
"72 -163 LINE",
"82 -124 LINE",
"60 -139 OFFCURVE",
"49 -155 OFFCURVE",
"49 -189 CURVE SMOOTH",
"49 -234 OFFCURVE",
"84 -274 OFFCURVE",
"148 -274 CURVE SMOOTH",
"209 -274 OFFCURVE",
"248 -234 OFFCURVE",
"248 -180 CURVE SMOOTH",
"248 -124 OFFCURVE",
"213 -81 OFFCURVE",
"141 -81 CURVE SMOOTH",
"-140 -81 LINE SMOOTH",
"-159 -81 OFFCURVE",
"-165 -96 OFFCURVE",
"-152 -118 CURVE SMOOTH",
"-127 -159 OFFCURVE",
"-115 -210 OFFCURVE",
"-115 -262 CURVE SMOOTH",
"-115 -374 OFFCURVE",
"-174 -488 OFFCURVE",
"-304 -488 CURVE SMOOTH",
"-347 -488 OFFCURVE",
"-379 -471 OFFCURVE",
"-379 -435 CURVE SMOOTH",
"-379 -347 OFFCURVE",
"-201 -326 OFFCURVE",
"-201 -195 CURVE SMOOTH",
"-201 -141 OFFCURVE",
"-234 -81 OFFCURVE",
"-312 -81 CURVE SMOOTH",
"-396 -81 OFFCURVE",
"-438 -145 OFFCURVE",
"-438 -222 CURVE",
"-424 -222 LINE",
"-424 -122 OFFCURVE",
"-478 -81 OFFCURVE",
"-537 -81 CURVE SMOOTH",
"-591 -81 OFFCURVE",
"-644 -116 OFFCURVE",
"-644 -184 CURVE SMOOTH",
"-644 -214 OFFCURVE",
"-627 -255 OFFCURVE",
"-601 -255 CURVE SMOOTH",
"-592 -255 OFFCURVE",
"-587 -250 OFFCURVE",
"-587 -240 CURVE SMOOTH",
"-587 -208 OFFCURVE",
"-578 -175 OFFCURVE",
"-536 -175 CURVE SMOOTH",
"-487 -175 OFFCURVE",
"-460 -225 OFFCURVE",
"-449 -251 CURVE SMOOTH",
"-445 -260 OFFCURVE",
"-441 -267 OFFCURVE",
"-431 -267 CURVE SMOOTH",
"-421 -267 OFFCURVE",
"-417 -259 OFFCURVE",
"-413 -251 CURVE SMOOTH",
"-399 -224 OFFCURVE",
"-374 -176 OFFCURVE",
"-317 -176 CURVE SMOOTH",
"-292 -176 OFFCURVE",
"-270 -192 OFFCURVE",
"-270 -219 CURVE SMOOTH",
"-270 -300 OFFCURVE",
"-474 -334 OFFCURVE",
"-474 -485 CURVE SMOOTH",
"-474 -568 OFFCURVE",
"-410 -624 OFFCURVE",
"-314 -624 CURVE SMOOTH"
);
},
{
closed = 1;
nodes = (
"110 -215 OFFCURVE",
"90 -197 OFFCURVE",
"90 -179 CURVE SMOOTH",
"90 -162 OFFCURVE",
"109 -145 OFFCURVE",
"147 -145 CURVE SMOOTH",
"185 -145 OFFCURVE",
"204 -162 OFFCURVE",
"204 -179 CURVE SMOOTH",
"204 -197 OFFCURVE",
"184 -215 OFFCURVE",
"147 -215 CURVE SMOOTH"
);
}
);
width = 0;
}
);
unicode = 0CE3;
},
{
color = 10;
glyphname = knmE;
lastChange = "2015-12-28 04:47:49 +0000";
layers = (
{
layerId = "5E0B1C78-70A4-47D0-8E94-4E97FBB7DD03";
name = Light;
paths = (
{
closed = 1;
nodes = (
"432 508 LINE SMOOTH",
"567 508 OFFCURVE",
"628 603 OFFCURVE",
"628 696 CURVE SMOOTH",
"628 789 OFFCURVE",
"569 880 OFFCURVE",
"466 880 CURVE SMOOTH",
"375 880 OFFCURVE",
"328 821 OFFCURVE",
"328 763 CURVE SMOOTH",
"328 705 OFFCURVE",
"373 648 OFFCURVE",
"464 648 CURVE SMOOTH",
"510 648 OFFCURVE",
"530 671 OFFCURVE",
"530 693 CURVE SMOOTH",
"530 713 OFFCURVE",
"513 732 OFFCURVE",
"487 732 CURVE SMOOTH",
"461 732 OFFCURVE",
"444 720 OFFCURVE",
"419 720 CURVE SMOOTH",
"395 720 OFFCURVE",
"381 738 OFFCURVE",
"381 760 CURVE SMOOTH",
"381 789 OFFCURVE",
"407 820 OFFCURVE",
"468 820 CURVE SMOOTH",
"535 820 OFFCURVE",
"575 767 OFFCURVE",
"575 710 CURVE SMOOTH",
"575 651 OFFCURVE",
"533 592 OFFCURVE",
"433 592 CURVE SMOOTH",
"101 592 LINE SMOOTH",
"66 592 OFFCURVE",
"48 571 OFFCURVE",
"48 550 CURVE SMOOTH",
"48 529 OFFCURVE",
"66 508 OFFCURVE",
"101 508 CURVE SMOOTH"
);
}
);
width = 676;
},
{
background = {
paths = (
{
closed = 1;
nodes = (
"319 693 OFFCURVE",
"262 609 OFFCURVE",
"262 529 CURVE SMOOTH",
"262 456 OFFCURVE",
"310 385 OFFCURVE",
"408 385 CURVE SMOOTH",
"477 385 OFFCURVE",
"503 416 OFFCURVE",
"503 445 CURVE SMOOTH",
"503 470 OFFCURVE",
"484 493 OFFCURVE",
"457 493 CURVE SMOOTH",
"413 493 OFFCURVE",
"417 462 OFFCURVE",
"374 462 CURVE SMOOTH",
"344 462 OFFCURVE",
"326 484 OFFCURVE",
"326 509 CURVE SMOOTH",
"326 553 OFFCURVE",
"370 580 OFFCURVE",
"430 580 CURVE SMOOTH",
"518 580 OFFCURVE",
"563 519 OFFCURVE",
"563 456 CURVE SMOOTH",
"563 389 OFFCURVE",
"511 319 OFFCURVE",
"405 319 CURVE SMOOTH",
"86 319 LINE SMOOTH",
"-1 319 OFFCURVE",
"0 206 OFFCURVE",
"86 206 CURVE SMOOTH",
"403 206 LINE SMOOTH",
"548 206 OFFCURVE",
"619 334 OFFCURVE",
"619 459 CURVE SMOOTH",
"619 577 OFFCURVE",
"555 693 OFFCURVE",
"423 693 CURVE SMOOTH"
);
}
);
};
layerId = UUID0;
name = Bold;
paths = (
{
closed = 1;
nodes = (
"410 477 LINE SMOOTH",
"549 477 OFFCURVE",
"618 604 OFFCURVE",
"618 728 CURVE SMOOTH",
"618 847 OFFCURVE",
"555 964 OFFCURVE",
"432 964 CURVE SMOOTH",
"332 964 OFFCURVE",
"283 887 OFFCURVE",
"283 813 CURVE SMOOTH",
"283 744 OFFCURVE",
"326 677 OFFCURVE",
"408 677 CURVE SMOOTH",
"477 677 OFFCURVE",
"503 708 OFFCURVE",
"503 737 CURVE SMOOTH",
"503 762 OFFCURVE",
"484 785 OFFCURVE",
"457 785 CURVE SMOOTH",
"413 785 OFFCURVE",
"417 754 OFFCURVE",
"374 754 CURVE SMOOTH",
"352 754 OFFCURVE",
"340 769 OFFCURVE",
"340 788 CURVE SMOOTH",
"340 817 OFFCURVE",
"369 853 OFFCURVE",
"435 853 CURVE SMOOTH",
"517 853 OFFCURVE",
"557 801 OFFCURVE",
"557 746 CURVE SMOOTH",
"557 686 OFFCURVE",
"508 623 OFFCURVE",
"410 623 CURVE SMOOTH",
"119 623 LINE SMOOTH",
"65 623 OFFCURVE",
"38 586 OFFCURVE",
"38 550 CURVE SMOOTH",
"38 513 OFFCURVE",
"65 477 OFFCURVE",
"119 477 CURVE SMOOTH"
);
}
);
width = 656;
}
);
unicode = 0CC6;
},
{
color = 10;
glyphname = knmEE;
lastChange = "2015-12-28 04:47:49 +0000";
layers = (
{
layerId = "5E0B1C78-70A4-47D0-8E94-4E97FBB7DD03";
name = Light;
paths = (
{
closed = 1;
nodes = (
"401 508 LINE SMOOTH",
"536 508 OFFCURVE",
"597 603 OFFCURVE",
"597 696 CURVE SMOOTH",
"597 789 OFFCURVE",
"538 880 OFFCURVE",
"435 880 CURVE SMOOTH",
"344 880 OFFCURVE",
"297 821 OFFCURVE",
"297 763 CURVE SMOOTH",
"297 705 OFFCURVE",
"342 648 OFFCURVE",
"433 648 CURVE SMOOTH",
"479 648 OFFCURVE",
"499 671 OFFCURVE",
"499 693 CURVE SMOOTH",
"499 713 OFFCURVE",
"482 732 OFFCURVE",
"456 732 CURVE SMOOTH",
"430 732 OFFCURVE",
"413 720 OFFCURVE",
"388 720 CURVE SMOOTH",
"364 720 OFFCURVE",
"350 738 OFFCURVE",
"350 760 CURVE SMOOTH",
"350 789 OFFCURVE",
"376 820 OFFCURVE",
"437 820 CURVE SMOOTH",
"504 820 OFFCURVE",
"544 767 OFFCURVE",
"544 710 CURVE SMOOTH",
"544 651 OFFCURVE",
"502 592 OFFCURVE",
"402 592 CURVE SMOOTH",
"101 592 LINE SMOOTH",
"66 592 OFFCURVE",
"48 571 OFFCURVE",
"48 550 CURVE SMOOTH",
"48 529 OFFCURVE",
"66 508 OFFCURVE",
"101 508 CURVE SMOOTH"
);
},
{
closed = 1;
nodes = (
"813 -7 OFFCURVE",
"846 12 OFFCURVE",
"846 33 CURVE SMOOTH",
"846 48 OFFCURVE",
"827 60 OFFCURVE",
"800 65 CURVE SMOOTH",
"652 93 OFFCURVE",
"590 215 OFFCURVE",
"590 331 CURVE SMOOTH",
"590 417 OFFCURVE",
"629 500 OFFCURVE",
"706 540 CURVE",
"703 565 LINE",
"642 541 OFFCURVE",
"615 490 OFFCURVE",
"615 440 CURVE SMOOTH",
"615 373 OFFCURVE",
"664 307 OFFCURVE",
"750 307 CURVE SMOOTH",
"843 307 OFFCURVE",
"890 378 OFFCURVE",
"890 450 CURVE SMOOTH",
"890 521 OFFCURVE",
"843 592 OFFCURVE",
"750 592 CURVE SMOOTH",
"608 592 OFFCURVE",
"539 456 OFFCURVE",
"539 313 CURVE SMOOTH",
"539 157 OFFCURVE",
"609 -7 OFFCURVE",
"773 -7 CURVE SMOOTH"
);
},
{
closed = 1;
nodes = (
"706 375 OFFCURVE",
"660 399 OFFCURVE",
"660 447 CURVE SMOOTH",
"660 496 OFFCURVE",
"706 520 OFFCURVE",
"751 520 CURVE SMOOTH",
"797 520 OFFCURVE",
"842 496 OFFCURVE",
"842 448 CURVE SMOOTH",
"842 399 OFFCURVE",
"797 375 OFFCURVE",
"751 375 CURVE SMOOTH"
);
}
);
width = 938;
},
{
layerId = UUID0;
name = Bold;
paths = (
{
closed = 1;
nodes = (
"410 477 LINE SMOOTH",
"549 477 OFFCURVE",
"618 604 OFFCURVE",
"618 728 CURVE SMOOTH",
"618 847 OFFCURVE",
"555 964 OFFCURVE",
"432 964 CURVE SMOOTH",
"332 964 OFFCURVE",
"283 887 OFFCURVE",
"283 813 CURVE SMOOTH",
"283 744 OFFCURVE",
"326 677 OFFCURVE",
"408 677 CURVE SMOOTH",
"477 677 OFFCURVE",
"503 708 OFFCURVE",
"503 737 CURVE SMOOTH",
"503 762 OFFCURVE",
"484 785 OFFCURVE",
"457 785 CURVE SMOOTH",
"413 785 OFFCURVE",
"417 754 OFFCURVE",
"374 754 CURVE SMOOTH",
"352 754 OFFCURVE",
"340 769 OFFCURVE",
"340 788 CURVE SMOOTH",
"340 817 OFFCURVE",
"369 853 OFFCURVE",
"435 853 CURVE SMOOTH",
"517 853 OFFCURVE",
"557 801 OFFCURVE",
"557 746 CURVE SMOOTH",
"557 686 OFFCURVE",
"508 623 OFFCURVE",
"410 623 CURVE SMOOTH",
"119 623 LINE SMOOTH",
"65 623 OFFCURVE",
"38 586 OFFCURVE",
"38 550 CURVE SMOOTH",
"38 513 OFFCURVE",
"65 477 OFFCURVE",
"119 477 CURVE SMOOTH"
);
},
{
closed = 1;
nodes = (
"865 -8 OFFCURVE",
"913 23 OFFCURVE",
"913 63 CURVE SMOOTH",
"913 96 OFFCURVE",
"855 109 OFFCURVE",
"823 118 CURVE SMOOTH",
"720 148 OFFCURVE",
"626 225 OFFCURVE",
"626 343 CURVE SMOOTH",
"626 423 OFFCURVE",
"667 505 OFFCURVE",
"749 555 CURVE",
"771 579 LINE",
"701 558 OFFCURVE",
"651 506 OFFCURVE",
"651 444 CURVE SMOOTH",
"651 370 OFFCURVE",
"709 305 OFFCURVE",
"794 305 CURVE SMOOTH",
"893 305 OFFCURVE",
"944 385 OFFCURVE",
"944 464 CURVE SMOOTH",
"944 544 OFFCURVE",
"893 623 OFFCURVE",
"790 623 CURVE SMOOTH",
"632 623 OFFCURVE",
"552 469 OFFCURVE",
"552 313 CURVE SMOOTH",
"552 153 OFFCURVE",
"635 -8 OFFCURVE",
"804 -8 CURVE SMOOTH"
);
},
{
closed = 1;
nodes = (
"734 412 OFFCURVE",
"705 438 OFFCURVE",
"705 464 CURVE SMOOTH",
"705 489 OFFCURVE",
"733 514 OFFCURVE",
"789 514 CURVE SMOOTH",
"845 514 OFFCURVE",
"873 489 OFFCURVE",
"873 464 CURVE SMOOTH",
"873 438 OFFCURVE",
"844 412 OFFCURVE",
"789 412 CURVE SMOOTH"
);
}
);
width = 982;
}
);
unicode = 0CC7;
},
{
color = 10;
glyphname = knmAI;
lastChange = "2015-12-28 04:47:49 +0000";
layers = (
{
layerId = "5E0B1C78-70A4-47D0-8E94-4E97FBB7DD03";
name = Light;
paths = (
{
closed = 1;
nodes = (
"650 -458 OFFCURVE",
"714 -343 OFFCURVE",
"714 -230 CURVE SMOOTH",
"714 -108 OFFCURVE",
"639 -42 OFFCURVE",
"568 -23 CURVE",
"571 -38 LINE",
"642 -33 OFFCURVE",
"683 20 OFFCURVE",
"683 72 CURVE SMOOTH",
"683 142 OFFCURVE",
"623 181 OFFCURVE",
"553 181 CURVE SMOOTH",
"536 181 OFFCURVE",
"526 171 OFFCURVE",
"526 161 CURVE SMOOTH",
"526 151 OFFCURVE",
"535 140 OFFCURVE",
"554 137 CURVE SMOOTH",
"590 130 OFFCURVE",
"621 109 OFFCURVE",
"621 66 CURVE SMOOTH",
"621 32 OFFCURVE",
"594 -1 OFFCURVE",
"552 -9 CURVE SMOOTH",
"540 -12 OFFCURVE",
"529 -19 OFFCURVE",
"529 -31 CURVE SMOOTH",
"529 -42 OFFCURVE",
"539 -49 OFFCURVE",
"548 -52 CURVE SMOOTH",
"617 -76 OFFCURVE",
"667 -130 OFFCURVE",
"667 -208 CURVE SMOOTH",
"667 -290 OFFCURVE",
"618 -372 OFFCURVE",
"499 -372 CURVE SMOOTH",
"379 -372 OFFCURVE",
"327 -300 OFFCURVE",
"327 -225 CURVE SMOOTH",
"327 -180 OFFCURVE",
"346 -134 OFFCURVE",
"381 -102 CURVE",
"373 -98 LINE",
"305 -150 OFFCURVE",
"328 -261 OFFCURVE",
"435 -261 CURVE SMOOTH",
"504 -261 OFFCURVE",
"536 -213 OFFCURVE",
"536 -164 CURVE SMOOTH",
"536 -108 OFFCURVE",
"495 -63 OFFCURVE",
"430 -63 CURVE SMOOTH",
"341 -63 OFFCURVE",
"288 -153 OFFCURVE",
"288 -246 CURVE SMOOTH",
"288 -350 OFFCURVE",
"352 -458 OFFCURVE",
"501 -458 CURVE SMOOTH"
);
},
{
closed = 1;
nodes = (
"391 -230 OFFCURVE",
"364 -206 OFFCURVE",
"364 -173 CURVE SMOOTH",
"364 -139 OFFCURVE",
"391 -118 OFFCURVE",
"429 -118 CURVE SMOOTH",
"465 -118 OFFCURVE",
"493 -139 OFFCURVE",
"493 -173 CURVE SMOOTH",
"493 -208 OFFCURVE",
"466 -230 OFFCURVE",
"429 -230 CURVE SMOOTH"
);
},
{
closed = 1;
nodes = (
"401 508 LINE SMOOTH",
"536 508 OFFCURVE",
"597 603 OFFCURVE",
"597 696 CURVE SMOOTH",
"597 789 OFFCURVE",
"538 880 OFFCURVE",
"435 880 CURVE SMOOTH",
"344 880 OFFCURVE",
"297 821 OFFCURVE",
"297 763 CURVE SMOOTH",
"297 705 OFFCURVE",
"342 648 OFFCURVE",
"433 648 CURVE SMOOTH",
"479 648 OFFCURVE",
"499 671 OFFCURVE",
"499 693 CURVE SMOOTH",
"499 713 OFFCURVE",
"482 732 OFFCURVE",
"456 732 CURVE SMOOTH",
"430 732 OFFCURVE",
"413 720 OFFCURVE",
"388 720 CURVE SMOOTH",
"364 720 OFFCURVE",
"350 738 OFFCURVE",
"350 760 CURVE SMOOTH",
"350 789 OFFCURVE",
"376 820 OFFCURVE",
"437 820 CURVE SMOOTH",
"504 820 OFFCURVE",
"544 767 OFFCURVE",
"544 710 CURVE SMOOTH",
"544 651 OFFCURVE",
"502 592 OFFCURVE",
"402 592 CURVE SMOOTH",
"101 592 LINE SMOOTH",
"66 592 OFFCURVE",
"48 571 OFFCURVE",
"48 550 CURVE SMOOTH",
"48 529 OFFCURVE",
"66 508 OFFCURVE",
"101 508 CURVE SMOOTH"
);
}
);
width = 762;
},
{
layerId = UUID0;
name = Bold;
paths = (
{
closed = 1;
nodes = (
"707 -486 OFFCURVE",
"779 -369 OFFCURVE",
"779 -254 CURVE SMOOTH",
"779 -168 OFFCURVE",
"739 -83 OFFCURVE",
"657 -49 CURVE",
"654 -71 LINE",
"732 -65 OFFCURVE",
"771 -6 OFFCURVE",
"771 53 CURVE SMOOTH",
"771 123 OFFCURVE",
"718 173 OFFCURVE",
"646 173 CURVE SMOOTH",
"616 173 OFFCURVE",
"596 161 OFFCURVE",
"596 141 CURVE SMOOTH",
"596 122 OFFCURVE",
"613 116 OFFCURVE",
"634 112 CURVE SMOOTH",
"677 104 OFFCURVE",
"699 72 OFFCURVE",
"699 41 CURVE SMOOTH",
"699 10 OFFCURVE",
"679 -20 OFFCURVE",
"639 -30 CURVE SMOOTH",
"625 -34 OFFCURVE",
"611 -41 OFFCURVE",
"611 -56 CURVE SMOOTH",
"611 -68 OFFCURVE",
"620 -75 OFFCURVE",
"630 -80 CURVE SMOOTH",
"681 -104 OFFCURVE",
"710 -159 OFFCURVE",
"710 -206 CURVE SMOOTH",
"710 -293 OFFCURVE",
"654 -354 OFFCURVE",
"556 -354 CURVE SMOOTH",
"468 -354 OFFCURVE",
"389 -306 OFFCURVE",
"389 -215 CURVE SMOOTH",
"389 -180 OFFCURVE",
"408 -147 OFFCURVE",
"448 -128 CURVE",
"443 -114 LINE",
"358 -170 OFFCURVE",
"384 -296 OFFCURVE",
"494 -296 CURVE SMOOTH",
"567 -296 OFFCURVE",
"596 -242 OFFCURVE",
"596 -192 CURVE SMOOTH",
"596 -131 OFFCURVE",
"558 -81 OFFCURVE",
"487 -81 CURVE SMOOTH",
"393 -81 OFFCURVE",
"338 -174 OFFCURVE",
"338 -273 CURVE SMOOTH",
"338 -408 OFFCURVE",
"433 -486 OFFCURVE",
"562 -486 CURVE SMOOTH"
);
},
{
closed = 1;
nodes = (
"451 -227 OFFCURVE",
"431 -210 OFFCURVE",
"431 -192 CURVE SMOOTH",
"431 -173 OFFCURVE",
"452 -155 OFFCURVE",
"491 -155 CURVE SMOOTH",
"530 -155 OFFCURVE",
"551 -173 OFFCURVE",
"551 -192 CURVE SMOOTH",
"551 -210 OFFCURVE",
"531 -227 OFFCURVE",
"491 -227 CURVE SMOOTH"
);
},
{
closed = 1;
nodes = (
"410 477 LINE SMOOTH",
"549 477 OFFCURVE",
"618 604 OFFCURVE",
"618 728 CURVE SMOOTH",
"618 847 OFFCURVE",
"555 964 OFFCURVE",
"432 964 CURVE SMOOTH",
"332 964 OFFCURVE",
"283 887 OFFCURVE",
"283 813 CURVE SMOOTH",
"283 744 OFFCURVE",
"326 677 OFFCURVE",
"408 677 CURVE SMOOTH",
"477 677 OFFCURVE",
"503 708 OFFCURVE",
"503 737 CURVE SMOOTH",
"503 762 OFFCURVE",
"484 785 OFFCURVE",
"457 785 CURVE SMOOTH",
"413 785 OFFCURVE",
"417 754 OFFCURVE",
"374 754 CURVE SMOOTH",
"352 754 OFFCURVE",
"340 769 OFFCURVE",
"340 788 CURVE SMOOTH",
"340 817 OFFCURVE",
"369 853 OFFCURVE",
"435 853 CURVE SMOOTH",
"517 853 OFFCURVE",
"557 801 OFFCURVE",
"557 746 CURVE SMOOTH",
"557 686 OFFCURVE",
"508 623 OFFCURVE",
"410 623 CURVE SMOOTH",
"119 623 LINE SMOOTH",
"65 623 OFFCURVE",
"38 586 OFFCURVE",
"38 550 CURVE SMOOTH",
"38 513 OFFCURVE",
"65 477 OFFCURVE",
"119 477 CURVE SMOOTH"
);
}
);
width = 817;
}
);
unicode = 0CC8;
},
{
color = 10;
glyphname = knmO;
lastChange = "2015-12-28 04:47:49 +0000";
layers = (
{
background = {
paths = (
{
closed = 1;
nodes = (
"832 -8 OFFCURVE",
"883 71 OFFCURVE",
"883 174 CURVE SMOOTH",
"883 217 OFFCURVE",
"874 250 OFFCURVE",
"874 284 CURVE SMOOTH",
"874 395 OFFCURVE",
"938 467 OFFCURVE",
"1078 467 CURVE SMOOTH",
"1211 467 OFFCURVE",
"1272 381 OFFCURVE",
"1272 310 CURVE SMOOTH",
"1272 245 OFFCURVE",
"1220 177 OFFCURVE",
"1131 177 CURVE SMOOTH",
"1052 177 OFFCURVE",
"1022 217 OFFCURVE",
"1022 252 CURVE SMOOTH",
"1022 279 OFFCURVE",
"1040 303 OFFCURVE",
"1066 303 CURVE SMOOTH",
"1109 303 OFFCURVE",
"1105 272 OFFCURVE",
"1149 272 CURVE SMOOTH",
"1176 272 OFFCURVE",
"1195 295 OFFCURVE",
"1195 320 CURVE SMOOTH",
"1195 349 OFFCURVE",
"1169 380 OFFCURVE",
"1100 380 CURVE SMOOTH",
"989 380 OFFCURVE",
"932 289 OFFCURVE",
"932 195 CURVE SMOOTH",
"932 95 OFFCURVE",
"997 -8 OFFCURVE",
"1123 -8 CURVE SMOOTH",
"1263 -8 OFFCURVE",
"1338 137 OFFCURVE",
"1338 287 CURVE SMOOTH",
"1338 451 OFFCURVE",
"1249 623 OFFCURVE",
"1059 623 CURVE SMOOTH",
"903 623 OFFCURVE",
"800 522 OFFCURVE",
"800 370 CURVE SMOOTH",
"800 333 OFFCURVE",
"808 303 OFFCURVE",
"808 242 CURVE SMOOTH",
"808 185 OFFCURVE",
"781 150 OFFCURVE",
"728 150 CURVE SMOOTH",
"650 150 OFFCURVE",
"617 217 OFFCURVE",
"598 298 CURVE",
"552 221 LINE",
"559 83 OFFCURVE",
"607 -8 OFFCURVE",
"728 -8 CURVE SMOOTH"
);
},
{
closed = 1;
nodes = (
"410 477 LINE SMOOTH",
"549 477 OFFCURVE",
"618 604 OFFCURVE",
"618 728 CURVE SMOOTH",
"618 847 OFFCURVE",
"555 964 OFFCURVE",
"432 964 CURVE SMOOTH",
"332 964 OFFCURVE",
"283 887 OFFCURVE",
"283 813 CURVE SMOOTH",
"283 744 OFFCURVE",
"326 677 OFFCURVE",
"408 677 CURVE SMOOTH",
"477 677 OFFCURVE",
"503 708 OFFCURVE",
"503 737 CURVE SMOOTH",
"503 762 OFFCURVE",
"484 785 OFFCURVE",
"457 785 CURVE SMOOTH",
"413 785 OFFCURVE",
"417 754 OFFCURVE",
"374 754 CURVE SMOOTH",
"352 754 OFFCURVE",
"340 769 OFFCURVE",
"340 788 CURVE SMOOTH",
"340 817 OFFCURVE",
"369 853 OFFCURVE",
"435 853 CURVE SMOOTH",
"517 853 OFFCURVE",
"557 801 OFFCURVE",
"557 746 CURVE SMOOTH",
"557 686 OFFCURVE",
"508 623 OFFCURVE",
"410 623 CURVE SMOOTH",
"119 623 LINE SMOOTH",
"65 623 OFFCURVE",
"38 586 OFFCURVE",
"38 550 CURVE SMOOTH",
"38 513 OFFCURVE",
"65 477 OFFCURVE",
"119 477 CURVE SMOOTH"
);
}
);
};
guideLines = (
{
position = "{799, 191}";
}
);
layerId = UUID0;
name = Bold;
paths = (
{
closed = 1;
nodes = (
"410 477 LINE SMOOTH",
"549 477 OFFCURVE",
"618 604 OFFCURVE",
"618 728 CURVE SMOOTH",
"618 847 OFFCURVE",
"555 964 OFFCURVE",
"432 964 CURVE SMOOTH",
"332 964 OFFCURVE",
"283 887 OFFCURVE",
"283 813 CURVE SMOOTH",
"283 744 OFFCURVE",
"326 677 OFFCURVE",
"408 677 CURVE SMOOTH",
"477 677 OFFCURVE",
"503 708 OFFCURVE",
"503 737 CURVE SMOOTH",
"503 762 OFFCURVE",
"484 785 OFFCURVE",
"457 785 CURVE SMOOTH",
"413 785 OFFCURVE",
"417 754 OFFCURVE",
"374 754 CURVE SMOOTH",
"352 754 OFFCURVE",
"340 769 OFFCURVE",
"340 788 CURVE SMOOTH",
"340 817 OFFCURVE",
"369 853 OFFCURVE",
"435 853 CURVE SMOOTH",
"517 853 OFFCURVE",
"557 801 OFFCURVE",
"557 746 CURVE SMOOTH",
"557 686 OFFCURVE",
"508 623 OFFCURVE",
"410 623 CURVE SMOOTH",
"119 623 LINE SMOOTH",
"65 623 OFFCURVE",
"38 586 OFFCURVE",
"38 550 CURVE SMOOTH",
"38 513 OFFCURVE",
"65 477 OFFCURVE",
"119 477 CURVE SMOOTH"
);
},
{
closed = 1;
nodes = (
"829 -8 OFFCURVE",
"883 75 OFFCURVE",
"883 174 CURVE SMOOTH",
"883 217 OFFCURVE",
"874 250 OFFCURVE",
"874 284 CURVE SMOOTH",
"874 395 OFFCURVE",
"938 467 OFFCURVE",
"1078 467 CURVE SMOOTH",
"1211 467 OFFCURVE",
"1272 381 OFFCURVE",
"1272 310 CURVE SMOOTH",
"1272 245 OFFCURVE",
"1220 177 OFFCURVE",
"1131 177 CURVE SMOOTH",
"1052 177 OFFCURVE",
"1022 217 OFFCURVE",
"1022 252 CURVE SMOOTH",
"1022 279 OFFCURVE",
"1040 303 OFFCURVE",
"1066 303 CURVE SMOOTH",
"1109 303 OFFCURVE",
"1105 272 OFFCURVE",
"1149 272 CURVE SMOOTH",
"1176 272 OFFCURVE",
"1195 295 OFFCURVE",
"1195 320 CURVE SMOOTH",
"1195 349 OFFCURVE",
"1169 380 OFFCURVE",
"1100 380 CURVE SMOOTH",
"989 380 OFFCURVE",
"932 289 OFFCURVE",
"932 195 CURVE SMOOTH",
"932 95 OFFCURVE",
"997 -8 OFFCURVE",
"1123 -8 CURVE SMOOTH",
"1263 -8 OFFCURVE",
"1338 137 OFFCURVE",
"1338 287 CURVE SMOOTH",
"1338 451 OFFCURVE",
"1249 623 OFFCURVE",
"1059 623 CURVE SMOOTH",
"903 623 OFFCURVE",
"800 522 OFFCURVE",
"800 370 CURVE SMOOTH",
"800 333 OFFCURVE",
"808 303 OFFCURVE",
"808 242 CURVE SMOOTH",
"808 187 OFFCURVE",
"780 150 OFFCURVE",
"727 150 CURVE SMOOTH",
"662 150 OFFCURVE",
"626 197 OFFCURVE",
"610 259 CURVE SMOOTH",
"607 272 OFFCURVE",
"597 296 OFFCURVE",
"577 296 CURVE SMOOTH",
"552 296 OFFCURVE",
"544 254 OFFCURVE",
"544 212 CURVE SMOOTH",
"544 122 OFFCURVE",
"592 -8 OFFCURVE",
"728 -8 CURVE SMOOTH"
);
}
);
width = 1376;
},
{
background = {
paths = (
{
closed = 1;
nodes = (
"761 -7 OFFCURVE",
"831 54 OFFCURVE",
"831 165 CURVE SMOOTH",
"831 220 OFFCURVE",
"821 259 OFFCURVE",
"821 317 CURVE SMOOTH",
"821 439 OFFCURVE",
"920 501 OFFCURVE",
"1027 501 CURVE SMOOTH",
"1141 501 OFFCURVE",
"1260 429 OFFCURVE",
"1260 279 CURVE SMOOTH",
"1260 184 OFFCURVE",
"1198 94 OFFCURVE",
"1084 94 CURVE SMOOTH",
"1006 94 OFFCURVE",
"947 136 OFFCURVE",
"947 201 CURVE SMOOTH",
"947 239 OFFCURVE",
"969 272 OFFCURVE",
"1002 272 CURVE SMOOTH",
"1035 272 OFFCURVE",
"1056 260 OFFCURVE",
"1085 260 CURVE SMOOTH",
"1111 260 OFFCURVE",
"1128 279 OFFCURVE",
"1128 299 CURVE SMOOTH",
"1128 321 OFFCURVE",
"1108 344 OFFCURVE",
"1062 344 CURVE SMOOTH",
"946 344 OFFCURVE",
"890 263 OFFCURVE",
"890 178 CURVE SMOOTH",
"890 66 OFFCURVE",
"980 -6 OFFCURVE",
"1088 -6 CURVE SMOOTH",
"1235 -6 OFFCURVE",
"1317 134 OFFCURVE",
"1317 279 CURVE SMOOTH",
"1317 492 OFFCURVE",
"1167 592 OFFCURVE",
"1021 592 CURVE SMOOTH",
"883 592 OFFCURVE",
"762 502 OFFCURVE",
"762 339 CURVE SMOOTH",
"762 272 OFFCURVE",
"770 247 OFFCURVE",
"773 197 CURVE SMOOTH",
"776 139 OFFCURVE",
"756 93 OFFCURVE",
"691 93 CURVE SMOOTH",
"614 93 OFFCURVE",
"554 150 OFFCURVE",
"547 298 CURVE",
"518 220 LINE",
"529 64 OFFCURVE",
"610 -7 OFFCURVE",
"689 -7 CURVE SMOOTH"
);
},
{
closed = 1;
nodes = (
"432 508 LINE SMOOTH",
"567 508 OFFCURVE",
"628 603 OFFCURVE",
"628 696 CURVE SMOOTH",
"628 789 OFFCURVE",
"569 880 OFFCURVE",
"466 880 CURVE SMOOTH",
"375 880 OFFCURVE",
"328 821 OFFCURVE",
"328 763 CURVE SMOOTH",
"328 705 OFFCURVE",
"373 648 OFFCURVE",
"464 648 CURVE SMOOTH",
"510 648 OFFCURVE",
"530 671 OFFCURVE",
"530 693 CURVE SMOOTH",
"530 713 OFFCURVE",
"513 732 OFFCURVE",
"487 732 CURVE SMOOTH",
"461 732 OFFCURVE",
"444 720 OFFCURVE",
"419 720 CURVE SMOOTH",
"395 720 OFFCURVE",
"381 738 OFFCURVE",
"381 760 CURVE SMOOTH",
"381 789 OFFCURVE",
"407 820 OFFCURVE",
"468 820 CURVE SMOOTH",
"535 820 OFFCURVE",
"575 767 OFFCURVE",
"575 710 CURVE SMOOTH",
"575 651 OFFCURVE",
"533 592 OFFCURVE",
"433 592 CURVE SMOOTH",
"101 592 LINE SMOOTH",
"66 592 OFFCURVE",
"48 571 OFFCURVE",
"48 550 CURVE SMOOTH",
"48 529 OFFCURVE",
"66 508 OFFCURVE",
"101 508 CURVE SMOOTH"
);
}
);
};
guideLines = (
{
position = "{761, 90}";
}
);
layerId = "5E0B1C78-70A4-47D0-8E94-4E97FBB7DD03";
name = Light;
paths = (
{
closed = 1;
nodes = (
"432 508 LINE SMOOTH",
"567 508 OFFCURVE",
"628 603 OFFCURVE",
"628 696 CURVE SMOOTH",
"628 789 OFFCURVE",
"569 880 OFFCURVE",
"466 880 CURVE SMOOTH",
"375 880 OFFCURVE",
"328 821 OFFCURVE",
"328 763 CURVE SMOOTH",
"328 705 OFFCURVE",
"373 648 OFFCURVE",
"464 648 CURVE SMOOTH",
"510 648 OFFCURVE",
"530 671 OFFCURVE",
"530 693 CURVE SMOOTH",
"530 713 OFFCURVE",
"513 732 OFFCURVE",
"487 732 CURVE SMOOTH",
"461 732 OFFCURVE",
"444 720 OFFCURVE",
"419 720 CURVE SMOOTH",
"395 720 OFFCURVE",
"381 738 OFFCURVE",
"381 760 CURVE SMOOTH",
"381 789 OFFCURVE",
"407 820 OFFCURVE",
"468 820 CURVE SMOOTH",
"535 820 OFFCURVE",
"575 767 OFFCURVE",
"575 710 CURVE SMOOTH",
"575 651 OFFCURVE",
"533 592 OFFCURVE",
"433 592 CURVE SMOOTH",
"101 592 LINE SMOOTH",
"66 592 OFFCURVE",
"48 571 OFFCURVE",
"48 550 CURVE SMOOTH",
"48 529 OFFCURVE",
"66 508 OFFCURVE",
"101 508 CURVE SMOOTH"
);
},
{
closed = 1;
nodes = (
"753 -7 OFFCURVE",
"801 74 OFFCURVE",
"801 165 CURVE SMOOTH",
"801 220 OFFCURVE",
"791 259 OFFCURVE",
"791 317 CURVE SMOOTH",
"791 439 OFFCURVE",
"890 501 OFFCURVE",
"997 501 CURVE SMOOTH",
"1111 501 OFFCURVE",
"1230 429 OFFCURVE",
"1230 279 CURVE SMOOTH",
"1230 184 OFFCURVE",
"1168 94 OFFCURVE",
"1054 94 CURVE SMOOTH",
"976 94 OFFCURVE",
"917 136 OFFCURVE",
"917 201 CURVE SMOOTH",
"917 239 OFFCURVE",
"939 272 OFFCURVE",
"972 272 CURVE SMOOTH",
"1005 272 OFFCURVE",
"1026 260 OFFCURVE",
"1055 260 CURVE SMOOTH",
"1081 260 OFFCURVE",
"1098 279 OFFCURVE",
"1098 299 CURVE SMOOTH",
"1098 321 OFFCURVE",
"1078 344 OFFCURVE",
"1032 344 CURVE SMOOTH",
"916 344 OFFCURVE",
"860 263 OFFCURVE",
"860 178 CURVE SMOOTH",
"860 66 OFFCURVE",
"950 -6 OFFCURVE",
"1058 -6 CURVE SMOOTH",
"1205 -6 OFFCURVE",
"1287 134 OFFCURVE",
"1287 279 CURVE SMOOTH",
"1287 492 OFFCURVE",
"1137 592 OFFCURVE",
"991 592 CURVE SMOOTH",
"853 592 OFFCURVE",
"732 502 OFFCURVE",
"732 339 CURVE SMOOTH",
"732 272 OFFCURVE",
"743 247 OFFCURVE",
"743 179 CURVE SMOOTH",
"743 131 OFFCURVE",
"719 92 OFFCURVE",
"669 92 CURVE SMOOTH",
"610 92 OFFCURVE",
"578 141 OFFCURVE",
"558 194 CURVE SMOOTH",
"554 204 OFFCURVE",
"549 217 OFFCURVE",
"539 217 CURVE SMOOTH",
"527 217 OFFCURVE",
"524 202 OFFCURVE",
"524 186 CURVE SMOOTH",
"524 94 OFFCURVE",
"572 -7 OFFCURVE",
"670 -7 CURVE SMOOTH"
);
}
);
width = 1335;
}
);
unicode = 0CCA;
},
{
color = 10;
glyphname = knmOO;
lastChange = "2015-12-28 04:47:49 +0000";
layers = (
{
background = {
paths = (
{
closed = 1;
nodes = (
"832 -8 OFFCURVE",
"883 71 OFFCURVE",
"883 174 CURVE SMOOTH",
"883 217 OFFCURVE",
"874 250 OFFCURVE",
"874 284 CURVE SMOOTH",
"874 395 OFFCURVE",
"938 467 OFFCURVE",
"1078 467 CURVE SMOOTH",
"1211 467 OFFCURVE",
"1272 381 OFFCURVE",
"1272 310 CURVE SMOOTH",
"1272 245 OFFCURVE",
"1220 177 OFFCURVE",
"1131 177 CURVE SMOOTH",
"1052 177 OFFCURVE",
"1022 217 OFFCURVE",
"1022 252 CURVE SMOOTH",
"1022 279 OFFCURVE",
"1040 303 OFFCURVE",
"1066 303 CURVE SMOOTH",
"1109 303 OFFCURVE",
"1105 272 OFFCURVE",
"1149 272 CURVE SMOOTH",
"1176 272 OFFCURVE",
"1195 295 OFFCURVE",
"1195 320 CURVE SMOOTH",
"1195 349 OFFCURVE",
"1169 380 OFFCURVE",
"1100 380 CURVE SMOOTH",
"989 380 OFFCURVE",
"932 289 OFFCURVE",
"932 195 CURVE SMOOTH",
"932 95 OFFCURVE",
"997 -8 OFFCURVE",
"1123 -8 CURVE SMOOTH",
"1263 -8 OFFCURVE",
"1338 137 OFFCURVE",
"1338 287 CURVE SMOOTH",
"1338 451 OFFCURVE",
"1249 623 OFFCURVE",
"1059 623 CURVE SMOOTH",
"903 623 OFFCURVE",
"800 522 OFFCURVE",
"800 370 CURVE SMOOTH",
"800 333 OFFCURVE",
"808 303 OFFCURVE",
"808 242 CURVE SMOOTH",
"808 185 OFFCURVE",
"781 150 OFFCURVE",
"728 150 CURVE SMOOTH",
"650 150 OFFCURVE",
"617 217 OFFCURVE",
"598 298 CURVE",
"552 221 LINE",
"559 83 OFFCURVE",
"607 -8 OFFCURVE",
"728 -8 CURVE SMOOTH"
);
},
{
closed = 1;
nodes = (
"410 477 LINE SMOOTH",
"549 477 OFFCURVE",
"618 604 OFFCURVE",
"618 728 CURVE SMOOTH",
"618 847 OFFCURVE",
"555 964 OFFCURVE",
"432 964 CURVE SMOOTH",
"332 964 OFFCURVE",
"283 887 OFFCURVE",
"283 813 CURVE SMOOTH",
"283 744 OFFCURVE",
"326 677 OFFCURVE",
"408 677 CURVE SMOOTH",
"477 677 OFFCURVE",
"503 708 OFFCURVE",
"503 737 CURVE SMOOTH",
"503 762 OFFCURVE",
"484 785 OFFCURVE",
"457 785 CURVE SMOOTH",
"413 785 OFFCURVE",
"417 754 OFFCURVE",
"374 754 CURVE SMOOTH",
"352 754 OFFCURVE",
"340 769 OFFCURVE",
"340 788 CURVE SMOOTH",
"340 817 OFFCURVE",
"369 853 OFFCURVE",
"435 853 CURVE SMOOTH",
"517 853 OFFCURVE",
"557 801 OFFCURVE",
"557 746 CURVE SMOOTH",
"557 686 OFFCURVE",
"508 623 OFFCURVE",
"410 623 CURVE SMOOTH",
"119 623 LINE SMOOTH",
"65 623 OFFCURVE",
"38 586 OFFCURVE",
"38 550 CURVE SMOOTH",
"38 513 OFFCURVE",
"65 477 OFFCURVE",
"119 477 CURVE SMOOTH"
);
},
{
closed = 1;
nodes = (
"1651 -6 OFFCURVE",
"1673 73 OFFCURVE",
"1616 130 CURVE SMOOTH",
"1530 216 OFFCURVE",
"1484 306 OFFCURVE",
"1484 384 CURVE SMOOTH",
"1484 452 OFFCURVE",
"1518 511 OFFCURVE",
"1589 552 CURVE",
"1589 579 LINE",
"1519 562 OFFCURVE",
"1485 504 OFFCURVE",
"1485 443 CURVE SMOOTH",
"1485 365 OFFCURVE",
"1542 283 OFFCURVE",
"1652 283 CURVE SMOOTH",
"1766 283 OFFCURVE",
"1823 367 OFFCURVE",
"1823 453 CURVE SMOOTH",
"1823 542 OFFCURVE",
"1761 633 OFFCURVE",
"1636 633 CURVE SMOOTH",
"1499 633 OFFCURVE",
"1408 476 OFFCURVE",
"1408 307 CURVE SMOOTH",
"1408 211 OFFCURVE",
"1438 112 OFFCURVE",
"1505 36 CURVE SMOOTH",
"1534 3 OFFCURVE",
"1556 -6 OFFCURVE",
"1584 -6 CURVE SMOOTH"
);
},
{
closed = 1;
nodes = (
"1593 408 OFFCURVE",
"1564 434 OFFCURVE",
"1564 460 CURVE SMOOTH",
"1564 485 OFFCURVE",
"1592 510 OFFCURVE",
"1648 510 CURVE SMOOTH",
"1704 510 OFFCURVE",
"1732 485 OFFCURVE",
"1732 460 CURVE SMOOTH",
"1732 434 OFFCURVE",
"1703 408 OFFCURVE",
"1648 408 CURVE SMOOTH"
);
}
);
};
layerId = UUID0;
name = Bold;
paths = (
{
closed = 1;
nodes = (
"410 477 LINE SMOOTH",
"549 477 OFFCURVE",
"618 604 OFFCURVE",
"618 728 CURVE SMOOTH",
"618 847 OFFCURVE",
"555 964 OFFCURVE",
"432 964 CURVE SMOOTH",
"332 964 OFFCURVE",
"283 887 OFFCURVE",
"283 813 CURVE SMOOTH",
"283 744 OFFCURVE",
"326 677 OFFCURVE",
"408 677 CURVE SMOOTH",
"477 677 OFFCURVE",
"503 708 OFFCURVE",
"503 737 CURVE SMOOTH",
"503 762 OFFCURVE",
"484 785 OFFCURVE",
"457 785 CURVE SMOOTH",
"413 785 OFFCURVE",
"417 754 OFFCURVE",
"374 754 CURVE SMOOTH",
"352 754 OFFCURVE",
"340 769 OFFCURVE",
"340 788 CURVE SMOOTH",
"340 817 OFFCURVE",
"369 853 OFFCURVE",
"435 853 CURVE SMOOTH",
"517 853 OFFCURVE",
"557 801 OFFCURVE",
"557 746 CURVE SMOOTH",
"557 686 OFFCURVE",
"508 623 OFFCURVE",
"410 623 CURVE SMOOTH",
"119 623 LINE SMOOTH",
"65 623 OFFCURVE",
"38 586 OFFCURVE",
"38 550 CURVE SMOOTH",
"38 513 OFFCURVE",
"65 477 OFFCURVE",
"119 477 CURVE SMOOTH"
);
},
{
closed = 1;
nodes = (
"829 -8 OFFCURVE",
"883 75 OFFCURVE",
"883 174 CURVE SMOOTH",
"883 217 OFFCURVE",
"874 250 OFFCURVE",
"874 284 CURVE SMOOTH",
"874 395 OFFCURVE",
"938 467 OFFCURVE",
"1078 467 CURVE SMOOTH",
"1211 467 OFFCURVE",
"1272 381 OFFCURVE",
"1272 310 CURVE SMOOTH",
"1272 245 OFFCURVE",
"1220 177 OFFCURVE",
"1131 177 CURVE SMOOTH",
"1052 177 OFFCURVE",
"1022 217 OFFCURVE",
"1022 252 CURVE SMOOTH",
"1022 279 OFFCURVE",
"1040 303 OFFCURVE",
"1066 303 CURVE SMOOTH",
"1109 303 OFFCURVE",
"1105 272 OFFCURVE",
"1149 272 CURVE SMOOTH",
"1176 272 OFFCURVE",
"1195 295 OFFCURVE",
"1195 320 CURVE SMOOTH",
"1195 349 OFFCURVE",
"1169 380 OFFCURVE",
"1100 380 CURVE SMOOTH",
"989 380 OFFCURVE",
"932 289 OFFCURVE",
"932 195 CURVE SMOOTH",
"932 95 OFFCURVE",
"997 -8 OFFCURVE",
"1123 -8 CURVE SMOOTH",
"1263 -8 OFFCURVE",
"1338 137 OFFCURVE",
"1338 287 CURVE SMOOTH",
"1338 451 OFFCURVE",
"1249 623 OFFCURVE",
"1059 623 CURVE SMOOTH",
"903 623 OFFCURVE",
"800 522 OFFCURVE",
"800 370 CURVE SMOOTH",
"800 333 OFFCURVE",
"808 303 OFFCURVE",
"808 242 CURVE SMOOTH",
"808 187 OFFCURVE",
"780 150 OFFCURVE",
"727 150 CURVE SMOOTH",
"662 150 OFFCURVE",
"626 197 OFFCURVE",
"610 259 CURVE SMOOTH",
"607 272 OFFCURVE",
"597 296 OFFCURVE",
"577 296 CURVE SMOOTH",
"552 296 OFFCURVE",
"544 254 OFFCURVE",
"544 212 CURVE SMOOTH",
"544 122 OFFCURVE",
"592 -8 OFFCURVE",
"728 -8 CURVE SMOOTH"
);
},
{
closed = 1;
nodes = (
"1692 -8 OFFCURVE",
"1740 23 OFFCURVE",
"1740 63 CURVE SMOOTH",
"1740 96 OFFCURVE",
"1682 109 OFFCURVE",
"1650 118 CURVE SMOOTH",
"1547 148 OFFCURVE",
"1453 225 OFFCURVE",
"1453 343 CURVE SMOOTH",
"1453 423 OFFCURVE",
"1494 505 OFFCURVE",
"1576 555 CURVE",
"1598 579 LINE",
"1528 558 OFFCURVE",
"1478 506 OFFCURVE",
"1478 444 CURVE SMOOTH",
"1478 370 OFFCURVE",
"1536 305 OFFCURVE",
"1621 305 CURVE SMOOTH",
"1720 305 OFFCURVE",
"1771 385 OFFCURVE",
"1771 464 CURVE SMOOTH",
"1771 544 OFFCURVE",
"1720 623 OFFCURVE",
"1617 623 CURVE SMOOTH",
"1459 623 OFFCURVE",
"1379 469 OFFCURVE",
"1379 313 CURVE SMOOTH",
"1379 153 OFFCURVE",
"1462 -8 OFFCURVE",
"1631 -8 CURVE SMOOTH"
);
},
{
closed = 1;
nodes = (
"1561 412 OFFCURVE",
"1532 438 OFFCURVE",
"1532 464 CURVE SMOOTH",
"1532 489 OFFCURVE",
"1560 514 OFFCURVE",
"1616 514 CURVE SMOOTH",
"1672 514 OFFCURVE",
"1700 489 OFFCURVE",
"1700 464 CURVE SMOOTH",
"1700 438 OFFCURVE",
"1671 412 OFFCURVE",
"1616 412 CURVE SMOOTH"
);
}
);
width = 1809;
},
{
background = {
paths = (
{
closed = 1;
nodes = (
"761 -7 OFFCURVE",
"831 54 OFFCURVE",
"831 165 CURVE SMOOTH",
"831 220 OFFCURVE",
"821 259 OFFCURVE",
"821 317 CURVE SMOOTH",
"821 439 OFFCURVE",
"920 501 OFFCURVE",
"1027 501 CURVE SMOOTH",
"1141 501 OFFCURVE",
"1260 429 OFFCURVE",
"1260 279 CURVE SMOOTH",
"1260 184 OFFCURVE",
"1198 94 OFFCURVE",
"1084 94 CURVE SMOOTH",
"1006 94 OFFCURVE",
"947 136 OFFCURVE",
"947 201 CURVE SMOOTH",
"947 239 OFFCURVE",
"969 272 OFFCURVE",
"1002 272 CURVE SMOOTH",
"1035 272 OFFCURVE",
"1056 260 OFFCURVE",
"1085 260 CURVE SMOOTH",
"1111 260 OFFCURVE",
"1128 279 OFFCURVE",
"1128 299 CURVE SMOOTH",
"1128 321 OFFCURVE",
"1108 344 OFFCURVE",
"1062 344 CURVE SMOOTH",
"946 344 OFFCURVE",
"890 263 OFFCURVE",
"890 178 CURVE SMOOTH",
"890 66 OFFCURVE",
"980 -6 OFFCURVE",
"1088 -6 CURVE SMOOTH",
"1235 -6 OFFCURVE",
"1317 134 OFFCURVE",
"1317 279 CURVE SMOOTH",
"1317 492 OFFCURVE",
"1167 592 OFFCURVE",
"1021 592 CURVE SMOOTH",
"883 592 OFFCURVE",
"762 502 OFFCURVE",
"762 339 CURVE SMOOTH",
"762 272 OFFCURVE",
"770 247 OFFCURVE",
"773 197 CURVE SMOOTH",
"776 139 OFFCURVE",
"756 93 OFFCURVE",
"691 93 CURVE SMOOTH",
"614 93 OFFCURVE",
"554 150 OFFCURVE",
"547 298 CURVE",
"518 220 LINE",
"529 64 OFFCURVE",
"610 -7 OFFCURVE",
"689 -7 CURVE SMOOTH"
);
},
{
closed = 1;
nodes = (
"432 508 LINE SMOOTH",
"567 508 OFFCURVE",
"628 603 OFFCURVE",
"628 696 CURVE SMOOTH",
"628 789 OFFCURVE",
"569 880 OFFCURVE",
"466 880 CURVE SMOOTH",
"375 880 OFFCURVE",
"328 821 OFFCURVE",
"328 763 CURVE SMOOTH",
"328 705 OFFCURVE",
"373 648 OFFCURVE",
"464 648 CURVE SMOOTH",
"510 648 OFFCURVE",
"530 671 OFFCURVE",
"530 693 CURVE SMOOTH",
"530 713 OFFCURVE",
"513 732 OFFCURVE",
"487 732 CURVE SMOOTH",
"461 732 OFFCURVE",
"444 720 OFFCURVE",
"419 720 CURVE SMOOTH",
"395 720 OFFCURVE",
"381 738 OFFCURVE",
"381 760 CURVE SMOOTH",
"381 789 OFFCURVE",
"407 820 OFFCURVE",
"468 820 CURVE SMOOTH",
"535 820 OFFCURVE",
"575 767 OFFCURVE",
"575 710 CURVE SMOOTH",
"575 651 OFFCURVE",
"533 592 OFFCURVE",
"433 592 CURVE SMOOTH",
"101 592 LINE SMOOTH",
"66 592 OFFCURVE",
"48 571 OFFCURVE",
"48 550 CURVE SMOOTH",
"48 529 OFFCURVE",
"66 508 OFFCURVE",
"101 508 CURVE SMOOTH"
);
},
{
closed = 1;
nodes = (
"1569 -7 OFFCURVE",
"1584 43 OFFCURVE",
"1548 74 CURVE SMOOTH",
"1464 146 OFFCURVE",
"1431 240 OFFCURVE",
"1431 326 CURVE SMOOTH",
"1431 433 OFFCURVE",
"1481 529 OFFCURVE",
"1547 558 CURVE",
"1542 565 LINE",
"1490 544 OFFCURVE",
"1459 494 OFFCURVE",
"1459 440 CURVE SMOOTH",
"1459 351 OFFCURVE",
"1533 306 OFFCURVE",
"1607 306 CURVE SMOOTH",
"1685 306 OFFCURVE",
"1763 354 OFFCURVE",
"1763 452 CURVE SMOOTH",
"1763 540 OFFCURVE",
"1702 610 OFFCURVE",
"1605 610 CURVE SMOOTH",
"1459 610 OFFCURVE",
"1379 473 OFFCURVE",
"1379 314 CURVE SMOOTH",
"1379 221 OFFCURVE",
"1407 120 OFFCURVE",
"1465 36 CURVE SMOOTH",
"1480 14 OFFCURVE",
"1500 -7 OFFCURVE",
"1529 -7 CURVE SMOOTH"
);
},
{
closed = 1;
nodes = (
"1533 376 OFFCURVE",
"1496 416 OFFCURVE",
"1496 456 CURVE SMOOTH",
"1496 497 OFFCURVE",
"1533 537 OFFCURVE",
"1608 537 CURVE SMOOTH",
"1683 537 OFFCURVE",
"1720 497 OFFCURVE",
"1720 457 CURVE SMOOTH",
"1720 416 OFFCURVE",
"1683 376 OFFCURVE",
"1608 376 CURVE SMOOTH"
);
}
);
};
layerId = "5E0B1C78-70A4-47D0-8E94-4E97FBB7DD03";
name = Light;
paths = (
{
closed = 1;
nodes = (
"432 508 LINE SMOOTH",
"567 508 OFFCURVE",
"628 603 OFFCURVE",
"628 696 CURVE SMOOTH",
"628 789 OFFCURVE",
"569 880 OFFCURVE",
"466 880 CURVE SMOOTH",
"375 880 OFFCURVE",
"328 821 OFFCURVE",
"328 763 CURVE SMOOTH",
"328 705 OFFCURVE",
"373 648 OFFCURVE",
"464 648 CURVE SMOOTH",
"510 648 OFFCURVE",
"530 671 OFFCURVE",
"530 693 CURVE SMOOTH",
"530 713 OFFCURVE",
"513 732 OFFCURVE",
"487 732 CURVE SMOOTH",
"461 732 OFFCURVE",
"444 720 OFFCURVE",
"419 720 CURVE SMOOTH",
"395 720 OFFCURVE",
"381 738 OFFCURVE",
"381 760 CURVE SMOOTH",
"381 789 OFFCURVE",
"407 820 OFFCURVE",
"468 820 CURVE SMOOTH",
"535 820 OFFCURVE",
"575 767 OFFCURVE",
"575 710 CURVE SMOOTH",
"575 651 OFFCURVE",
"533 592 OFFCURVE",
"433 592 CURVE SMOOTH",
"101 592 LINE SMOOTH",
"66 592 OFFCURVE",
"48 571 OFFCURVE",
"48 550 CURVE SMOOTH",
"48 529 OFFCURVE",
"66 508 OFFCURVE",
"101 508 CURVE SMOOTH"
);
},
{
closed = 1;
nodes = (
"753 -7 OFFCURVE",
"801 74 OFFCURVE",
"801 165 CURVE SMOOTH",
"801 220 OFFCURVE",
"791 259 OFFCURVE",
"791 317 CURVE SMOOTH",
"791 439 OFFCURVE",
"890 501 OFFCURVE",
"997 501 CURVE SMOOTH",
"1111 501 OFFCURVE",
"1230 429 OFFCURVE",
"1230 279 CURVE SMOOTH",
"1230 184 OFFCURVE",
"1168 94 OFFCURVE",
"1054 94 CURVE SMOOTH",
"976 94 OFFCURVE",
"917 136 OFFCURVE",
"917 201 CURVE SMOOTH",
"917 239 OFFCURVE",
"939 272 OFFCURVE",
"972 272 CURVE SMOOTH",
"1005 272 OFFCURVE",
"1026 260 OFFCURVE",
"1055 260 CURVE SMOOTH",
"1081 260 OFFCURVE",
"1098 279 OFFCURVE",
"1098 299 CURVE SMOOTH",
"1098 321 OFFCURVE",
"1078 344 OFFCURVE",
"1032 344 CURVE SMOOTH",
"916 344 OFFCURVE",
"860 263 OFFCURVE",
"860 178 CURVE SMOOTH",
"860 66 OFFCURVE",
"950 -6 OFFCURVE",
"1058 -6 CURVE SMOOTH",
"1205 -6 OFFCURVE",
"1287 134 OFFCURVE",
"1287 279 CURVE SMOOTH",
"1287 492 OFFCURVE",
"1137 592 OFFCURVE",
"991 592 CURVE SMOOTH",
"853 592 OFFCURVE",
"732 502 OFFCURVE",
"732 339 CURVE SMOOTH",
"732 272 OFFCURVE",
"743 247 OFFCURVE",
"743 179 CURVE SMOOTH",
"743 131 OFFCURVE",
"719 92 OFFCURVE",
"669 92 CURVE SMOOTH",
"610 92 OFFCURVE",
"578 141 OFFCURVE",
"558 194 CURVE SMOOTH",
"554 204 OFFCURVE",
"549 217 OFFCURVE",
"539 217 CURVE SMOOTH",
"527 217 OFFCURVE",
"524 202 OFFCURVE",
"524 186 CURVE SMOOTH",
"524 94 OFFCURVE",
"572 -7 OFFCURVE",
"670 -7 CURVE SMOOTH"
);
},
{
closed = 1;
nodes = (
"1613 -7 OFFCURVE",
"1646 12 OFFCURVE",
"1646 33 CURVE SMOOTH",
"1646 48 OFFCURVE",
"1627 60 OFFCURVE",
"1600 65 CURVE SMOOTH",
"1452 93 OFFCURVE",
"1390 215 OFFCURVE",
"1390 331 CURVE SMOOTH",
"1390 417 OFFCURVE",
"1429 500 OFFCURVE",
"1506 540 CURVE",
"1503 565 LINE",
"1442 541 OFFCURVE",
"1415 490 OFFCURVE",
"1415 440 CURVE SMOOTH",
"1415 373 OFFCURVE",
"1464 307 OFFCURVE",
"1550 307 CURVE SMOOTH",
"1643 307 OFFCURVE",
"1690 378 OFFCURVE",
"1690 450 CURVE SMOOTH",
"1690 521 OFFCURVE",
"1643 592 OFFCURVE",
"1550 592 CURVE SMOOTH",
"1408 592 OFFCURVE",
"1339 456 OFFCURVE",
"1339 313 CURVE SMOOTH",
"1339 157 OFFCURVE",
"1411 -7 OFFCURVE",
"1573 -7 CURVE SMOOTH"
);
},
{
closed = 1;
nodes = (
"1506 375 OFFCURVE",
"1460 399 OFFCURVE",
"1460 447 CURVE SMOOTH",
"1460 496 OFFCURVE",
"1506 520 OFFCURVE",
"1551 520 CURVE SMOOTH",
"1597 520 OFFCURVE",
"1642 496 OFFCURVE",
"1642 448 CURVE SMOOTH",
"1642 399 OFFCURVE",
"1597 375 OFFCURVE",
"1551 375 CURVE SMOOTH"
);
}
);
width = 1738;
}
);
unicode = 0CCB;
},
{
color = 8;
glyphname = knmAU;
lastChange = "2015-12-28 04:48:06 +0000";
layers = (
{
background = {
paths = (
{
closed = 1;
nodes = (
"-423 499 LINE SMOOTH",
"-477 499 OFFCURVE",
"-504 536 OFFCURVE",
"-504 572 CURVE SMOOTH",
"-504 609 OFFCURVE",
"-477 645 OFFCURVE",
"-423 645 CURVE SMOOTH",
"-203 645 LINE SMOOTH",
"-159 645 OFFCURVE",
"-137 673 OFFCURVE",
"-137 701 CURVE SMOOTH",
"-137 729 OFFCURVE",
"-159 757 OFFCURVE",
"-203 757 CURVE SMOOTH",
"-353 757 LINE SMOOTH",
"-407 757 OFFCURVE",
"-434 794 OFFCURVE",
"-434 830 CURVE SMOOTH",
"-434 867 OFFCURVE",
"-407 903 OFFCURVE",
"-353 903 CURVE SMOOTH",
"130 903 LINE SMOOTH",
"419 903 OFFCURVE",
"417 366 OFFCURVE",
"162 366 CURVE SMOOTH",
"62 366 OFFCURVE",
"13 443 OFFCURVE",
"13 517 CURVE SMOOTH",
"13 586 OFFCURVE",
"56 653 OFFCURVE",
"138 653 CURVE SMOOTH",
"207 653 OFFCURVE",
"233 622 OFFCURVE",
"233 593 CURVE SMOOTH",
"233 568 OFFCURVE",
"214 545 OFFCURVE",
"187 545 CURVE SMOOTH",
"143 545 OFFCURVE",
"147 576 OFFCURVE",
"104 576 CURVE SMOOTH",
"82 576 OFFCURVE",
"70 561 OFFCURVE",
"70 542 CURVE SMOOTH",
"70 513 OFFCURVE",
"99 477 OFFCURVE",
"165 477 CURVE SMOOTH",
"336 477 OFFCURVE",
"337 757 OFFCURVE",
"130 757 CURVE SMOOTH",
"-99 757 LINE",
"-99 782 LINE",
"-76 755 OFFCURVE",
"-64 714 OFFCURVE",
"-64 671 CURVE SMOOTH",
"-64 588 OFFCURVE",
"-109 499 OFFCURVE",
"-203 499 CURVE SMOOTH"
);
}
);
};
layerId = UUID0;
name = Bold;
paths = (
{
closed = 1;
nodes = (
"-423 499 LINE SMOOTH",
"-477 499 OFFCURVE",
"-504 536 OFFCURVE",
"-504 572 CURVE SMOOTH",
"-504 609 OFFCURVE",
"-477 645 OFFCURVE",
"-423 645 CURVE SMOOTH",
"-203 645 LINE SMOOTH",
"-159 645 OFFCURVE",
"-137 673 OFFCURVE",
"-137 701 CURVE SMOOTH",
"-137 729 OFFCURVE",
"-159 757 OFFCURVE",
"-203 757 CURVE SMOOTH",
"-353 757 LINE SMOOTH",
"-407 757 OFFCURVE",
"-434 794 OFFCURVE",
"-434 830 CURVE SMOOTH",
"-434 867 OFFCURVE",
"-407 903 OFFCURVE",
"-353 903 CURVE SMOOTH",
"110 903 LINE SMOOTH",
"275 903 OFFCURVE",
"352 753 OFFCURVE",
"352 609 CURVE SMOOTH",
"352 475 OFFCURVE",
"285 346 OFFCURVE",
"162 346 CURVE SMOOTH",
"52 346 OFFCURVE",
"0 432 OFFCURVE",
"0 514 CURVE SMOOTH",
"0 589 OFFCURVE",
"44 661 OFFCURVE",
"128 661 CURVE SMOOTH",
"197 661 OFFCURVE",
"223 630 OFFCURVE",
"223 601 CURVE SMOOTH",
"223 576 OFFCURVE",
"204 553 OFFCURVE",
"177 553 CURVE SMOOTH",
"133 553 OFFCURVE",
"137 584 OFFCURVE",
"94 584 CURVE SMOOTH",
"72 584 OFFCURVE",
"58 563 OFFCURVE",
"58 538 CURVE SMOOTH",
"58 502 OFFCURVE",
"88 457 OFFCURVE",
"165 457 CURVE SMOOTH",
"246 457 OFFCURVE",
"291 524 OFFCURVE",
"291 595 CURVE SMOOTH",
"291 673 OFFCURVE",
"235 757 OFFCURVE",
"110 757 CURVE SMOOTH",
"-99 757 LINE",
"-99 782 LINE",
"-76 755 OFFCURVE",
"-64 714 OFFCURVE",
"-64 671 CURVE SMOOTH",
"-64 588 OFFCURVE",
"-109 499 OFFCURVE",
"-203 499 CURVE SMOOTH"
);
}
);
width = 390;
},
{
background = {
paths = (
{
closed = 1;
nodes = (
"-355 609 LINE SMOOTH",
"-390 609 OFFCURVE",
"-408 630 OFFCURVE",
"-408 651 CURVE SMOOTH",
"-408 672 OFFCURVE",
"-390 693 OFFCURVE",
"-355 693 CURVE SMOOTH",
"-190 693 LINE SMOOTH",
"-140 693 OFFCURVE",
"-116 724 OFFCURVE",
"-116 755 CURVE SMOOTH",
"-116 787 OFFCURVE",
"-141 819 OFFCURVE",
"-191 819 CURVE SMOOTH",
"-285 819 LINE SMOOTH",
"-320 819 OFFCURVE",
"-338 840 OFFCURVE",
"-338 861 CURVE SMOOTH",
"-338 882 OFFCURVE",
"-320 903 OFFCURVE",
"-285 903 CURVE SMOOTH",
"105 903 LINE SMOOTH",
"224 903 OFFCURVE",
"301 827 OFFCURVE",
"301 715 CURVE SMOOTH",
"301 622 OFFCURVE",
"242 531 OFFCURVE",
"139 531 CURVE SMOOTH",
"48 531 OFFCURVE",
"1 590 OFFCURVE",
"1 648 CURVE SMOOTH",
"1 706 OFFCURVE",
"46 763 OFFCURVE",
"137 763 CURVE SMOOTH",
"183 763 OFFCURVE",
"203 740 OFFCURVE",
"203 718 CURVE SMOOTH",
"203 698 OFFCURVE",
"186 679 OFFCURVE",
"160 679 CURVE SMOOTH",
"134 679 OFFCURVE",
"117 691 OFFCURVE",
"92 691 CURVE SMOOTH",
"68 691 OFFCURVE",
"54 673 OFFCURVE",
"54 651 CURVE SMOOTH",
"54 622 OFFCURVE",
"80 591 OFFCURVE",
"141 591 CURVE SMOOTH",
"208 591 OFFCURVE",
"248 644 OFFCURVE",
"248 701 CURVE SMOOTH",
"248 773 OFFCURVE",
"189 819 OFFCURVE",
"106 819 CURVE SMOOTH",
"-110 819 LINE",
"-121 836 LINE",
"-86 826 OFFCURVE",
"-65 785 OFFCURVE",
"-65 740 CURVE SMOOTH",
"-65 678 OFFCURVE",
"-106 609 OFFCURVE",
"-206 609 CURVE SMOOTH"
);
}
);
};
layerId = "5E0B1C78-70A4-47D0-8E94-4E97FBB7DD03";
name = Light;
paths = (
{
closed = 1;
nodes = (
"-355 609 LINE SMOOTH",
"-390 609 OFFCURVE",
"-408 630 OFFCURVE",
"-408 651 CURVE SMOOTH",
"-408 672 OFFCURVE",
"-390 693 OFFCURVE",
"-355 693 CURVE SMOOTH",
"-190 693 LINE SMOOTH",
"-140 693 OFFCURVE",
"-116 724 OFFCURVE",
"-116 755 CURVE SMOOTH",
"-116 787 OFFCURVE",
"-141 819 OFFCURVE",
"-191 819 CURVE SMOOTH",
"-285 819 LINE SMOOTH",
"-320 819 OFFCURVE",
"-338 840 OFFCURVE",
"-338 861 CURVE SMOOTH",
"-338 882 OFFCURVE",
"-320 903 OFFCURVE",
"-285 903 CURVE SMOOTH",
"75 903 LINE SMOOTH",
"231 903 OFFCURVE",
"301 790 OFFCURVE",
"301 681 CURVE SMOOTH",
"301 579 OFFCURVE",
"240 481 OFFCURVE",
"132 481 CURVE SMOOTH",
"44 481 OFFCURVE",
"0 542 OFFCURVE",
"0 603 CURVE SMOOTH",
"0 664 OFFCURVE",
"45 726 OFFCURVE",
"137 726 CURVE SMOOTH",
"183 726 OFFCURVE",
"203 703 OFFCURVE",
"203 681 CURVE SMOOTH",
"203 661 OFFCURVE",
"186 642 OFFCURVE",
"160 642 CURVE SMOOTH",
"134 642 OFFCURVE",
"117 654 OFFCURVE",
"92 654 CURVE SMOOTH",
"68 654 OFFCURVE",
"54 633 OFFCURVE",
"54 608 CURVE SMOOTH",
"54 577 OFFCURVE",
"78 541 OFFCURVE",
"134 541 CURVE SMOOTH",
"208 541 OFFCURVE",
"252 604 OFFCURVE",
"252 670 CURVE SMOOTH",
"252 743 OFFCURVE",
"199 819 OFFCURVE",
"76 819 CURVE SMOOTH",
"-110 819 LINE",
"-121 836 LINE",
"-86 826 OFFCURVE",
"-65 785 OFFCURVE",
"-65 740 CURVE SMOOTH",
"-65 678 OFFCURVE",
"-106 609 OFFCURVE",
"-206 609 CURVE SMOOTH"
);
}
);
width = 301;
}
);
unicode = 0CCC;
},
